<svg xmlns="http://www.w3.org/2000/svg" width="24" height="24" viewBox="0 0 24 24">
    <g fill="none" fill-rule="evenodd">
        <path d="M0 0h24v24H0z"/>
        <path fill="#000" fill-rule="nonzero" d="M15.573 4.5A4.9 4.9 0 0 1 20.5 9.375c.013 2.57-1.549 5.077-4.137 7.444a25.587 25.587 0 0 1-4.064 3.018l-.115.066h-.263l-.114-.064c-.068-.038-.19-.109-.361-.212a25.556 25.556 0 0 1-3.754-2.782c-2.6-2.336-4.179-4.82-4.192-7.383a4.901 4.901 0 0 1 4.876-4.925 4.878 4.878 0 0 1 3.607 1.565c.91-1 2.199-1.595 3.59-1.602zm-3.522 14.403v.5-.5zm.078-.13a24.601 24.601 0 0 0 3.559-2.69c2.4-2.196 3.823-4.481 3.812-6.703a3.9 3.9 0 0 0-3.921-3.88 3.886 3.886 0 0 0-3.181 1.683l-.406.585-.412-.58A3.89 3.89 0 0 0 8.38 5.536 3.901 3.901 0 0 0 4.5 9.457c.011 2.215 1.45 4.478 3.86 6.643a24.57 24.57 0 0 0 3.688 2.722l.081-.05z"/>
    </g>
</svg>
