<svg xmlns="http://www.w3.org/2000/svg" xmlns:xlink="http://www.w3.org/1999/xlink" width="24" height="24" viewBox="0 0 24 24">
    <defs>
        <path id="a" d="M19 10.563v5.731A2.708 2.708 0 0 1 16.294 19H7.705A2.708 2.708 0 0 1 5 16.294V7.705A2.708 2.708 0 0 1 7.705 5h8.589A2.708 2.708 0 0 1 19 7.705v2.858zm-7 3.9A2.468 2.468 0 0 0 14.463 12c0-.536-.175-1.031-.466-1.436a2.46 2.46 0 0 0-1.997-1.028c-.823 0-1.55.407-1.999 1.028-.291.404-.465.9-.466 1.436A2.465 2.465 0 0 0 12 14.463zm5.38-5.478V6.612l-.309.001-2.064.007.008 2.373 2.365-.008zm-1.551 3.014a3.833 3.833 0 0 1-3.83 3.83 3.833 3.833 0 0 1-3.828-3.83c0-.507.102-.993.282-1.436h-2.09v5.731c0 .74.602 1.34 1.342 1.34h8.588c.74 0 1.342-.6 1.342-1.34v-5.731h-2.091c.182.443.285.929.285 1.436z"/>
    </defs>
    <g fill="none" fill-rule="evenodd">
        <mask id="b" fill="#fff">
            <use xlink:href="#a"/>
        </mask>
        <use fill="#000" fill-rule="nonzero" xlink:href="#a"/>
        <g fill="#EFEEED" mask="url(#b)">
            <path d="M0 0h24v24H0z"/>
        </g>
    </g>
</svg>
