<svg xmlns="http://www.w3.org/2000/svg" xmlns:xlink="http://www.w3.org/1999/xlink" width="361" height="66" viewBox="0 0 361 66">
    <defs>
        <path id="a" d="M0 .16h107.647v51.624H0z"/>
    </defs>
    <g fill="none" fill-rule="evenodd">
        <g transform="translate(0 13.2)">
            <mask id="b" fill="#fff">
                <use xlink:href="#a"/>
            </mask>
            <path fill="#FFF" d="M103.916 11.882c-.45-.244-1.049-.211-1.593-.043-.49.152-.947.412-1.377.694a13.69 13.69 0 0 0-1.679 1.298c-.682.613-1.279 1.267-1.89 1.95-.68.763-1.42 1.8-2.133 2.534-1.096 1.133-2.172 2.395-3.34 3.446-1.403 1.264-3.073 2.72-4.82 3.465a3.306 3.306 0 0 1-2.024.174c-.432-.108-.734-.394-.946-1.085-.118-.38-.088-.865.129-1.473.114-.173.227-.346.344-.519 1.89-.66 4.008-1.78 5.83-3.215 1.707-1.347 3.154-2.973 3.898-4.756.475-1.137.374-1.937-.042-2.296-1.048-.904-2.921-.122-3.92.433-1.034.577-2.115 1.113-3.14 1.82a24.293 24.293 0 0 0-3.444 2.902c-.806.807-1.478 1.617-2.333 2.439-.58-.095-.845-.228-1.08-.61-.328-.53-.265-1.207-.206-1.865.065-.744.193-1.492.412-2.239.178-.608.654-1.142.905-1.824.164-.441-.123-.896-.493-1.079-.448-.22-1.042-.161-1.606.083-.633.274-1.38.825-2.143 1.659-.522.57-.849 1.102-1.195 1.617-.247.135-.385.06-.413-.042A6.227 6.227 0 0 0 75 13.484c-.627-.83-1.515-1.291-2.268-1.327-2.346-.104-4.449.068-6.837.08-.485-1.021-.93-2.105-1.482-3.082-.817-1.448-1.742-2.749-2.83-3.864a13.473 13.473 0 0 0-4.767-3.176c-1.24-.49-2.564-.92-3.893-.886-1.336.034-2.559.486-3.384 1.264-.937.881-1.366 2.182-.878 3.77a7.404 7.404 0 0 0 1.264 2.42c.799 1.023 1.838 1.844 2.998 2.57.963.604 2.086.899 3.104 1.399.435.215.926.45 1.372.68a84.787 84.787 0 0 0-2.998 3.114c-.087.095-1.953 1.88-2.456 1.784-.452.005-1.168.138-1.048-.203.214-1.239.55-2.466.603-3.728.02-.461-.131-.92-.522-1.378-2.598-3.043-7.63.758-9.948 2.634a28.84 28.84 0 0 0-5.056 5.331c-.8.413-1.623.939-2.446 1.5-.566.384-1.069.544-1.508.481.411-.62.795-1.262 1.234-1.862.52-.71 1.111-1.368 1.645-2.07.677-.886 1.322-1.796 1.988-2.69.636-.854 1.27-1.709 1.92-2.553.407-.53.452-.961.205-1.38-.16-.27-.538-.451-1.233-.409-.673.04-1.326.32-1.989.756-.594.382-1.118.823-1.71 1.333-.64.667-1.37 1.295-1.992 1.977-.613.673-1.168 1.397-1.781 2.07-.796.87-1.563 1.563-2.123 2.162-1.084 1.156-2.894 2.745-4.55 3.986-.898.675-1.634 1.276-2.445 1.646-.781.358-1.64.624-2.605.553-1.073-.08-1.595-.769-1.37-1.863.168-.822.479-1.625.822-2.414.4-.918.871-1.9 1.44-2.829.636-1.039 1.453-1.945 2.194-2.896.696-.897 1.42-1.81 2.26-2.622.994-.96 2.056-1.843 3.086-2.76 1.003-.893 2.435-1.907 4.182-2.966 1.429-.867 3.12-1.488 4.935-1.93 1.567-.384 2.88-.506 3.908-.484l3.221.068c.57-.895 1.143-1.793 1.712-2.69.459-.736.916-1.472 1.373-2.208-.183-.183-.388-.46-.96-.551-.881-.142-1.89-.1-2.947.138a46.503 46.503 0 0 0-7.747 2.483c-1.973.825-3.933 1.695-5.827 2.691a49.36 49.36 0 0 0-4.936 2.966 56.045 56.045 0 0 0-4.934 3.793 80.038 80.038 0 0 0-4.155 3.864c-1.26 1.255-2.334 2.736-3.339 4.208-.769 1.128-1.433 2.379-1.83 3.725a6.819 6.819 0 0 0-.137 3.38c.333 1.534 1.273 2.51 2.743 2.828 1.31.285 2.65.226 4.044-.069 1.064-.224 2.144-.47 3.222-.896.765-.303 1.522-.622 2.193-1.104.124-.09.35-.195.343 0-.019.606-.5 1.072-.912 1.656-.269.38-.502.8-.87 1.103a392.845 392.845 0 0 0-5.963 3.932c-4.11 2.64-8.403 5.345-11.654 9.037-1.139 1.294-2.284 3.04-2.605 4.76-.601 3.207 2.505 3.294 4.76 2.711 2.584-.667 5.124-2.133 7.236-3.746 3.075-2.346 6.164-5.098 8.5-8.278l1.646-2.137 1.644-2.278c.457-.667.914-1.334 1.372-1.999l1.782-3.036c.725-.675 1.547-1.249 2.398-1.794.893-.597 1.784-1.196 2.674-1.793.55-.345 1.192-.714 1.741-1.06-.076.568-.207 1.187-.232 1.818-.03.702.022 1.39.3 1.932.4.783 1.046 1.253 1.962 1.38.977.133 1.986.084 2.947-.276.94-.352 1.828-.828 2.743-1.243.708-.482 1.416-.963 2.124-1.448l1.783-1.518 1.576-2 1.302-1.656.89-.896.962-.277 1.016.078c-.293.605-.581 1.19-.828 1.793-.377.924-.663 1.864-.646 2.797.018.8.03 1.647.364 2.39.418.934 1.153 1.638 1.934 1.947.886.352 1.879.432 2.98.244 1.061-.285 2.023-.66 2.86-1.176 1.07-.66 2.117-1.407 3.02-2.352a19.001 19.001 0 0 0 2.297-2.878c.761-1.19 1.259-2.496 1.851-3.728.41-.849.729-1.79.968-2.838.204-.898.348-1.783.374-2.662.698-.015 1.306-.09 1.99-.029.564.05 1.176.286 1.565.58.405.312.576.848.454 1.742a5.15 5.15 0 0 1-.618 1.824c-.819 1.47-1.608 2.89-2.432 4.354-1.441 2.42-3.007 5.004-4.448 7.422h5.396c2.133-2.536 4.021-6.13 5.852-8.997.233-.193.41-.221.534-.083.358.94.834 1.734 1.649 1.95 1.084.284 2.088.055 2.992-.502-.53.943-1.035 2.345-1.133 3.698-.1 1.353.212 2.658 1.285 3.404 1.584 1.099 3.335.48 4.91-.346a30.974 30.974 0 0 0 3.274-2.007c1.263-.879 2.475-1.828 3.7-2.802.286-.274.614-.512.859-.823.511-.645.422 0 .281.433a87.24 87.24 0 0 0-1.097 2.036c-.633.94-1.241 1.893-1.895 2.816-.88 1.244-1.812 2.45-2.713 3.683-.65.891-1.271 1.805-1.937 2.685-.926 1.228-1.895 2.426-2.84 3.64-.72.922-1.417 1.865-2.153 2.772-.8.984-1.64 1.933-2.454 2.903-.721.862-1.55 1.65-2.152 2.6-.345.542-.621 1.175-.646 1.818-.02.548.12 1.183.516 1.56a2.594 2.594 0 0 0 1.853.693c.815-.043 1.585-.476 2.282-.908.715-.448 1.303-1.084 1.893-1.692a31.82 31.82 0 0 0 2.108-2.426 59.987 59.987 0 0 0 2.282-3.075 98.378 98.378 0 0 0 2.67-3.985c.696-1.102 1.336-2.244 1.979-3.38a212.286 212.286 0 0 0 2.325-4.203c.648-1.204 1.264-2.425 1.895-3.639.645-1.24 1.256-2.502 1.937-3.725a72.438 72.438 0 0 1 2.239-3.768c.535-.835 1.128-1.633 1.722-2.426.725-.97 1.491-1.907 2.237-2.86.546-.663 1.222-1.24 1.638-1.993.463-.838.224-1.557-.259-1.82m-15.6 4.766c.323-.297 2.092-2.163 2.555-1.602.42.508-.272 1.34-.972 2.145-.966 1.113-1.826 1.978-3.374 2.057.319-1.073 1.007-1.877 1.792-2.6M12.33 42.343c-.663.787-2.149 3.068-3.659 4.29-.791.64-1.588.99-2.274.686-1.076-.48.437-2.572.783-3.028 1.302-1.71 3.007-3.057 4.655-4.395 1.108-.897 1.768-1.284 2.927-1.742-.468 1.328-1.325 2.87-2.432 4.19m35.812-24.857c-.618.403-1.288.673-1.838 1.057-.7.456-1.16.98-1.087 1.659.053.433.191.81.411 1.133-.27.96-.895 1.847-1.77 2.642-.666.62-1.246 1.321-2.092 1.773-.478.256-.94.091-1.164-.187-.372-.463-.298-1.031.038-1.7.389-.771.91-1.581 1.5-2.453 1.245-1.837 3.381-4.011 5.326-5.096.377-.21.699-.138.826.115.236.468.102.89-.15 1.057m14.477.702c-.442 1.08-.764 2.15-1.332 3.04-.68 1.074-1.445 2.115-2.496 2.919-.544.415-1.353.624-1.974.284-.403-.22-.506-.833-.362-1.5.194-.91.67-1.56 1.127-2.188.801-1.101 1.557-1.824 2.174-2.473.645-.677 1.505-1.257 1.895-2.068-.215-.445-.47-1.053-.685-1.5.377-.012.79.136 1.167.122.458.163.832.414.886.81.11.792-.039 1.663-.4 2.554m-6.685-8.101c-.709-.456-1.592-1.176-2.251-1.975-.745-.905-1.175-2.017-.251-3.106 1.027-1.216 3.505-.428 4.578.243a10.348 10.348 0 0 1 2.873 2.66c.923 1.268 1.595 2.666 2.279 4.322-2.626-.202-4.902-.65-7.228-2.144M107.58 7.73c-.19.763-.97 2.082-1.635 2.523-.529.353-1.454.386-2.15.097-.555-.233-.964-.672-.9-1.321.094-.973.667-1.574 1.307-2.212.703-.703 1.963-1.668 2.951-.812.442.382.593 1.066.427 1.725" mask="url(#b)"/>
        </g>
        <path fill="#F9A01B" d="M202 32.492h11V21.323h-11z"/>
        <path fill="#FFF" d="M175.605 24.105c2.93 3.208 4.395 7.46 4.395 12.76v27.104h-11.78V38.452c0-2.53-.748-4.577-2.241-6.136-1.495-1.56-3.444-2.34-5.847-2.34-2.403 0-4.38.78-5.934 2.34-1.554 1.56-2.33 3.605-2.33 6.136V63.97H140V20.264h10.9v3.973c3.284-3.296 7.533-4.945 12.749-4.945 5.04 0 9.025 1.605 11.956 4.813M259.213 45.512h-30.415c.758 2.701 2.2 4.787 4.327 6.253 2.126 1.465 4.761 2.199 7.91 2.199 4.253 0 8.273-1.437 12.06-4.313l4.896 7.936c-5.13 4.254-10.897 6.382-17.305 6.382-6.82 0-12.471-2.14-16.958-6.426C219.243 53.26 217 47.956 217 41.63c0-6.268 2.17-11.558 6.51-15.87 4.341-4.312 9.716-6.469 16.125-6.469 6.003 0 10.897 1.898 14.684 5.693C258.107 28.78 260 33.495 260 39.13c0 2.07-.262 4.196-.787 6.382m-26.57-14.49c-1.863 1.553-3.146 3.651-3.845 6.296h19.753c-.059-2.645-.992-4.743-2.796-6.296-1.807-1.553-3.992-2.33-6.556-2.33-2.507 0-4.692.777-6.555 2.33M291 21.846v10.371h-3.079c-3.478 0-6.243.943-8.296 2.831-2.052 1.888-3.078 4.692-3.078 8.41v21.527H265V21.846h10.605v5.228c2.909-3.833 6.786-5.75 11.632-5.75 1.426 0 2.68.174 3.763.522M298 64.985h11V21.323h-11zM354.39 27.76c4.406 4.293 6.61 9.578 6.61 15.858 0 6.28-2.204 11.58-6.61 15.901-4.408 4.32-9.745 6.481-16.017 6.481s-11.569-2.146-15.89-6.439C318.16 55.269 316 49.955 316 43.618c0-6.28 2.174-11.565 6.525-15.858 4.35-4.293 9.661-6.437 15.932-6.437 6.215 0 11.525 2.144 15.933 6.437m-23.73 7.52c-2.033 2.217-3.051 5.024-3.051 8.425 0 3.398 1.018 6.178 3.05 8.339 2.036 2.16 4.633 3.24 7.798 3.24 3.108 0 5.693-1.095 7.756-3.284 2.06-2.189 3.092-4.954 3.092-8.295 0-3.342-1.032-6.136-3.092-8.383-2.063-2.247-4.648-3.37-7.756-3.37-3.165 0-5.762 1.109-7.797 3.327M121 64.985h11V21.323h-11zM133 7.109c0 3.926-3.134 7.106-7 7.106s-7-3.18-7-7.106C119 3.182 122.134 0 126 0s7 3.182 7 7.109M310 7.109c0 3.926-3.134 7.106-7 7.106s-7-3.18-7-7.106C296 3.182 299.134 0 303 0s7 3.182 7 7.109M209.338 55.476c-5.492 0-7.459-1.799-7.459-6.728V10.154h-11.933v11.379H184v12.411h5.946v15.27c0 11.324 5.424 16.786 16.68 16.786 2.577 0 4.882-.332 6.374-.866v-9.857c-2.238.132-2.916.2-3.662.2"/>
    </g>
</svg>
