<svg xmlns="http://www.w3.org/2000/svg" width="35" height="47" viewBox="0 0 35 47">
    <g fill="none" fill-rule="evenodd">
        <path d="M-14-8.5h65v65h-65z"/>
        <path fill="#F9A01B" fill-rule="nonzero" d="M16.926 46.42c-3.074-2.248-6.387-5.36-9.275-9.276C3.38 31.358.896 24.886.896 17.81c0-9.281 7.549-16.83 16.83-16.83 9.281 0 16.83 7.549 16.83 16.83 0 7.077-2.486 13.549-6.755 19.335-2.89 3.915-6.2 7.026-9.276 9.276a1.354 1.354 0 0 1-1.599 0zm.8-19.327c5.12 0 9.286-4.165 9.286-9.284 0-5.12-4.167-9.285-9.287-9.285-5.118 0-9.285 4.165-9.285 9.285s4.167 9.284 9.285 9.284z"/>
    </g>
</svg>
