<?xml version="1.0" standalone="no"?>
<!DOCTYPE svg PUBLIC "-//W3C//DTD SVG 1.1//EN" "http://www.w3.org/Graphics/SVG/1.1/DTD/svg11.dtd" >
<svg>
<metadata>
Created by FontForge 20090622 at Thu May 30 09:03:40 2019
 By deploy user
Copyright (c) 2017 by Jakob Runge, under exclusive license to TypeMates. All rights reserved.
</metadata>
<defs>
<font id="CeraGodrejInterio-Medium" horiz-adv-x="560" >
  <font-face 
    font-family="Cera Godrej Interio Medium"
    font-weight="500"
    font-stretch="normal"
    units-per-em="1000"
    panose-1="0 0 6 0 0 0 0 0 0 0"
    ascent="808"
    descent="-192"
    x-height="491"
    cap-height="660"
    bbox="-150 -220 1336 1000"
    underline-thickness="76"
    underline-position="-24"
    unicode-range="U+0020-U+FB02"
  />
<missing-glyph horiz-adv-x="710" 
d="M83 660h544v-660h-544v660zM552 64v528h-396z" />
    <glyph glyph-name="fi" unicode="fi" horiz-adv-x="594" 
d="M94 590q0 86 47 128.5t128 42.5q39 0 68 -9v-89q-24 3 -42 3q-48 0 -72 -19t-24 -66v-90h116v-91h-116v-400h-105v400h-70v91h70v99zM466 744q29 0 50.5 -20.5t21.5 -49.5t-21 -49t-51 -20t-51 20t-21 49t21 49.5t51 20.5zM413 0v491h105v-491h-105z" />
    <glyph glyph-name="fl" unicode="fl" horiz-adv-x="594" 
d="M94 590q0 86 47 128.5t128 42.5q39 0 68 -9v-89q-24 3 -42 3q-48 0 -72 -19t-24 -66v-90h116v-91h-116v-400h-105v400h-70v91h70v99zM413 750h105v-750h-105v750z" />
    <glyph glyph-name=".notdef" horiz-adv-x="710" 
d="M83 660h544v-660h-544v660zM552 64v528h-396z" />
    <glyph glyph-name=".null" horiz-adv-x="0" 
 />
    <glyph glyph-name="nonmarkingreturn" horiz-adv-x="333" 
 />
    <glyph glyph-name="space" unicode=" " horiz-adv-x="280" 
 />
    <glyph glyph-name="exclam" unicode="!" horiz-adv-x="326" 
d="M225 660l-19 -435h-87l-20 435h126zM163 144q33 0 55 -22t22 -56q0 -33 -22 -55t-55 -22t-55.5 22t-22.5 55q0 34 22.5 56t55.5 22z" />
    <glyph glyph-name="quotedbl" unicode="&#x22;" horiz-adv-x="500" 
d="M219 660l-49 -268h-81l9 268h121zM429 660l-49 -268h-81l9 268h121z" />
    <glyph glyph-name="numbersign" unicode="#" horiz-adv-x="614" 
d="M586 408h-96l-21 -156h95v-90h-107l-22 -162h-87l22 162h-171l-22 -162h-87l22 162h-85v90h97l20 156h-94v90h106l22 162h89l-22 -162h169l22 162h88l-22 -162h84v-90zM211 249h170l22 162h-170z" />
    <glyph glyph-name="dollar" unicode="$" horiz-adv-x="537" 
d="M483 193q0 -69 -46.5 -113.5t-120.5 -55.5v-119h-97v121q-120 22 -183 135l73 54q46 -72 110 -93v184q-144 57 -144 167q0 61 40 102.5t104 54.5v119h97v-117q99 -18 152 -111l-72 -54q-36 53 -80 67v-163l18 -7q149 -58 149 -171zM180 474q0 -38 39 -61v118
q-39 -17 -39 -57zM316 119q62 18 62 72q0 45 -62 75v-147z" />
    <glyph glyph-name="percent" unicode="%" horiz-adv-x="821" 
d="M213 671q69 0 118 -46.5t49 -115.5t-48.5 -116t-118.5 -47t-118.5 47t-48.5 116t48.5 115.5t118.5 46.5zM644 660l-379 -660h-88l378 660h89zM213 597q-36 0 -59.5 -25t-23.5 -63t23 -63t60 -25q36 0 59.5 25t23.5 63t-23.5 63t-59.5 25zM607 315q70 0 119 -47t49 -116
q0 -68 -49 -115t-119 -47q-69 0 -117.5 46.5t-48.5 115.5t48.5 116t117.5 47zM608 240q-37 0 -60 -25t-23 -63t23 -62.5t60 -24.5q35 0 58.5 25t23.5 62q0 38 -23.5 63t-58.5 25z" />
    <glyph glyph-name="ampersand" unicode="&#x26;" horiz-adv-x="649" 
d="M622 293q-96 -140 -112 -160l109 -133h-125l-51 62q-84 -73 -186 -73q-90 0 -149.5 49t-59.5 128q0 60 35.5 105.5t104.5 97.5q-63 83 -63 151q0 66 42.5 108.5t113.5 42.5q69 0 111.5 -40t42.5 -100q0 -49 -28 -89.5t-82 -84.5l119 -145l48.5 71.5l45.5 67.5zM281 579
q-28 0 -43 -16t-15 -43q0 -40 47 -97q67 54 67 100q0 56 -56 56zM262 84q60 0 118 53l-133 161q-35 -27 -49.5 -40t-28 -35.5t-13.5 -46.5q0 -40 30 -66t76 -26z" />
    <glyph glyph-name="quotesingle" unicode="'" horiz-adv-x="291" 
d="M219 660l-49 -268h-81l9 268h121z" />
    <glyph glyph-name="parenleft" unicode="(" horiz-adv-x="349" 
d="M279 736l43 -66q-152 -101 -152 -368q0 -268 152 -367l-43 -66q-57 27 -101 76t-74.5 141.5t-30.5 215.5q0 180 58 286t148 148z" />
    <glyph glyph-name="parenright" unicode=")" horiz-adv-x="349" 
d="M71 736q89 -42 146.5 -148t57.5 -286q0 -179 -57.5 -285t-146.5 -148l-44 66q152 99 152 367q0 267 -152 368z" />
    <glyph glyph-name="asterisk" unicode="*" horiz-adv-x="438" 
d="M395 630l-92 -66l92 -66l-31 -53l-103 47l-11 -113h-62l-11 113l-103 -47l-31 53l92 66l-92 66l31 54l103 -47l11 113h62l11 -113l103 47z" />
    <glyph glyph-name="plus" unicode="+" 
d="M509 272h-176v-185h-102v185h-180v91h180v183h102v-183h176v-91z" />
    <glyph glyph-name="comma" unicode="," horiz-adv-x="270" 
d="M205 106l-46 -284h-85l9 284h122z" />
    <glyph glyph-name="hyphen" unicode="-" horiz-adv-x="344" 
d="M295 362v-89h-246v89h246z" />
    <glyph glyph-name="period" unicode="." horiz-adv-x="270" 
d="M136 144q32 0 54.5 -22t22.5 -56q0 -33 -22 -55t-55 -22t-56 22t-23 55t23 55.5t56 22.5z" />
    <glyph glyph-name="slash" unicode="/" horiz-adv-x="650" 
d="M645 780l-523 -901h-117l523 901h117z" />
    <glyph glyph-name="zero" unicode="0" horiz-adv-x="625" 
d="M313 671q124 0 187.5 -92t63.5 -243q0 -152 -63.5 -249.5t-187.5 -97.5q-84 0 -142.5 48t-84 124.5t-25.5 174.5q0 150 64 242.5t188 92.5zM313 574q-142 0 -142 -239q0 -249 142 -249q141 0 141 249q0 239 -141 239z" />
    <glyph glyph-name="one" unicode="1" horiz-adv-x="390" 
d="M253 660h37v-660h-106v535l-134 -43l-26 93z" />
    <glyph glyph-name="two" unicode="2" horiz-adv-x="572" 
d="M240 92h279v-92h-473v24l235 253q55 59 80 99t25 82q0 50 -30 83t-80 33t-81 -34.5t-31 -85.5q0 -21 5 -51h-107q-7 27 -7 57q0 84 61 147.5t161 63.5q95 0 157 -58.5t62 -146.5q0 -65 -35 -121t-105 -130z" />
    <glyph glyph-name="three" unicode="3" horiz-adv-x="543" 
d="M319 415q73 -12 124 -65t51 -138q0 -99 -70.5 -161t-170.5 -62q-80 0 -139.5 39.5t-92.5 103.5l74 52q64 -98 155 -98q59 0 97 34.5t38 90.5t-39.5 86t-112.5 30h-73v29l154 207h-246v97h411v-29z" />
    <glyph glyph-name="four" unicode="4" horiz-adv-x="562" 
d="M544 206v-91h-90v-115h-106v115h-330v29l211 516h109l-187 -454h197v203h106v-203h90z" />
    <glyph glyph-name="five" unicode="5" horiz-adv-x="559" 
d="M285 419q92 0 158.5 -54t66.5 -152q0 -100 -71 -162t-172 -62q-82 0 -142.5 39t-94.5 103l74 53q63 -98 160 -98q59 0 98 34t39 91q0 56 -39.5 86.5t-112.5 30.5h-152v332h361v-95h-257v-155q39 9 84 9z" />
    <glyph glyph-name="six" unicode="6" horiz-adv-x="556" 
d="M295 438q88 0 152.5 -63.5t64.5 -157.5q0 -97 -68.5 -162.5t-165.5 -65.5t-165 65.5t-68 163.5q0 38 13.5 76t28.5 62t48 71l165 233h125l-159 -225q14 3 29 3zM278 86q54 0 91.5 37.5t37.5 93.5t-37.5 93.5t-91.5 37.5q-55 0 -92 -37.5t-37 -93.5t37 -93.5t92 -37.5z
" />
    <glyph glyph-name="seven" unicode="7" horiz-adv-x="513" 
d="M36 660h453v-29l-319 -631h-115l291 565h-310v95z" />
    <glyph glyph-name="eight" unicode="8" horiz-adv-x="583" 
d="M388 343q143 -53 143 -171q0 -83 -66.5 -133t-172.5 -50q-107 0 -174 50t-67 133q0 119 143 171q-112 59 -112 159q0 80 59.5 124.5t150.5 44.5q90 0 149 -44.5t59 -124.5q0 -101 -112 -159zM292 584q-48 0 -78.5 -23t-30.5 -63q0 -36 26 -59t82 -48q56 24 82 47t26 60
q0 40 -30 63t-77 23zM292 77q64 0 98 27t34 72t-33.5 71t-99.5 50q-66 -23 -99.5 -50t-33.5 -71q0 -45 35 -72t99 -27z" />
    <glyph glyph-name="nine" unicode="9" horiz-adv-x="556" 
d="M279 671q96 0 164.5 -65.5t68.5 -163.5q0 -38 -14 -76t-28.5 -61.5t-48.5 -71.5l-164 -233h-126l159 225q-14 -3 -29 -3q-87 0 -151.5 63.5t-64.5 157.5q0 97 68.5 162.5t165.5 65.5zM279 312q54 0 91 38t37 93q0 56 -37 93.5t-91 37.5q-55 0 -92.5 -37.5t-37.5 -93.5
t37.5 -93.5t92.5 -37.5z" />
    <glyph glyph-name="colon" unicode=":" horiz-adv-x="270" 
d="M136 498q32 0 54.5 -22t22.5 -56q0 -33 -22 -55t-55 -22t-56 22t-23 55t23 55.5t56 22.5zM136 144q32 0 54.5 -22t22.5 -56q0 -33 -22 -55t-55 -22t-56 22t-23 55t23 55.5t56 22.5z" />
    <glyph glyph-name="semicolon" unicode=";" horiz-adv-x="270" 
d="M136 498q32 0 54.5 -22t22.5 -56q0 -33 -22 -55t-55 -22t-56 22t-23 55t23 55.5t56 22.5zM205 106l-46 -284h-85l9 284h122z" />
    <glyph glyph-name="less" unicode="&#x3c;" 
d="M495 529v-95l-275 -116l275 -116v-95l-451 196v30z" />
    <glyph glyph-name="equal" unicode="=" 
d="M500 469v-91h-439v91h439zM500 257v-91h-439v91h439z" />
    <glyph glyph-name="greater" unicode="&#x3e;" 
d="M65 529l451 -196v-30l-451 -196v95l275 116l-275 116v95z" />
    <glyph glyph-name="question" unicode="?" horiz-adv-x="448" 
d="M223 671q78 0 132 -48t54 -122q0 -46 -22 -80t-67 -75l-38.5 -35t-21.5 -26.5t-11 -32.5q0 -11 4 -27h-90q-11 24 -11 46q0 23 13.5 46t26.5 36t39 36q28 25 39.5 37t20.5 29t9 37q0 37 -23.5 59.5t-57.5 22.5q-68 0 -97 -86l-88 38q21 70 70.5 107.5t118.5 37.5z
M212 144q33 0 55.5 -22t22.5 -56q0 -33 -22.5 -55t-55.5 -22t-55.5 22t-22.5 55t22.5 55.5t55.5 22.5z" />
    <glyph glyph-name="at" unicode="@" horiz-adv-x="937" 
d="M481 661q177 0 295 -110t118 -267q0 -121 -74.5 -186t-196.5 -65h-37v57q-46 -68 -142 -68q-87 0 -143.5 61t-56.5 154t57 154t144 61q90 0 137 -61v52h92v-324q61 5 96 46.5t35 118.5q0 128 -89 210.5t-233 82.5q-152 0 -251 -93.5t-99 -239.5q0 -147 98.5 -240.5
t242.5 -93.5q61 0 125 19l17 -76q-69 -27 -152 -27q-176 0 -298.5 119t-122.5 297q0 181 127 300t311 119zM463 113q46 0 79.5 32t33.5 93t-32.5 92.5t-79.5 31.5q-50 0 -84 -34.5t-34 -90.5q0 -55 33.5 -89.5t83.5 -34.5z" />
    <glyph glyph-name="A" unicode="A" horiz-adv-x="662" 
d="M526 0l-50 123h-291l-50 -123h-113l273 660h73l272 -660h-114zM331 495l-110 -281h219z" />
    <glyph glyph-name="B" unicode="B" horiz-adv-x="618" 
d="M477 348q93 -49 93 -156q0 -84 -59 -138t-155 -54h-273v660h269q89 0 143.5 -49t54.5 -127q0 -90 -73 -136zM342 567h-155v-178h155q49 0 75 24.5t26 65.5t-26 64.5t-75 23.5zM347 93q55 0 85.5 27.5t30.5 74.5t-30.5 75t-85.5 28h-160v-205h160z" />
    <glyph glyph-name="C" unicode="C" horiz-adv-x="717" 
d="M390 671q91 0 165.5 -41t117.5 -111l-80 -59q-74 114 -202 114q-102 0 -170 -69.5t-68 -174.5t68 -174.5t170 -69.5q128 0 202 114l80 -59q-42 -70 -116.5 -111t-166.5 -41q-146 0 -246.5 98t-100.5 243q0 144 101 242.5t246 98.5z" />
    <glyph glyph-name="D" unicode="D" horiz-adv-x="692" 
d="M290 660q163 0 261 -91t98 -238q0 -146 -98.5 -238.5t-260.5 -92.5h-207v660h207zM289 564h-100v-469h100q115 0 183 66t68 170q0 106 -67.5 169.5t-183.5 63.5z" />
    <glyph glyph-name="E" unicode="E" horiz-adv-x="569" 
d="M517 660v-95h-328v-169h247v-92h-247v-209h340v-95h-446v660h434z" />
    <glyph glyph-name="F" unicode="F" horiz-adv-x="529" 
d="M507 660v-95h-318v-197h262v-96h-262v-272h-106v660h424z" />
    <glyph glyph-name="G" unicode="G" horiz-adv-x="746" 
d="M391 671q175 0 273 -138l-77 -63q-74 104 -197 104q-105 0 -171 -69t-66 -174q0 -107 68 -177t175 -70q130 0 197 100v71h-203v94h309v-186q-44 -79 -126 -126.5t-182 -47.5q-147 0 -247.5 98t-100.5 243q0 144 100.5 242.5t247.5 98.5z" />
    <glyph glyph-name="H" unicode="H" horiz-adv-x="711" 
d="M83 0v660h106v-263h332v263h106v-660h-106v302h-332v-302h-106z" />
    <glyph glyph-name="I" unicode="I" horiz-adv-x="272" 
d="M189 660v-660h-106v660h106z" />
    <glyph glyph-name="J" unicode="J" horiz-adv-x="381" 
d="M298 660v-496q0 -88 -49 -131.5t-137 -43.5q-43 0 -91 11v91q45 -5 68 -5q52 0 77.5 19.5t25.5 69.5v485h106z" />
    <glyph glyph-name="K" unicode="K" horiz-adv-x="631" 
d="M83 0v660h106v-660h-106zM321 347l278 -347h-128l-279 347l269 313h128z" />
    <glyph glyph-name="L" unicode="L" horiz-adv-x="515" 
d="M189 660v-565h302v-95h-408v660h106z" />
    <glyph glyph-name="M" unicode="M" horiz-adv-x="793" 
d="M639 660h71v-660h-106v436l-189 -270h-36l-190 271v-437h-106v660h73l241 -352z" />
    <glyph glyph-name="N" unicode="N" horiz-adv-x="711" 
d="M521 660h106v-660h-72l-366 460v-460h-106v660h73l365 -458v458z" />
    <glyph glyph-name="O" unicode="O" horiz-adv-x="780" 
d="M389 671q144 0 245.5 -98.5t101.5 -242.5t-101.5 -242.5t-245.5 -98.5q-145 0 -245.5 98.5t-100.5 242.5t100.5 242.5t245.5 98.5zM390 574q-103 0 -170 -69t-67 -174q0 -106 67 -175.5t170 -69.5q102 0 169.5 69.5t67.5 175.5q0 104 -68 173.5t-169 69.5z" />
    <glyph glyph-name="P" unicode="P" horiz-adv-x="583" 
d="M324 660q100 0 162 -56t62 -146t-62 -146.5t-162 -56.5h-135v-255h-106v660h241zM322 566h-133v-217h133q56 0 86.5 29.5t30.5 78.5t-30.5 79t-86.5 30z" />
    <glyph glyph-name="Q" unicode="Q" horiz-adv-x="780" 
d="M736 330q0 -84 -36.5 -155t-100.5 -118l106 -126l-77 -64l-118 143q-57 -21 -121 -21q-145 0 -245.5 98.5t-100.5 242.5t100.5 242.5t245.5 98.5q144 0 245.5 -98.5t101.5 -242.5zM153 331q0 -106 67 -175.5t170 -69.5q102 0 169.5 69.5t67.5 174.5t-67.5 174.5
t-170.5 69.5q-102 0 -169 -69t-67 -174z" />
    <glyph glyph-name="R" unicode="R" horiz-adv-x="631" 
d="M592 0h-113l-150 255h-140v-255h-106v660h248q100 0 162 -56t62 -146q0 -64 -32.5 -112.5t-89.5 -71.5zM189 566v-217h140q55 0 86 30t31 78q0 49 -31 79t-86 30h-140z" />
    <glyph glyph-name="S" unicode="S" horiz-adv-x="559" 
d="M282 671q70 0 126 -32.5t87 -85.5l-74 -57q-53 80 -139 80q-42 0 -71 -20.5t-29 -59.5q0 -18 6 -31.5t21 -25t27 -18t38 -19.5l74 -34q80 -37 119 -80t39 -108q0 -86 -62.5 -138.5t-158.5 -52.5q-81 0 -146 38t-103 105l75 57q73 -105 173 -105q51 0 82.5 25t31.5 67
q0 35 -22.5 55t-74.5 44l-73 34q-73 33 -113.5 76t-40.5 107q0 80 60 129.5t148 49.5z" />
    <glyph glyph-name="T" unicode="T" horiz-adv-x="583" 
d="M238 0v565h-207v95h521v-95h-208v-565h-106z" />
    <glyph glyph-name="U" unicode="U" horiz-adv-x="694" 
d="M618 660v-393q0 -129 -75.5 -203.5t-194.5 -74.5q-121 0 -196.5 74.5t-75.5 203.5v393h106v-400q0 -84 46.5 -129t119.5 -45q72 0 118 45t46 129v400h106z" />
    <glyph glyph-name="V" unicode="V" horiz-adv-x="662" 
d="M521 660h119l-272 -660h-73l-273 660h119l190 -483z" />
    <glyph glyph-name="W" unicode="W" horiz-adv-x="1051" 
d="M899 660h116l-239 -660h-71l-179 475l-178 -475h-73l-239 660h117l164 -470l173 470h72l173 -469z" />
    <glyph glyph-name="X" unicode="X" horiz-adv-x="607" 
d="M584 0h-121l-160 246l-159 -246h-122l223 337l-209 323h122l146 -233l144 233h121l-205 -323z" />
    <glyph glyph-name="Y" unicode="Y" horiz-adv-x="620" 
d="M591 660l-228 -394v-266h-106v266l-228 394h118l163 -287l164 287h117z" />
    <glyph glyph-name="Z" unicode="Z" horiz-adv-x="588" 
d="M190 95h368v-95h-532v29l366 536h-323v95h488v-29z" />
    <glyph glyph-name="bracketleft" unicode="[" horiz-adv-x="350" 
d="M305 729v-88h-115v-682h115v-90h-209v860h209z" />
    <glyph glyph-name="backslash" unicode="\" horiz-adv-x="650" 
d="M5 780h117l523 -901h-117z" />
    <glyph glyph-name="bracketright" unicode="]" horiz-adv-x="350" 
d="M254 729v-860h-210v90h116v682h-116v88h210z" />
    <glyph glyph-name="asciicircum" unicode="^" horiz-adv-x="524" 
d="M469 280h-104l-103 216l-103 -216h-104l189 390h36z" />
    <glyph glyph-name="underscore" unicode="_" horiz-adv-x="504" 
d="M465 -70v-85h-426v85h426z" />
    <glyph glyph-name="grave" unicode="`" horiz-adv-x="266" 
d="M157 780l79 -212h-78l-128 193v19h127z" />
    <glyph glyph-name="a" unicode="a" horiz-adv-x="631" 
d="M457 491h98v-491h-102v63q-58 -74 -168 -74q-104 0 -172 73t-68 183t68 183.5t172 73.5q115 0 172 -81v70zM303 85q60 0 104 41t44 119q0 79 -44 120t-104 41q-64 0 -107.5 -45.5t-43.5 -115.5t43 -115t108 -45z" />
    <glyph glyph-name="b" unicode="b" horiz-adv-x="631" 
d="M345 502q104 0 172.5 -73.5t68.5 -183.5t-68 -183t-172 -73q-114 0 -172 79v-68h-98v750h105v-319q58 71 164 71zM328 85q64 0 107 45t43 116q0 70 -43 115t-107 45q-61 0 -104.5 -41.5t-43.5 -119.5q0 -79 43.5 -119.5t104.5 -40.5z" />
    <glyph glyph-name="c" unicode="c" horiz-adv-x="552" 
d="M305 502q68 0 121.5 -30.5t85.5 -83.5l-74 -58q-53 75 -132 75q-67 0 -110.5 -46t-43.5 -113q0 -69 43.5 -114.5t110.5 -45.5q78 0 132 74l74 -57q-71 -114 -207 -114q-109 0 -184.5 74.5t-75.5 182.5t75.5 182t184.5 74z" />
    <glyph glyph-name="d" unicode="d" horiz-adv-x="631" 
d="M449 750h106v-750h-98v70q-57 -81 -172 -81q-104 0 -172 73t-68 183t68 183.5t172 73.5q106 0 164 -71v319zM303 85q61 0 104.5 40.5t43.5 119.5q0 78 -44 119.5t-104 41.5q-65 0 -108 -45t-43 -115q0 -71 43 -116t108 -45z" />
    <glyph glyph-name="e" unicode="e" horiz-adv-x="570" 
d="M526 277q0 -31 -8 -66h-366q10 -60 53.5 -94.5t106.5 -34.5q77 0 143 58l50 -72q-84 -79 -196 -79q-114 0 -189 73.5t-75 182.5q0 108 73.5 182.5t180.5 74.5q98 0 162.5 -64t64.5 -161zM295 413q-52 0 -90.5 -32.5t-50.5 -87.5h267q-1 56 -37.5 88t-88.5 32z" />
    <glyph glyph-name="f" unicode="f" horiz-adv-x="322" 
d="M295 666q-48 0 -72 -19t-24 -66v-90h116v-91h-116v-400h-105v400h-70v91h70v99q0 86 47 128.5t128 42.5q39 0 68 -9v-89q-24 3 -42 3z" />
    <glyph glyph-name="g" unicode="g" horiz-adv-x="634" 
d="M461 491h97v-440q0 -116 -67 -179t-179 -63q-137 0 -236 93l58 73q86 -70 172 -70q67 0 107 35.5t40 104.5v35q-59 -70 -166 -70q-103 0 -171 69t-68 177t68 177t171 69q117 0 174 -81v70zM306 102q61 0 104.5 40t43.5 115t-43.5 113t-104.5 38q-64 0 -107 -42t-43 -110
q0 -69 43 -111.5t107 -42.5z" />
    <glyph glyph-name="h" unicode="h" horiz-adv-x="575" 
d="M323 502q84 0 133 -54t49 -141v-307h-105v292q0 51 -29 82.5t-78 31.5t-80.5 -32t-31.5 -82v-292h-105v750h105v-308q52 60 142 60z" />
    <glyph glyph-name="i" unicode="i" horiz-adv-x="257" 
d="M129 744q29 0 50.5 -20.5t21.5 -49.5t-21 -49t-51 -20t-51 20t-21 49t21 49.5t51 20.5zM181 491v-491h-105v491h105z" />
    <glyph glyph-name="j" unicode="j" horiz-adv-x="257" 
d="M129 744q29 0 50.5 -20.5t21.5 -49.5t-21 -49t-51 -20t-51 20t-21 49t21 49.5t51 20.5zM181 491v-511q0 -86 -46.5 -128.5t-127.5 -42.5q-41 0 -68 9v89q24 -3 43 -3q47 0 70.5 19.5t23.5 65.5v502h105z" />
    <glyph glyph-name="k" unicode="k" horiz-adv-x="533" 
d="M76 0v750h105v-750h-105zM308 274l210 -274h-126l-208 276l197 215h130z" />
    <glyph glyph-name="l" unicode="l" horiz-adv-x="257" 
d="M181 750v-750h-105v750h105z" />
    <glyph glyph-name="m" unicode="m" horiz-adv-x="883" 
d="M631 502q85 0 133.5 -53.5t48.5 -141.5v-307h-106v292q0 52 -27.5 83t-74.5 31q-48 0 -78 -31t-30 -78v-297h-105v292q0 51 -28 82.5t-75 31.5q-48 0 -78 -31.5t-30 -82.5v-292h-105v491h98v-46q54 57 142 57q101 0 149 -77q60 77 166 77z" />
    <glyph glyph-name="n" unicode="n" horiz-adv-x="575" 
d="M321 502q86 0 135 -53.5t49 -141.5v-307h-105v293q0 51 -29.5 82.5t-77.5 31.5q-49 0 -80.5 -32t-31.5 -82v-293h-105v491h98v-48q56 59 147 59z" />
    <glyph glyph-name="o" unicode="o" horiz-adv-x="609" 
d="M304 -11q-109 1 -184 75t-75 182t75 182t184 74q108 0 184.5 -74t76.5 -182t-76.5 -182.5t-184.5 -74.5zM304 86q65 0 109 45.5t44 113.5q0 69 -43.5 114.5t-108.5 46.5q-66 -1 -109.5 -46.5t-43.5 -114.5q0 -68 43 -113.5t109 -45.5z" />
    <glyph glyph-name="p" unicode="p" horiz-adv-x="631" 
d="M345 502q105 0 173 -73t68 -183q0 -111 -68 -184t-173 -73q-104 0 -164 71v-240h-105v671h98v-69q56 80 171 80zM328 85q64 0 107 45t43 115q0 71 -43 116t-107 45q-61 0 -104.5 -40.5t-43.5 -119.5q0 -78 43.5 -119.5t104.5 -41.5z" />
    <glyph glyph-name="q" unicode="q" horiz-adv-x="631" 
d="M457 491h98v-671h-106v239q-58 -70 -164 -70q-104 0 -172 73t-68 184q0 110 68 183t172 73q115 0 172 -81v70zM303 85q60 0 104 41.5t44 119.5q0 79 -43.5 119.5t-104.5 40.5q-65 0 -108 -45.5t-43 -115.5t43 -115t108 -45z" />
    <glyph glyph-name="r" unicode="r" horiz-adv-x="375" 
d="M317 496q22 0 40 -5v-93h-32q-62 0 -103 -35.5t-41 -100.5v-262h-105v491h98v-64q54 69 143 69z" />
    <glyph glyph-name="s" unicode="s" horiz-adv-x="455" 
d="M233 502q106 0 170 -76l-57 -65q-48 50 -115 50t-67 -47q0 -19 14.5 -31.5t50.5 -26.5l47 -19q70 -29 102 -62.5t32 -85.5q0 -71 -52 -110.5t-130 -39.5q-125 0 -198 95l60 66q67 -70 138 -70q34 0 56.5 14t22.5 41q0 22 -16.5 34t-52.5 27l-50 21q-65 27 -96.5 59
t-31.5 84q0 66 49 104t124 38z" />
    <glyph glyph-name="t" unicode="t" horiz-adv-x="398" 
d="M357 400h-151v-231q0 -45 23 -65t74 -20q17 0 47 5v-89q-37 -11 -69 -11q-88 0 -134.5 44t-46.5 127v240h-80v91h80v129h106v-129h151v-91z" />
    <glyph glyph-name="u" unicode="u" horiz-adv-x="570" 
d="M499 491v-285q0 -98 -60.5 -157.5t-152.5 -59.5q-93 0 -154 59.5t-61 157.5v285h104v-293q0 -51 31.5 -81.5t79.5 -30.5q46 0 77 30.5t31 81.5v293h105z" />
    <glyph glyph-name="v" unicode="v" horiz-adv-x="549" 
d="M418 491h112l-218 -499h-73l-220 499h112l144 -353z" />
    <glyph glyph-name="w" unicode="w" horiz-adv-x="854" 
d="M723 491h112l-199 -491h-73l-136 328l-136 -328h-71l-201 491h112l128 -340l132 340h73l133 -336z" />
    <glyph glyph-name="x" unicode="x" horiz-adv-x="514" 
d="M499 0h-120l-122 178l-123 -178h-120l183 255l-170 236h120l110 -160l109 160h120l-171 -236z" />
    <glyph glyph-name="y" unicode="y" horiz-adv-x="549" 
d="M418 491h112l-239 -547q-31 -70 -74 -102.5t-106 -32.5q-41 0 -81 10v89q46 -4 58 -4q37 0 63 15.5t44 56.5l20 46l-196 469h113l141 -357z" />
    <glyph glyph-name="z" unicode="z" horiz-adv-x="461" 
d="M179 91h260v-91h-417v29l257 371h-234v91h392v-30z" />
    <glyph glyph-name="braceleft" unicode="{" horiz-adv-x="404" 
d="M307 641q-71 0 -71 -74q0 -24 12 -90t12 -92q0 -65 -63 -86q33 -11 48 -30.5t15 -54.5q0 -26 -12 -92t-12 -90q0 -75 71 -75h53v-88h-72q-146 0 -146 137q0 35 12 105t12 88q0 55 -57 55h-60v91h60q57 0 57 54q0 19 -12 89t-12 105q0 136 146 136h72v-88h-53z" />
    <glyph glyph-name="bar" unicode="|" horiz-adv-x="332" 
d="M210 780v-901h-88v901h88z" />
    <glyph glyph-name="braceright" unicode="}" horiz-adv-x="404" 
d="M296 345h59v-91h-59q-58 0 -58 -55q0 -18 12 -88t12 -105q0 -137 -146 -137h-72v88h54q70 0 70 75q0 24 -12 90t-12 92q0 35 15 54.5t48 30.5q-63 21 -63 86q0 26 12 92t12 90q0 74 -70 74h-54v88h72q146 0 146 -136q0 -35 -12 -105t-12 -89q0 -54 58 -54z" />
    <glyph glyph-name="asciitilde" unicode="~" 
d="M157 417q39 0 84 -26l91 -56q44 -24 59 -24q17 0 26 12t9 30v17h83q2 -12 2 -30q0 -54 -30.5 -89t-78.5 -35q-40 0 -83 26l-91 55q-40 25 -59 25q-17 0 -26.5 -11.5t-9.5 -30.5v-17h-82q-2 12 -2 30q0 53 30.5 88.5t77.5 35.5z" />
    <glyph glyph-name="exclamdown" unicode="&#xa1;" horiz-adv-x="326" 
d="M163 502q33 0 55 -22t22 -56q0 -33 -22.5 -55t-54.5 -22q-33 0 -55.5 22t-22.5 55q0 34 22.5 56t55.5 22zM206 265l20 -445h-127l20 445h87z" />
    <glyph glyph-name="cent" unicode="&#xa2;" horiz-adv-x="555" 
d="M328 170q57 12 100 72l73 -58q-60 -99 -173 -112v-167h-98v173q-86 21 -140.5 89.5t-54.5 159.5q0 90 54.5 158.5t140.5 89.5v174h98v-168q114 -13 174 -111l-73 -58q-44 59 -101 71v-313zM142 327q0 -49 23.5 -88t64.5 -58v291q-41 -18 -64.5 -57t-23.5 -88z" />
    <glyph glyph-name="sterling" unicode="&#xa3;" horiz-adv-x="548" 
d="M288 215q0 -73 -45 -124h261v-91h-455v24q133 90 133 190q0 14 -1 21h-122v91h89l-10.5 20l-11.5 22l-10 20.5t-9.5 23.5l-6.5 22.5t-5.5 26.5t-1.5 27q0 82 57.5 132.5t146.5 50.5q80 0 136.5 -44t79.5 -128l-91 -33q-33 108 -119 108q-48 0 -75 -29t-27 -74
q0 -19 6 -39.5t12.5 -33.5t20 -37.5t18.5 -34.5h159v-91h-130q1 -6 1 -20z" />
    <glyph glyph-name="currency" unicode="&#xa4;" horiz-adv-x="649" 
d="M562 330q0 -73 -43 -132l108 -110l-63 -63l-110 112q-59 -37 -131 -37q-71 0 -129 36l-108 -111l-64 63l106 109q-43 59 -43 133q0 73 43 132l-106 108l64 63l108 -109q58 36 129 36q73 0 130 -37l110 110l64 -63l-108 -107q43 -59 43 -133zM323 197q56 0 93.5 38
t37.5 94q0 58 -37.5 96t-93.5 38q-57 0 -93.5 -38t-36.5 -96q0 -57 36.5 -94.5t93.5 -37.5z" />
    <glyph glyph-name="yen" unicode="&#xa5;" horiz-adv-x="575" 
d="M569 660l-204 -292h164v-89h-188v-77h188v-88h-188v-114h-106v114h-187v88h187v77h-187v89h163l-204 292h118l163 -237l163 237h118z" />
    <glyph glyph-name="brokenbar" unicode="&#xa6;" horiz-adv-x="332" 
d="M210 780v-300h-88v300h88zM210 179v-300h-88v300h88z" />
    <glyph glyph-name="section" unicode="&#xa7;" horiz-adv-x="590" 
d="M558 179q0 -52 -32 -87t-88 -49q1 -5 1 -17q0 -66 -47.5 -109t-126.5 -43q-117 0 -184 97l71 58q52 -63 115 -63q69 0 69 58q0 21 -13 40t-26.5 30.5t-46.5 36.5l-99 76q-62 44 -90.5 81.5t-28.5 83.5q0 52 32 87t88 49q-1 5 -1 17q0 66 48 109t127 43q116 0 183 -97
l-71 -59q-51 63 -115 63q-69 0 -69 -57q0 -21 13 -40.5t26 -30.5t47 -37l99 -75q62 -44 90.5 -81t28.5 -84zM408 118q48 18 48 60q0 21 -15.5 39t-61.5 52l-102 78q-67 48 -95 86q-47 -18 -47 -60q0 -21 15 -39t61 -53l99 -75q69 -49 98 -88z" />
    <glyph glyph-name="dieresis" unicode="&#xa8;" horiz-adv-x="420" 
d="M98 740q28 0 47.5 -19t19.5 -47q0 -26 -19.5 -45.5t-47.5 -19.5q-27 0 -47.5 19.5t-20.5 45.5q0 28 20.5 47t47.5 19zM322 740q29 0 48.5 -19t19.5 -47q0 -26 -20 -45.5t-48 -19.5q-26 0 -46.5 19.5t-20.5 45.5q0 28 20.5 47t46.5 19z" />
    <glyph glyph-name="copyright" unicode="&#xa9;" horiz-adv-x="780" 
d="M389 671q142 0 244.5 -99t102.5 -242q0 -144 -102 -242.5t-245 -98.5t-244.5 98.5t-101.5 242.5t102 242.5t244 98.5zM389 604q-112 0 -192 -77t-80 -197q0 -121 79.5 -197.5t192.5 -76.5q112 0 193 77t81 197t-80.5 197t-193.5 77zM398 519q94 0 152 -78l-60 -52
q-37 50 -90 50q-46 0 -75 -31t-29 -78q0 -46 29 -77t74 -31q55 0 91 49l60 -52q-59 -77 -153 -77q-80 0 -134.5 54t-54.5 134q0 81 54.5 135t135.5 54z" />
    <glyph glyph-name="ordfeminine" unicode="&#xaa;" horiz-adv-x="420" 
d="M288 556h75v-311h-75v35q-35 -43 -100 -43q-67 0 -110 46.5t-43 116.5q0 71 42.5 117t109.5 46q66 0 101 -44v37zM202 314q34 0 57.5 21.5t23.5 64.5t-23.5 64.5t-58.5 21.5t-58 -23t-23 -62q0 -40 23 -63.5t59 -23.5z" />
    <glyph glyph-name="guillemotleft" unicode="&#xab;" horiz-adv-x="550" 
d="M220 485l68 -60l-138 -153l138 -155l-68 -59l-186 199v29zM447 485l68 -60l-138 -153l138 -155l-68 -59l-186 199v29z" />
    <glyph glyph-name="logicalnot" unicode="&#xac;" 
d="M478 363v-264h-101v173h-328v91h429z" />
    <glyph glyph-name="uni00AD" unicode="&#xad;" horiz-adv-x="344" 
d="M295 362v-89h-246v89h246z" />
    <glyph glyph-name="registered" unicode="&#xae;" horiz-adv-x="572" 
d="M287 688q102 0 174.5 -74.5t72.5 -178.5t-72.5 -178t-174.5 -74q-103 0 -176 74t-73 178t73 178.5t176 74.5zM287 240q79 0 134 56.5t55 139.5t-55 139t-134 56q-80 0 -134.5 -56t-54.5 -139t54.5 -139.5t134.5 -56.5zM387 475q0 -48 -41 -71l69 -94h-71l-60 79h-32v-79
h-64v251h103q41 0 68.5 -23.5t27.5 -62.5zM252 505v-60h38q14 0 22.5 8t8.5 21q0 14 -8.5 22.5t-22.5 8.5h-38z" />
    <glyph glyph-name="macron" unicode="&#xaf;" horiz-adv-x="348" 
d="M318 716v-84h-288v84h288z" />
    <glyph glyph-name="degree" unicode="&#xb0;" horiz-adv-x="361" 
d="M180 671q64 0 108.5 -44t44.5 -106t-44.5 -106t-108.5 -44t-108 44t-44 106t44 106t108 44zM180 598q-31 0 -53 -22.5t-22 -54.5t22 -54.5t53 -22.5q33 0 54.5 22t21.5 55t-21.5 55t-54.5 22z" />
    <glyph glyph-name="plusminus" unicode="&#xb1;" 
d="M332 546v-145h168v-88h-168v-151h-103v151h-168v88h168v145h103zM500 88v-88h-439v88h439z" />
    <glyph glyph-name="uni00B2" unicode="&#xb2;" horiz-adv-x="376" 
d="M184 439h153v-75h-303v18l148 160q58 64 58 106q0 27 -16 45t-42 18q-27 0 -43.5 -18t-16.5 -47q0 -7 2 -31h-82q-4 16 -4 36q0 54 40 95t104 41q62 0 102.5 -37.5t40.5 -94.5q0 -42 -22 -77.5t-67 -84.5z" />
    <glyph glyph-name="uni00B3" unicode="&#xb3;" horiz-adv-x="357" 
d="M220 627q41 -10 70.5 -43t29.5 -84q0 -63 -45 -103t-110 -40q-51 0 -90 25.5t-60 67.5l58 41q35 -58 89 -58q32 0 52.5 18t20.5 49q0 61 -86 61h-45v21l88 123h-146v75h266v-23z" />
    <glyph glyph-name="acute" unicode="&#xb4;" horiz-adv-x="266" 
d="M236 780v-19l-128 -193h-78l79 212h127z" />
    <glyph glyph-name="uni00B5" unicode="&#xb5;" horiz-adv-x="601" 
d="M555 86l28 2v-88q-29 -8 -62 -8q-72 0 -100 55q-45 -58 -123 -58q-73 0 -117 52v-221h-105v671h105v-288q0 -53 31 -85.5t78 -32.5q48 0 79 32.5t31 85.5v288h105v-337q0 -68 50 -68z" />
    <glyph glyph-name="paragraph" unicode="&#xb6;" horiz-adv-x="588" 
d="M338 660v-433h-60q-105 0 -173.5 60t-68.5 158q0 97 68.5 156t173.5 59h60zM505 660v-674q0 -177 -182 -177q-38 0 -86 11v90q9 -1 23 -2t24 -2t18 -1q49 0 73.5 20.5t24.5 70.5v664h105z" />
    <glyph glyph-name="periodcentered" unicode="&#xb7;" horiz-adv-x="270" 
d="M136 395q32 0 54.5 -22.5t22.5 -55.5t-22 -55t-55 -22t-56 22t-23 55t23 55.5t56 22.5z" />
    <glyph glyph-name="cedilla" unicode="&#xb8;" horiz-adv-x="274" 
d="M178 35q66 -35 66 -106q0 -51 -38.5 -85.5t-104.5 -34.5q-33 0 -71 9v72q38 -3 58 -3q70 0 70 61q0 33 -23 66z" />
    <glyph glyph-name="uni00B9" unicode="&#xb9;" horiz-adv-x="361" 
d="M232 780v-341h88v-75h-275v75h104v266h-98v75h181z" />
    <glyph glyph-name="ordmasculine" unicode="&#xba;" horiz-adv-x="404" 
d="M202 562q69 0 118 -47t49 -116q0 -68 -49 -115t-118 -47q-70 0 -118.5 46.5t-48.5 115.5t48.5 116t118.5 47zM202 486q-37 0 -60 -24t-23 -63q0 -38 23 -62t60 -24t59.5 24t22.5 62t-22.5 62.5t-59.5 24.5z" />
    <glyph glyph-name="guillemotright" unicode="&#xbb;" horiz-adv-x="550" 
d="M103 485l186 -199v-29l-186 -199l-68 59l138 155l-138 153zM330 485l186 -199v-29l-186 -199l-68 59l138 155l-138 153z" />
    <glyph glyph-name="onequarter" unicode="&#xbc;" horiz-adv-x="910" 
d="M320 319v-75h-275v75h104v266h-98v75h181v-341h88zM628 660h89l-379 -660h-89zM897 137v-68h-53v-69h-76v69h-209v22l127 325h85l-110 -279h107v120h76v-120h53z" />
    <glyph glyph-name="onehalf" unicode="&#xbd;" horiz-adv-x="946" 
d="M320 319v-75h-275v75h104v266h-98v75h181v-341h88zM628 660h89l-379 -660h-89zM754 75h153v-75h-303v18l148 160q58 64 58 106q0 27 -16 45t-42 18q-27 0 -43.5 -18t-16.5 -47q0 -7 2 -31h-82q-4 16 -4 36q0 54 40 95t104 41q62 0 102.5 -37.5t40.5 -94.5
q0 -42 -22 -77.5t-67 -84.5z" />
    <glyph glyph-name="threequarters" unicode="&#xbe;" horiz-adv-x="871" 
d="M320 380q0 -63 -45 -103t-110 -40q-51 0 -90 25.5t-60 67.5l58 41q35 -58 89 -58q32 0 52.5 18t20.5 49q0 61 -86 61h-45v21l88 123h-146v75h266v-23l-92 -130q41 -10 70.5 -43t29.5 -84zM589 660h89l-379 -660h-89zM858 137v-68h-53v-69h-76v69h-209v22l127 325h85
l-110 -279h107v120h76v-120h53z" />
    <glyph glyph-name="questiondown" unicode="&#xbf;" horiz-adv-x="447" 
d="M235 502q33 0 55.5 -22t22.5 -56q0 -33 -22.5 -55.5t-55.5 -22.5q-32 0 -55 22.5t-23 55.5t22.5 55.5t55.5 22.5zM286 265q10 -24 10 -45q0 -24 -14.5 -49t-26.5 -36.5l-39 -36.5q-38 -35 -53.5 -57.5t-15.5 -51.5q0 -37 24 -60t58 -23q67 0 97 86l87 -38
q-20 -70 -69 -107.5t-118 -37.5q-79 0 -133 49t-54 125q0 49 22.5 84.5t66.5 73.5q39 35 54.5 55t15.5 43q0 15 -3 26h91z" />
    <glyph glyph-name="Agrave" unicode="&#xc0;" horiz-adv-x="662" 
d="M371 724h-78l-129 167v19h128zM526 0l-50 123h-291l-50 -123h-113l273 660h73l272 -660h-114zM331 495l-110 -281h219z" />
    <glyph glyph-name="Aacute" unicode="&#xc1;" horiz-adv-x="662" 
d="M496 891l-128 -167h-78l79 186h127v-19zM526 0l-50 123h-291l-50 -123h-113l273 660h73l272 -660h-114zM331 495l-110 -281h219z" />
    <glyph glyph-name="Acircumflex" unicode="&#xc2;" horiz-adv-x="662" 
d="M331 818l-101 -94h-81l148 186h67l148 -186h-81zM526 0l-50 123h-291l-50 -123h-113l273 660h73l272 -660h-114zM331 495l-110 -281h219z" />
    <glyph glyph-name="Atilde" unicode="&#xc3;" horiz-adv-x="662" 
d="M235 744h-84q-2 18 -2 29q0 51 28.5 84t72.5 33q36 0 72 -22l33 -20q32 -18 44 -18q28 0 28 35v15h84q1 -9 1 -29q0 -52 -28 -84.5t-71 -32.5q-34 0 -75 23l-31 18q-32 18 -44 18q-28 0 -28 -36v-13zM526 0l-50 123h-291l-50 -123h-113l273 660h73l272 -660h-114z
M331 495l-110 -281h219z" />
    <glyph glyph-name="Adieresis" unicode="&#xc4;" horiz-adv-x="662" 
d="M208 747q-27 0 -47.5 19.5t-20.5 45.5q0 27 20.5 46t47.5 19q28 0 47.5 -18.5t19.5 -46.5q0 -26 -19.5 -45.5t-47.5 -19.5zM452 746q-26 0 -46.5 19.5t-20.5 45.5q0 27 20.5 46.5t46.5 19.5q29 0 48.5 -19t19.5 -47q0 -26 -20 -45.5t-48 -19.5zM526 0l-50 123h-291
l-50 -123h-113l273 660h73l272 -660h-114zM331 495l-110 -281h219z" />
    <glyph glyph-name="Aring" unicode="&#xc5;" horiz-adv-x="662" 
d="M330 687q-51 0 -84.5 33t-33.5 82q0 48 33.5 81.5t84.5 33.5t85 -33.5t34 -81.5q0 -49 -34 -82t-85 -33zM331 848q-20 0 -33 -13t-13 -33t13 -33t33 -13q19 0 32 13t13 33t-13 33t-32 13zM526 0l-50 123h-291l-50 -123h-113l273 660h73l272 -660h-114zM331 495l-110 -281
h219z" />
    <glyph glyph-name="AE" unicode="&#xc6;" horiz-adv-x="836" 
d="M551 95h245v-95h-334l-19 110h-262l-58 -110h-114l342 660h433v-95h-311l28 -169h203v-92h-188zM379 505l-151 -304h199z" />
    <glyph glyph-name="Ccedilla" unicode="&#xc7;" horiz-adv-x="717" 
d="M391 86q128 0 202 114l80 -59q-72 -120 -217 -146q20 -29 20 -66q0 -51 -38.5 -85.5t-104.5 -34.5q-33 0 -71 9v72q38 -3 58 -3q70 0 70 61q0 19 -9 41q-143 3 -240.5 101t-97.5 240q0 144 101 242.5t246 98.5q91 0 165.5 -41t117.5 -111l-80 -59q-74 114 -202 114
q-102 0 -170 -69.5t-68 -174.5t68 -174.5t170 -69.5z" />
    <glyph glyph-name="Egrave" unicode="&#xc8;" horiz-adv-x="569" 
d="M260 910l79 -186h-78l-129 167v19h128zM517 660v-95h-328v-169h247v-92h-247v-209h340v-95h-446v660h434z" />
    <glyph glyph-name="Eacute" unicode="&#xc9;" horiz-adv-x="569" 
d="M464 910v-19l-128 -167h-78l79 186h127zM517 660v-95h-328v-169h247v-92h-247v-209h340v-95h-446v660h434z" />
    <glyph glyph-name="Ecircumflex" unicode="&#xca;" horiz-adv-x="569" 
d="M299 818l-101 -94h-81l148 186h67l148 -186h-81zM189 95h340v-95h-446v660h434v-95h-328v-169h247v-92h-247v-209z" />
    <glyph glyph-name="Edieresis" unicode="&#xcb;" horiz-adv-x="569" 
d="M176 877q28 0 47.5 -18.5t19.5 -46.5q0 -26 -19.5 -45.5t-47.5 -19.5q-27 0 -47.5 19.5t-20.5 45.5q0 27 20.5 46t47.5 19zM420 877q29 0 48.5 -19t19.5 -47q0 -26 -20 -45.5t-48 -19.5q-26 0 -46.5 19.5t-20.5 45.5q0 27 20.5 46.5t46.5 19.5zM517 660v-95h-328v-169
h247v-92h-247v-209h340v-95h-446v660h434z" />
    <glyph glyph-name="Igrave" unicode="&#xcc;" horiz-adv-x="272" 
d="M98 910l79 -186h-78l-129 167v19h128zM189 660v-660h-106v660h106z" />
    <glyph glyph-name="Iacute" unicode="&#xcd;" horiz-adv-x="272" 
d="M302 910v-19l-128 -167h-78l79 186h127zM189 660v-660h-106v660h106z" />
    <glyph glyph-name="Icircumflex" unicode="&#xce;" horiz-adv-x="272" 
d="M170 910l148 -186h-81l-100 94l-101 -94h-81l148 186h67zM83 0v660h106v-660h-106z" />
    <glyph glyph-name="Idieresis" unicode="&#xcf;" horiz-adv-x="272" 
d="M14 877q28 0 47.5 -18.5t19.5 -46.5q0 -26 -19.5 -45.5t-47.5 -19.5q-27 0 -47.5 19.5t-20.5 45.5q0 27 20.5 46t47.5 19zM258 877q29 0 48.5 -19t19.5 -47q0 -26 -20 -45.5t-48 -19.5q-26 0 -46.5 19.5t-20.5 45.5q0 27 20.5 46.5t46.5 19.5zM189 660v-660h-106v660h106
z" />
    <glyph glyph-name="Eth" unicode="&#xd0;" horiz-adv-x="692" 
d="M290 660q163 0 261 -91t98 -238q0 -146 -98.5 -238.5t-260.5 -92.5h-207v265h-89v90h89v305h207zM289 95q115 0 183 66t68 170q0 106 -67.5 169.5t-183.5 63.5h-100v-209h120v-90h-120v-170h100z" />
    <glyph glyph-name="Ntilde" unicode="&#xd1;" horiz-adv-x="711" 
d="M259 744h-84q-2 18 -2 29q0 51 28.5 84t72.5 33q36 0 72 -22l33 -20q32 -18 44 -18q28 0 28 35v15h84q1 -9 1 -29q0 -52 -28 -84.5t-71 -32.5q-34 0 -75 23l-31 18q-32 18 -44 18q-28 0 -28 -36v-13zM521 660h106v-660h-72l-366 460v-460h-106v660h73l365 -458v458z" />
    <glyph glyph-name="Ograve" unicode="&#xd2;" horiz-adv-x="780" 
d="M351 910l79 -186h-78l-129 167v19h128zM389 671q144 0 245.5 -98.5t101.5 -242.5t-101.5 -242.5t-245.5 -98.5q-145 0 -245.5 98.5t-100.5 242.5t100.5 242.5t245.5 98.5zM390 574q-103 0 -170 -69t-67 -174q0 -106 67 -175.5t170 -69.5q102 0 169.5 69.5t67.5 175.5
q0 104 -68 173.5t-169 69.5z" />
    <glyph glyph-name="Oacute" unicode="&#xd3;" horiz-adv-x="780" 
d="M555 910v-19l-128 -167h-78l79 186h127zM389 671q144 0 245.5 -98.5t101.5 -242.5t-101.5 -242.5t-245.5 -98.5q-145 0 -245.5 98.5t-100.5 242.5t100.5 242.5t245.5 98.5zM390 574q-103 0 -170 -69t-67 -174q0 -106 67 -175.5t170 -69.5q102 0 169.5 69.5t67.5 175.5
q0 104 -68 173.5t-169 69.5z" />
    <glyph glyph-name="Ocircumflex" unicode="&#xd4;" horiz-adv-x="780" 
d="M390 818l-101 -94h-81l148 186h67l148 -186h-81zM389 671q144 0 245.5 -98.5t101.5 -242.5t-101.5 -242.5t-245.5 -98.5q-145 0 -245.5 98.5t-100.5 242.5t100.5 242.5t245.5 98.5zM390 86q102 0 169.5 69.5t67.5 175.5q0 104 -68 173.5t-169 69.5q-103 0 -170 -69
t-67 -174q0 -106 67 -175.5t170 -69.5z" />
    <glyph glyph-name="Otilde" unicode="&#xd5;" horiz-adv-x="780" 
d="M309 890q36 0 72 -22l33 -20q32 -18 44 -18q28 0 28 35v15h84q1 -9 1 -29q0 -52 -28 -84.5t-71 -32.5q-34 0 -75 23l-31 18q-32 18 -44 18q-28 0 -28 -36v-13h-84q-2 18 -2 29q0 51 28.5 84t72.5 33zM389 671q144 0 245.5 -98.5t101.5 -242.5t-101.5 -242.5t-245.5 -98.5
q-145 0 -245.5 98.5t-100.5 242.5t100.5 242.5t245.5 98.5zM390 574q-103 0 -170 -69t-67 -174q0 -106 67 -175.5t170 -69.5q102 0 169.5 69.5t67.5 175.5q0 104 -68 173.5t-169 69.5z" />
    <glyph glyph-name="Odieresis" unicode="&#xd6;" horiz-adv-x="780" 
d="M267 877q28 0 47.5 -18.5t19.5 -46.5q0 -26 -19.5 -45.5t-47.5 -19.5q-27 0 -47.5 19.5t-20.5 45.5q0 27 20.5 46t47.5 19zM511 877q29 0 48.5 -19t19.5 -47q0 -26 -20 -45.5t-48 -19.5q-26 0 -46.5 19.5t-20.5 45.5q0 27 20.5 46.5t46.5 19.5zM389 671
q144 0 245.5 -98.5t101.5 -242.5t-101.5 -242.5t-245.5 -98.5q-145 0 -245.5 98.5t-100.5 242.5t100.5 242.5t245.5 98.5zM390 574q-103 0 -170 -69t-67 -174q0 -106 67 -175.5t170 -69.5q102 0 169.5 69.5t67.5 175.5q0 104 -68 173.5t-169 69.5z" />
    <glyph glyph-name="multiply" unicode="&#xd7;" 
d="M432 534l63 -63l-152 -152l152 -152l-63 -63l-152 151l-152 -151l-63 63l151 152l-151 152l63 63l152 -151z" />
    <glyph glyph-name="Oslash" unicode="&#xd8;" horiz-adv-x="780" 
d="M743 620l-79 -80q72 -91 72 -210q0 -144 -101.5 -242.5t-245.5 -98.5q-117 0 -208 67l-80 -80l-64 64l78 79q-72 91 -72 211q0 144 100.5 242.5t245.5 98.5q117 0 209 -68l81 81zM148 331q0 -79 39 -141l343 345q-62 43 -140 43q-104 0 -173 -70.5t-69 -176.5zM631 331
q0 77 -39 138l-343 -344q60 -43 141 -43q103 0 172 70.5t69 178.5z" />
    <glyph glyph-name="Ugrave" unicode="&#xd9;" horiz-adv-x="694" 
d="M308 910l79 -186h-78l-129 167v19h128zM618 660v-393q0 -129 -75.5 -203.5t-194.5 -74.5q-121 0 -196.5 74.5t-75.5 203.5v393h106v-400q0 -84 46.5 -129t119.5 -45q72 0 118 45t46 129v400h106z" />
    <glyph glyph-name="Uacute" unicode="&#xda;" horiz-adv-x="694" 
d="M512 910v-19l-128 -167h-78l79 186h127zM618 660v-393q0 -129 -75.5 -203.5t-194.5 -74.5q-121 0 -196.5 74.5t-75.5 203.5v393h106v-400q0 -84 46.5 -129t119.5 -45q72 0 118 45t46 129v400h106z" />
    <glyph glyph-name="Ucircumflex" unicode="&#xdb;" horiz-adv-x="694" 
d="M347 818l-101 -94h-81l148 186h67l148 -186h-81zM512 660h106v-393q0 -129 -75.5 -203.5t-194.5 -74.5q-121 0 -196.5 74.5t-75.5 203.5v393h106v-400q0 -84 46.5 -129t119.5 -45q72 0 118 45t46 129v400z" />
    <glyph glyph-name="Udieresis" unicode="&#xdc;" horiz-adv-x="694" 
d="M224 877q28 0 47.5 -18.5t19.5 -46.5q0 -26 -19.5 -45.5t-47.5 -19.5q-27 0 -47.5 19.5t-20.5 45.5q0 27 20.5 46t47.5 19zM468 877q29 0 48.5 -19t19.5 -47q0 -26 -20 -45.5t-48 -19.5q-26 0 -46.5 19.5t-20.5 45.5q0 27 20.5 46.5t46.5 19.5zM618 660v-393
q0 -129 -75.5 -203.5t-194.5 -74.5q-121 0 -196.5 74.5t-75.5 203.5v393h106v-400q0 -84 46.5 -129t119.5 -45q72 0 118 45t46 129v400h106z" />
    <glyph glyph-name="Yacute" unicode="&#xdd;" horiz-adv-x="620" 
d="M473 891l-128 -167h-78l79 186h127v-19zM591 660l-228 -394v-266h-106v266l-228 394h118l163 -287l164 287h117z" />
    <glyph glyph-name="Thorn" unicode="&#xde;" horiz-adv-x="583" 
d="M189 660v-110h135q101 0 162.5 -56.5t61.5 -148.5q0 -91 -62 -149t-162 -58h-135v-138h-106v660h106zM322 456h-133v-224h133q56 0 86.5 31t30.5 81q0 51 -30.5 81.5t-86.5 30.5z" />
    <glyph glyph-name="germandbls" unicode="&#xdf;" horiz-adv-x="630" 
d="M301 761q86 0 137 -41.5t51 -112.5q0 -40 -15 -80l-39 -107q-16 -41 -16 -61q0 -6 1 -11t4 -10.5l5 -9t8 -8.5t9 -8t12 -8.5l12.5 -7.5t14.5 -9t15 -9q53 -33 78.5 -64.5t25.5 -78.5q0 -67 -50 -107t-129 -40q-101 0 -171 65l48 75q62 -48 126 -48q71 0 71 52q0 5 -1 10
t-2.5 9t-5 8.5t-5.5 7.5t-8 8t-9 7l-11 7.5t-12 7.5t-13.5 8l-14.5 9q-53 31 -79 58.5t-26 64.5q0 32 18 76l38 102q15 42 15 69q0 37 -23 59t-64 22q-51 0 -83.5 -35t-32.5 -104v-526h-104v531q0 108 61 169t164 61z" />
    <glyph glyph-name="agrave" unicode="&#xe0;" horiz-adv-x="631" 
d="M350 568h-78l-128 193v19h127zM457 491h98v-491h-102v63q-58 -74 -168 -74q-104 0 -172 73t-68 183t68 183.5t172 73.5q115 0 172 -81v70zM303 85q60 0 104 41t44 119q0 79 -44 120t-104 41q-64 0 -107.5 -45.5t-43.5 -115.5t43 -115t108 -45z" />
    <glyph glyph-name="aacute" unicode="&#xe1;" horiz-adv-x="631" 
d="M479 761l-128 -193h-78l79 212h127v-19zM457 491h98v-491h-102v63q-58 -74 -168 -74q-104 0 -172 73t-68 183t68 183.5t172 73.5q115 0 172 -81v70zM303 85q60 0 104 41t44 119q0 79 -44 120t-104 41q-64 0 -107.5 -45.5t-43.5 -115.5t43 -115t108 -45z" />
    <glyph glyph-name="acircumflex" unicode="&#xe2;" horiz-adv-x="631" 
d="M311 677l-90 -109h-79l135 212h68l135 -212h-79zM457 491h98v-491h-102v63q-58 -74 -168 -74q-104 0 -172 73t-68 183t68 183.5t172 73.5q115 0 172 -81v70zM303 85q60 0 104 41t44 119q0 79 -44 120t-104 41q-64 0 -107.5 -45.5t-43.5 -115.5t43 -115t108 -45z" />
    <glyph glyph-name="atilde" unicode="&#xe3;" horiz-adv-x="631" 
d="M220 600h-82q-2 10 -2 29q0 53 27.5 86t71.5 33q39 0 70 -24l27 -20q25 -20 41 -20q28 0 28 38v14h83q1 -10 1 -29q0 -53 -27.5 -86.5t-71.5 -33.5q-35 0 -70 24l-26 20q-28 21 -42 21q-28 0 -28 -38v-14zM457 491h98v-491h-102v63q-58 -74 -168 -74q-104 0 -172 73
t-68 183t68 183.5t172 73.5q115 0 172 -81v70zM303 85q60 0 104 41t44 119q0 79 -44 120t-104 41q-64 0 -107.5 -45.5t-43.5 -115.5t43 -115t108 -45z" />
    <glyph glyph-name="adieresis" unicode="&#xe4;" horiz-adv-x="631" 
d="M198 609q-27 0 -47.5 19.5t-20.5 45.5q0 28 20.5 47t47.5 19q28 0 47.5 -19t19.5 -47q0 -26 -19.5 -45.5t-47.5 -19.5zM422 609q-26 0 -46.5 19.5t-20.5 45.5q0 28 20.5 47t46.5 19q29 0 48.5 -19t19.5 -47q0 -26 -20 -45.5t-48 -19.5zM457 491h98v-491h-102v63
q-58 -74 -168 -74q-104 0 -172 73t-68 183t68 183.5t172 73.5q115 0 172 -81v70zM303 85q60 0 104 41t44 119q0 79 -44 120t-104 41q-64 0 -107.5 -45.5t-43.5 -115.5t43 -115t108 -45z" />
    <glyph glyph-name="aring" unicode="&#xe5;" horiz-adv-x="631" 
d="M310 554q-51 0 -84.5 33.5t-33.5 81.5q0 49 33.5 82.5t84.5 33.5t85 -33.5t34 -82.5q0 -48 -34 -81.5t-85 -33.5zM311 716q-20 0 -33 -13.5t-13 -33.5q0 -19 13 -32t33 -13q19 0 32 13t13 32q0 20 -13 33.5t-32 13.5zM457 491h98v-491h-102v63q-58 -74 -168 -74
q-104 0 -172 73t-68 183t68 183.5t172 73.5q115 0 172 -81v70zM303 85q60 0 104 41t44 119q0 79 -44 120t-104 41q-64 0 -107.5 -45.5t-43.5 -115.5t43 -115t108 -45z" />
    <glyph glyph-name="ae" unicode="&#xe6;" horiz-adv-x="887" 
d="M834 204h-365q12 -57 54.5 -89.5t104.5 -32.5q77 0 142 57l51 -71q-82 -79 -195 -79q-68 0 -122.5 28.5t-88.5 79.5q-27 -53 -79 -80.5t-119 -27.5q-82 0 -129.5 40t-47.5 104q0 67 49.5 107t131.5 40h139v23q0 51 -27.5 78t-76.5 27q-73 0 -136 -73l-61 62
q76 105 206 105q117 0 165 -87q69 87 186 87q98 0 162 -64t64 -162q0 -44 -8 -72zM467 280h270q4 61 -32.5 97t-92.5 36t-95.5 -36.5t-49.5 -96.5zM233 71q53 0 90 32.5t37 81.5v19h-126q-87 0 -87 -63q0 -33 24 -51.5t62 -18.5z" />
    <glyph glyph-name="ccedilla" unicode="&#xe7;" horiz-adv-x="552" 
d="M306 86q78 0 132 74l74 -57q-55 -87 -151 -108q20 -28 20 -66q0 -51 -38.5 -85.5t-104.5 -34.5q-33 0 -71 9v72q38 -3 58 -3q70 0 70 61q0 19 -9 42q-103 7 -172 79.5t-69 176.5q0 108 75.5 182t184.5 74q68 0 121.5 -30.5t85.5 -83.5l-74 -58q-53 75 -132 75
q-67 0 -110.5 -46t-43.5 -113q0 -69 43.5 -114.5t110.5 -45.5z" />
    <glyph glyph-name="egrave" unicode="&#xe8;" horiz-adv-x="570" 
d="M336 568h-78l-128 193v19h127zM526 277q0 -31 -8 -66h-366q10 -60 53.5 -94.5t106.5 -34.5q77 0 143 58l50 -72q-84 -79 -196 -79q-114 0 -189 73.5t-75 182.5q0 108 73.5 182.5t180.5 74.5q98 0 162.5 -64t64.5 -161zM295 413q-52 0 -90.5 -32.5t-50.5 -87.5h267
q-1 56 -37.5 88t-88.5 32z" />
    <glyph glyph-name="eacute" unicode="&#xe9;" horiz-adv-x="570" 
d="M465 761l-128 -193h-78l79 212h127v-19zM526 277q0 -31 -8 -66h-366q10 -60 53.5 -94.5t106.5 -34.5q77 0 143 58l50 -72q-84 -79 -196 -79q-114 0 -189 73.5t-75 182.5q0 108 73.5 182.5t180.5 74.5q98 0 162.5 -64t64.5 -161zM295 413q-52 0 -90.5 -32.5t-50.5 -87.5
h267q-1 56 -37.5 88t-88.5 32z" />
    <glyph glyph-name="ecircumflex" unicode="&#xea;" horiz-adv-x="570" 
d="M297 677l-90 -109h-79l135 212h68l135 -212h-79zM526 277q0 -31 -8 -66h-366q10 -60 53.5 -94.5t106.5 -34.5q77 0 143 58l50 -72q-84 -79 -196 -79q-114 0 -189 73.5t-75 182.5q0 108 73.5 182.5t180.5 74.5q98 0 162.5 -64t64.5 -161zM295 413q-52 0 -90.5 -32.5
t-50.5 -87.5h267q-1 56 -37.5 88t-88.5 32z" />
    <glyph glyph-name="edieresis" unicode="&#xeb;" horiz-adv-x="570" 
d="M184 609q-27 0 -47.5 19.5t-20.5 45.5q0 28 20.5 47t47.5 19q28 0 47.5 -19t19.5 -47q0 -26 -19.5 -45.5t-47.5 -19.5zM408 609q-26 0 -46.5 19.5t-20.5 45.5q0 28 20.5 47t46.5 19q29 0 48.5 -19t19.5 -47q0 -26 -20 -45.5t-48 -19.5zM526 277q0 -31 -8 -66h-366
q10 -60 53.5 -94.5t106.5 -34.5q77 0 143 58l50 -72q-84 -79 -196 -79q-114 0 -189 73.5t-75 182.5q0 108 73.5 182.5t180.5 74.5q98 0 162.5 -64t64.5 -161zM295 413q-52 0 -90.5 -32.5t-50.5 -87.5h267q-1 56 -37.5 88t-88.5 32z" />
    <glyph glyph-name="igrave" unicode="&#xec;" horiz-adv-x="257" 
d="M120 780l49 -212h-78l-98 193v19h127zM181 491v-491h-105v491h105z" />
    <glyph glyph-name="iacute" unicode="&#xed;" horiz-adv-x="257" 
d="M265 780v-19l-98 -193h-78l49 212h127zM181 491v-491h-105v491h105z" />
    <glyph glyph-name="icircumflex" unicode="&#xee;" horiz-adv-x="257" 
d="M163 780l135 -212h-79l-90 109l-90 -109h-79l135 212h68zM76 0v491h105v-491h-105z" />
    <glyph glyph-name="idieresis" unicode="&#xef;" horiz-adv-x="257" 
d="M29 740q28 0 47.5 -19t19.5 -47q0 -26 -19.5 -45.5t-47.5 -19.5q-27 0 -47.5 19.5t-20.5 45.5q0 28 20 47t48 19zM229 740q29 0 48.5 -19t19.5 -47q0 -26 -20 -45.5t-48 -19.5q-26 0 -46.5 19.5t-20.5 45.5q0 28 20 47t47 19zM181 491v-491h-105v491h105z" />
    <glyph glyph-name="eth" unicode="&#xf0;" horiz-adv-x="571" 
d="M413 470q39 -53 59 -83t37 -74.5t17 -88.5q0 -101 -68.5 -168t-171.5 -67q-105 0 -173 65.5t-68 163.5q0 97 66 161t162 64q14 0 34 -2l-80 110l-143 -69l-37 76l129 63l-60 82l80 58l72 -96l154 75l38 -75l-141 -69zM285 84q58 0 96 38t38 97q0 58 -38 96t-96 38
t-95.5 -38t-37.5 -97t37.5 -96.5t95.5 -37.5z" />
    <glyph glyph-name="ntilde" unicode="&#xf1;" horiz-adv-x="575" 
d="M192 600h-82q-2 10 -2 29q0 53 27.5 86t71.5 33q39 0 70 -24l27 -20q25 -20 41 -20q28 0 28 38v14h83q1 -10 1 -29q0 -53 -27.5 -86.5t-71.5 -33.5q-35 0 -70 24l-26 20q-28 21 -42 21q-28 0 -28 -38v-14zM321 502q86 0 135 -53.5t49 -141.5v-307h-105v293
q0 51 -29.5 82.5t-77.5 31.5q-49 0 -80.5 -32t-31.5 -82v-293h-105v491h98v-48q56 59 147 59z" />
    <glyph glyph-name="ograve" unicode="&#xf2;" horiz-adv-x="609" 
d="M265 780l79 -212h-78l-128 193v19h127zM304 -11q-109 1 -184 75t-75 182t75 182t184 74q108 0 184.5 -74t76.5 -182t-76.5 -182.5t-184.5 -74.5zM304 86q65 0 109 45.5t44 113.5q0 69 -43.5 114.5t-108.5 46.5q-66 -1 -109.5 -46.5t-43.5 -114.5q0 -68 43 -113.5
t109 -45.5z" />
    <glyph glyph-name="oacute" unicode="&#xf3;" horiz-adv-x="609" 
d="M473 780v-19l-128 -193h-78l79 212h127zM304 -11q-109 1 -184 75t-75 182t75 182t184 74q108 0 184.5 -74t76.5 -182t-76.5 -182.5t-184.5 -74.5zM304 86q65 0 109 45.5t44 113.5q0 69 -43.5 114.5t-108.5 46.5q-66 -1 -109.5 -46.5t-43.5 -114.5q0 -68 43 -113.5
t109 -45.5z" />
    <glyph glyph-name="ocircumflex" unicode="&#xf4;" horiz-adv-x="609" 
d="M305 677l-90 -109h-79l135 212h68l135 -212h-79zM304 502q108 0 184.5 -74t76.5 -182t-76.5 -182.5t-184.5 -74.5q-109 1 -184 75t-75 182t75 182t184 74zM304 86q65 0 109 45.5t44 113.5q0 69 -43.5 114.5t-108.5 46.5q-66 -1 -109.5 -46.5t-43.5 -114.5
q0 -68 43 -113.5t109 -45.5z" />
    <glyph glyph-name="otilde" unicode="&#xf5;" horiz-adv-x="609" 
d="M229 748q39 0 70 -24l27 -20q25 -20 41 -20q28 0 28 38v14h83q1 -10 1 -29q0 -53 -27.5 -86.5t-71.5 -33.5q-35 0 -70 24l-26 20q-28 21 -42 21q-28 0 -28 -38v-14h-82q-2 10 -2 29q0 53 27.5 86t71.5 33zM304 -11q-109 1 -184 75t-75 182t75 182t184 74q108 0 184.5 -74
t76.5 -182t-76.5 -182.5t-184.5 -74.5zM304 86q65 0 109 45.5t44 113.5q0 69 -43.5 114.5t-108.5 46.5q-66 -1 -109.5 -46.5t-43.5 -114.5q0 -68 43 -113.5t109 -45.5z" />
    <glyph glyph-name="odieresis" unicode="&#xf6;" horiz-adv-x="609" 
d="M192 740q28 0 47.5 -19t19.5 -47q0 -26 -19.5 -45.5t-47.5 -19.5q-27 0 -47.5 19.5t-20.5 45.5q0 28 20.5 47t47.5 19zM416 740q29 0 48.5 -19t19.5 -47q0 -26 -20 -45.5t-48 -19.5q-26 0 -46.5 19.5t-20.5 45.5q0 28 20.5 47t46.5 19zM304 -11q-109 1 -184 75t-75 182
t75 182t184 74q108 0 184.5 -74t76.5 -182t-76.5 -182.5t-184.5 -74.5zM304 86q65 0 109 45.5t44 113.5q0 69 -43.5 114.5t-108.5 46.5q-66 -1 -109.5 -46.5t-43.5 -114.5q0 -68 43 -113.5t109 -45.5z" />
    <glyph glyph-name="divide" unicode="&#xf7;" 
d="M278 564q29 0 48.5 -18.5t19.5 -46.5q0 -27 -20 -46t-48 -19t-48 19t-20 46t20 46t48 19zM509 363v-91h-459v91h459zM278 199q29 0 48.5 -18.5t19.5 -46.5t-19.5 -46.5t-48.5 -18.5q-28 0 -48 19t-20 46t20 46t48 19z" />
    <glyph glyph-name="oslash" unicode="&#xf8;" horiz-adv-x="617" 
d="M577 450l-56 -56q47 -66 47 -149q0 -107 -76.5 -181.5t-184.5 -74.5q-81 0 -147 44l-56 -57l-64 64l56 56q-48 67 -48 149q0 108 75.5 182.5t184.5 74.5q80 0 148 -45l57 56zM308 411q-70 0 -115 -47t-45 -119q0 -49 21 -85l226 227q-40 24 -87 24zM307 78
q70 0 115.5 47.5t45.5 119.5q0 47 -20 85l-228 -227q39 -25 87 -25z" />
    <glyph glyph-name="ugrave" unicode="&#xf9;" horiz-adv-x="570" 
d="M245 780l79 -212h-78l-128 193v19h127zM499 491v-285q0 -98 -60.5 -157.5t-152.5 -59.5q-93 0 -154 59.5t-61 157.5v285h104v-293q0 -51 31.5 -81.5t79.5 -30.5q46 0 77 30.5t31 81.5v293h105z" />
    <glyph glyph-name="uacute" unicode="&#xfa;" horiz-adv-x="570" 
d="M453 780v-19l-128 -193h-78l79 212h127zM499 491v-285q0 -98 -60.5 -157.5t-152.5 -59.5q-93 0 -154 59.5t-61 157.5v285h104v-293q0 -51 31.5 -81.5t79.5 -30.5q46 0 77 30.5t31 81.5v293h105z" />
    <glyph glyph-name="ucircumflex" unicode="&#xfb;" horiz-adv-x="570" 
d="M285 677l-90 -109h-79l135 212h68l135 -212h-79zM394 491h105v-285q0 -98 -60.5 -157.5t-152.5 -59.5q-93 0 -154 59.5t-61 157.5v285h104v-293q0 -51 31.5 -81.5t79.5 -30.5q46 0 77 30.5t31 81.5v293z" />
    <glyph glyph-name="udieresis" unicode="&#xfc;" horiz-adv-x="570" 
d="M172 740q28 0 47.5 -19t19.5 -47q0 -26 -19.5 -45.5t-47.5 -19.5q-27 0 -47.5 19.5t-20.5 45.5q0 28 20.5 47t47.5 19zM396 740q29 0 48.5 -19t19.5 -47q0 -26 -20 -45.5t-48 -19.5q-26 0 -46.5 19.5t-20.5 45.5q0 28 20.5 47t46.5 19zM499 491v-285q0 -98 -60.5 -157.5
t-152.5 -59.5q-93 0 -154 59.5t-61 157.5v285h104v-293q0 -51 31.5 -81.5t79.5 -30.5q46 0 77 30.5t31 81.5v293h105z" />
    <glyph glyph-name="yacute" unicode="&#xfd;" horiz-adv-x="549" 
d="M441 761l-128 -193h-78l79 212h127v-19zM418 491h112l-239 -547q-31 -70 -74 -102.5t-106 -32.5q-41 0 -81 10v89q46 -4 58 -4q37 0 63 15.5t44 56.5l20 46l-196 469h113l141 -357z" />
    <glyph glyph-name="thorn" unicode="&#xfe;" horiz-adv-x="631" 
d="M345 502q105 0 173 -73t68 -183q0 -111 -68 -184t-173 -73q-104 0 -164 71v-240h-105v930h105v-319q58 71 164 71zM328 85q64 0 107 45t43 115q0 71 -43 116t-107 45q-61 0 -104.5 -40.5t-43.5 -119.5q0 -78 43.5 -119.5t104.5 -41.5z" />
    <glyph glyph-name="ydieresis" unicode="&#xff;" horiz-adv-x="549" 
d="M160 609q-27 0 -47.5 19.5t-20.5 45.5q0 28 20.5 47t47.5 19q28 0 47.5 -19t19.5 -47q0 -26 -19.5 -45.5t-47.5 -19.5zM384 609q-26 0 -46.5 19.5t-20.5 45.5q0 28 20.5 47t46.5 19q29 0 48.5 -19t19.5 -47q0 -26 -20 -45.5t-48 -19.5zM418 491h112l-239 -547
q-31 -70 -74 -102.5t-106 -32.5q-41 0 -81 10v89q46 -4 58 -4q37 0 63 15.5t44 56.5l20 46l-196 469h113l141 -357z" />
    <glyph glyph-name="Amacron" unicode="&#x100;" horiz-adv-x="662" 
d="M485 847v-85h-308v85h308zM526 0l-50 123h-291l-50 -123h-113l273 660h73l272 -660h-114zM331 495l-110 -281h219z" />
    <glyph glyph-name="amacron" unicode="&#x101;" horiz-adv-x="631" 
d="M455 716v-84h-288v84h288zM457 491h98v-491h-102v63q-58 -74 -168 -74q-104 0 -172 73t-68 183t68 183.5t172 73.5q115 0 172 -81v70zM303 85q60 0 104 41t44 119q0 79 -44 120t-104 41q-64 0 -107.5 -45.5t-43.5 -115.5t43 -115t108 -45z" />
    <glyph glyph-name="Abreve" unicode="&#x102;" horiz-adv-x="662" 
d="M331 735q-71 0 -116.5 46t-45.5 116h85q0 -38 21.5 -60t55.5 -22t55.5 22t21.5 60h85q0 -70 -45.5 -116t-116.5 -46zM526 0l-50 123h-291l-50 -123h-113l273 660h73l272 -660h-114zM331 495l-110 -281h219z" />
    <glyph glyph-name="abreve" unicode="&#x103;" horiz-adv-x="631" 
d="M311 580q-71 0 -116.5 46t-45.5 116h85q0 -38 21.5 -60t55.5 -22t56 22t22 60h84q0 -70 -45.5 -116t-116.5 -46zM457 491h98v-491h-102v63q-58 -74 -168 -74q-104 0 -172 73t-68 183t68 183.5t172 73.5q115 0 172 -81v70zM303 85q60 0 104 41t44 119q0 79 -44 120
t-104 41q-64 0 -107.5 -45.5t-43.5 -115.5t43 -115t108 -45z" />
    <glyph glyph-name="Aogonek" unicode="&#x104;" horiz-adv-x="662" 
d="M550 -79q0 -33 42 -33q14 0 48 6v-73q-40 -12 -78 -12q-52 0 -83 25.5t-31 67.5q0 56 76 103l-48 118h-291l-50 -123h-113l273 660h73l272 -660l-44 -29q-18 -11 -25 -16t-14 -14.5t-7 -19.5zM331 495l-110 -281h219z" />
    <glyph glyph-name="aogonek" unicode="&#x105;" horiz-adv-x="631" 
d="M511 -29q-18 -11 -25 -16t-14 -14.5t-7 -19.5q0 -33 42 -33q14 0 48 6v-73q-40 -12 -78 -12q-52 0 -83 25.5t-31 67.5q0 60 90 111v50q-58 -74 -168 -74q-104 0 -172 73t-68 183t68 183.5t172 73.5q115 0 172 -81v70h98v-491zM303 85q60 0 104 41t44 119q0 79 -44 120
t-104 41q-64 0 -107.5 -45.5t-43.5 -115.5t43 -115t108 -45z" />
    <glyph glyph-name="Cacute" unicode="&#x106;" horiz-adv-x="717" 
d="M556 910v-19l-128 -167h-78l79 186h127zM390 671q91 0 165.5 -41t117.5 -111l-80 -59q-74 114 -202 114q-102 0 -170 -69.5t-68 -174.5t68 -174.5t170 -69.5q128 0 202 114l80 -59q-42 -70 -116.5 -111t-166.5 -41q-146 0 -246.5 98t-100.5 243q0 144 101 242.5t246 98.5
z" />
    <glyph glyph-name="cacute" unicode="&#x107;" horiz-adv-x="552" 
d="M471 780v-19l-128 -193h-78l79 212h127zM305 502q68 0 121.5 -30.5t85.5 -83.5l-74 -58q-53 75 -132 75q-67 0 -110.5 -46t-43.5 -113q0 -69 43.5 -114.5t110.5 -45.5q78 0 132 74l74 -57q-71 -114 -207 -114q-109 0 -184.5 74.5t-75.5 182.5t75.5 182t184.5 74z" />
    <glyph glyph-name="Ccircumflex" unicode="&#x108;" horiz-adv-x="717" 
d="M391 818l-101 -94h-81l148 186h67l148 -186h-81zM391 86q128 0 202 114l80 -59q-42 -70 -116.5 -111t-166.5 -41q-146 0 -246.5 98t-100.5 243q0 144 101 242.5t246 98.5q91 0 165.5 -41t117.5 -111l-80 -59q-74 114 -202 114q-102 0 -170 -69.5t-68 -174.5t68 -174.5
t170 -69.5z" />
    <glyph glyph-name="ccircumflex" unicode="&#x109;" horiz-adv-x="552" 
d="M303 677l-90 -109h-79l135 212h68l135 -212h-79zM306 86q78 0 132 74l74 -57q-71 -114 -207 -114q-109 0 -184.5 74.5t-75.5 182.5t75.5 182t184.5 74q68 0 121.5 -30.5t85.5 -83.5l-74 -58q-53 75 -132 75q-67 0 -110.5 -46t-43.5 -113q0 -69 43.5 -114.5t110.5 -45.5z
" />
    <glyph glyph-name="Cdotaccent" unicode="&#x10a;" horiz-adv-x="717" 
d="M391 882q30 0 51 -20t21 -50q0 -29 -21 -49t-51 -20t-51 20t-21 49q0 30 21 50t51 20zM390 671q91 0 165.5 -41t117.5 -111l-80 -59q-74 114 -202 114q-102 0 -170 -69.5t-68 -174.5t68 -174.5t170 -69.5q128 0 202 114l80 -59q-42 -70 -116.5 -111t-166.5 -41
q-146 0 -246.5 98t-100.5 243q0 144 101 242.5t246 98.5z" />
    <glyph glyph-name="cdotaccent" unicode="&#x10b;" horiz-adv-x="552" 
d="M303 744q29 0 50.5 -20.5t21.5 -49.5t-21 -49t-51 -20t-51 20t-21 49t21 49.5t51 20.5zM305 502q68 0 121.5 -30.5t85.5 -83.5l-74 -58q-53 75 -132 75q-67 0 -110.5 -46t-43.5 -113q0 -69 43.5 -114.5t110.5 -45.5q78 0 132 74l74 -57q-71 -114 -207 -114
q-109 0 -184.5 74.5t-75.5 182.5t75.5 182t184.5 74z" />
    <glyph glyph-name="Ccaron" unicode="&#x10c;" horiz-adv-x="717" 
d="M424 724h-67l-148 186h81l101 -94l100 94h81zM391 86q128 0 202 114l80 -59q-42 -70 -116.5 -111t-166.5 -41q-146 0 -246.5 98t-100.5 243q0 144 101 242.5t246 98.5q91 0 165.5 -41t117.5 -111l-80 -59q-74 114 -202 114q-102 0 -170 -69.5t-68 -174.5t68 -174.5
t170 -69.5z" />
    <glyph glyph-name="ccaron" unicode="&#x10d;" horiz-adv-x="552" 
d="M337 568h-68l-135 212h79l90 -109l90 109h79zM306 86q78 0 132 74l74 -57q-71 -114 -207 -114q-109 0 -184.5 74.5t-75.5 182.5t75.5 182t184.5 74q68 0 121.5 -30.5t85.5 -83.5l-74 -58q-53 75 -132 75q-67 0 -110.5 -46t-43.5 -113q0 -69 43.5 -114.5t110.5 -45.5z" />
    <glyph glyph-name="Dcaron" unicode="&#x10e;" horiz-adv-x="692" 
d="M315 724h-67l-148 186h81l101 -94l100 94h81zM290 660q163 0 261 -91t98 -238q0 -146 -98.5 -238.5t-260.5 -92.5h-207v660h207zM289 95q115 0 183 66t68 170q0 106 -67.5 169.5t-183.5 63.5h-100v-469h100z" />
    <glyph glyph-name="dcaron" unicode="&#x10f;" horiz-adv-x="773" 
d="M449 431v319h106v-750h-98v70q-57 -81 -172 -81q-104 0 -172 73t-68 183t68 183.5t172 73.5q106 0 164 -71zM658 750h111l-44 -208h-76zM303 85q61 0 104.5 40.5t43.5 119.5q0 78 -44 119.5t-104 41.5q-65 0 -108 -45t-43 -115q0 -71 43 -116t108 -45z" />
    <glyph glyph-name="Dcroat" unicode="&#x110;" horiz-adv-x="692" 
d="M290 660q163 0 261 -91t98 -238q0 -146 -98.5 -238.5t-260.5 -92.5h-207v265h-89v90h89v305h207zM289 95q115 0 183 66t68 170q0 106 -67.5 169.5t-183.5 63.5h-100v-209h120v-90h-120v-170h100z" />
    <glyph glyph-name="dcroat" unicode="&#x111;" horiz-adv-x="635" 
d="M634 653v-86h-80v-567h-98v70q-60 -81 -175 -81q-101 0 -169 69.5t-68 175.5t68 176.5t169 70.5q107 0 168 -74v160h-212v86h212v97h105v-97h80zM302 80q61 0 104.5 39t43.5 115t-43.5 115.5t-104.5 39.5q-64 0 -107 -43t-43 -112q0 -68 42.5 -111t107.5 -43z" />
    <glyph glyph-name="Emacron" unicode="&#x112;" horiz-adv-x="569" 
d="M453 847v-85h-308v85h308zM517 660v-95h-328v-169h247v-92h-247v-209h340v-95h-446v660h434z" />
    <glyph glyph-name="emacron" unicode="&#x113;" horiz-adv-x="570" 
d="M441 716v-84h-288v84h288zM526 277q0 -31 -8 -66h-366q10 -60 53.5 -94.5t106.5 -34.5q77 0 143 58l50 -72q-84 -79 -196 -79q-114 0 -189 73.5t-75 182.5q0 108 73.5 182.5t180.5 74.5q98 0 162.5 -64t64.5 -161zM295 413q-52 0 -90.5 -32.5t-50.5 -87.5h267
q-1 56 -37.5 88t-88.5 32z" />
    <glyph glyph-name="Ebreve" unicode="&#x114;" horiz-adv-x="569" 
d="M461 897q0 -70 -45.5 -116t-116.5 -46t-116.5 46t-45.5 116h85q0 -38 21.5 -60t55.5 -22t55.5 22t21.5 60h85zM517 660v-95h-328v-169h247v-92h-247v-209h340v-95h-446v660h434z" />
    <glyph glyph-name="ebreve" unicode="&#x115;" horiz-adv-x="570" 
d="M297 580q-71 0 -116.5 46t-45.5 116h85q0 -38 21.5 -60t55.5 -22t56 22t22 60h84q0 -70 -45.5 -116t-116.5 -46zM526 277q0 -31 -8 -66h-366q10 -60 53.5 -94.5t106.5 -34.5q77 0 143 58l50 -72q-84 -79 -196 -79q-114 0 -189 73.5t-75 182.5q0 108 73.5 182.5
t180.5 74.5q98 0 162.5 -64t64.5 -161zM295 413q-52 0 -90.5 -32.5t-50.5 -87.5h267q-1 56 -37.5 88t-88.5 32z" />
    <glyph glyph-name="Edotaccent" unicode="&#x116;" horiz-adv-x="569" 
d="M299 882q30 0 51 -20t21 -50q0 -29 -21 -49t-51 -20t-51 20t-21 49q0 30 21 50t51 20zM517 660v-95h-328v-169h247v-92h-247v-209h340v-95h-446v660h434z" />
    <glyph glyph-name="edotaccent" unicode="&#x117;" horiz-adv-x="570" 
d="M297 605q-30 0 -51 20t-21 49t21 49.5t51 20.5q29 0 50.5 -20.5t21.5 -49.5t-21 -49t-51 -20zM526 277q0 -31 -8 -66h-366q10 -60 53.5 -94.5t106.5 -34.5q77 0 143 58l50 -72q-84 -79 -196 -79q-114 0 -189 73.5t-75 182.5q0 108 73.5 182.5t180.5 74.5q98 0 162.5 -64
t64.5 -161zM295 413q-52 0 -90.5 -32.5t-50.5 -87.5h267q-1 56 -37.5 88t-88.5 32z" />
    <glyph glyph-name="Eogonek" unicode="&#x118;" horiz-adv-x="569" 
d="M485 -29q-18 -11 -25 -16t-14 -14.5t-7 -19.5q0 -33 42 -33q14 0 48 6v-73q-40 -12 -78 -12q-52 0 -83 25.5t-31 67.5q0 54 68 98h-322v660h434v-95h-328v-169h247v-92h-247v-209h340v-95z" />
    <glyph glyph-name="eogonek" unicode="&#x119;" horiz-adv-x="570" 
d="M526 277q0 -31 -8 -66h-366q10 -60 53.5 -94.5t106.5 -34.5q80 0 145 59l48 -72q-22 -24 -102 -75q-55 -37 -55 -70q0 -37 45 -37q18 0 48 7v-71q-34 -14 -79 -14q-52 0 -83 25.5t-31 67.5q0 48 49 87q-106 2 -179 75.5t-73 180.5q0 108 73.5 182.5t180.5 74.5
q98 0 162.5 -64t64.5 -161zM295 413q-52 0 -90.5 -32.5t-50.5 -87.5h267q-1 56 -37.5 88t-88.5 32z" />
    <glyph glyph-name="Ecaron" unicode="&#x11a;" horiz-adv-x="569" 
d="M332 724h-67l-148 186h81l101 -94l100 94h81zM189 95h340v-95h-446v660h434v-95h-328v-169h247v-92h-247v-209z" />
    <glyph glyph-name="ecaron" unicode="&#x11b;" horiz-adv-x="570" 
d="M331 568h-68l-135 212h79l90 -109l90 109h79zM526 277q0 -31 -8 -66h-366q10 -60 53.5 -94.5t106.5 -34.5q77 0 143 58l50 -72q-84 -79 -196 -79q-114 0 -189 73.5t-75 182.5q0 108 73.5 182.5t180.5 74.5q98 0 162.5 -64t64.5 -161zM295 413q-52 0 -90.5 -32.5
t-50.5 -87.5h267q-1 56 -37.5 88t-88.5 32z" />
    <glyph glyph-name="Gcircumflex" unicode="&#x11c;" horiz-adv-x="746" 
d="M392 818l-101 -94h-81l148 186h67l148 -186h-81zM390 349h309v-186q-44 -79 -126 -126.5t-182 -47.5q-147 0 -247.5 98t-100.5 243q0 144 100.5 242.5t247.5 98.5q175 0 273 -138l-77 -63q-74 104 -197 104q-105 0 -171 -69t-66 -174q0 -107 68 -177t175 -70
q130 0 197 100v71h-203v94z" />
    <glyph glyph-name="gcircumflex" unicode="&#x11d;" horiz-adv-x="634" 
d="M312 677l-90 -109h-79l135 212h68l135 -212h-79zM461 491h97v-440q0 -116 -67 -179t-179 -63q-137 0 -236 93l58 73q86 -70 172 -70q67 0 107 35.5t40 104.5v35q-59 -70 -166 -70q-103 0 -171 69t-68 177t68 177t171 69q117 0 174 -81v70zM306 102q61 0 104.5 40
t43.5 115t-43.5 113t-104.5 38q-64 0 -107 -42t-43 -110q0 -69 43 -111.5t107 -42.5z" />
    <glyph glyph-name="Gbreve" unicode="&#x11e;" horiz-adv-x="746" 
d="M554 897q0 -70 -45.5 -116t-116.5 -46t-116.5 46t-45.5 116h85q0 -38 21.5 -60t55.5 -22t55.5 22t21.5 60h85zM391 671q175 0 273 -138l-77 -63q-74 104 -197 104q-105 0 -171 -69t-66 -174q0 -107 68 -177t175 -70q130 0 197 100v71h-203v94h309v-186
q-44 -79 -126 -126.5t-182 -47.5q-147 0 -247.5 98t-100.5 243q0 144 100.5 242.5t247.5 98.5z" />
    <glyph glyph-name="gbreve" unicode="&#x11f;" horiz-adv-x="634" 
d="M312 580q-71 0 -116.5 46t-45.5 116h85q0 -38 21.5 -60t55.5 -22t56 22t22 60h84q0 -70 -45.5 -116t-116.5 -46zM461 491h97v-440q0 -116 -67 -179t-179 -63q-137 0 -236 93l58 73q86 -70 172 -70q67 0 107 35.5t40 104.5v35q-59 -70 -166 -70q-103 0 -171 69t-68 177
t68 177t171 69q117 0 174 -81v70zM306 102q61 0 104.5 40t43.5 115t-43.5 113t-104.5 38q-64 0 -107 -42t-43 -110q0 -69 43 -111.5t107 -42.5z" />
    <glyph glyph-name="Gdotaccent" unicode="&#x120;" horiz-adv-x="746" 
d="M392 882q30 0 51 -20t21 -50q0 -29 -21 -49t-51 -20t-51 20t-21 49q0 30 21 50t51 20zM391 671q175 0 273 -138l-77 -63q-74 104 -197 104q-105 0 -171 -69t-66 -174q0 -107 68 -177t175 -70q130 0 197 100v71h-203v94h309v-186q-44 -79 -126 -126.5t-182 -47.5
q-147 0 -247.5 98t-100.5 243q0 144 100.5 242.5t247.5 98.5z" />
    <glyph glyph-name="gdotaccent" unicode="&#x121;" horiz-adv-x="634" 
d="M312 605q-30 0 -51 20t-21 49t21 49.5t51 20.5q29 0 50.5 -20.5t21.5 -49.5t-21 -49t-51 -20zM461 491h97v-440q0 -116 -67 -179t-179 -63q-137 0 -236 93l58 73q86 -70 172 -70q67 0 107 35.5t40 104.5v35q-59 -70 -166 -70q-103 0 -171 69t-68 177t68 177t171 69
q117 0 174 -81v70zM306 102q61 0 104.5 40t43.5 115t-43.5 113t-104.5 38q-64 0 -107 -42t-43 -110q0 -69 43 -111.5t107 -42.5z" />
    <glyph glyph-name="Gcommaaccent" unicode="&#x122;" horiz-adv-x="746" 
d="M391 671q175 0 273 -138l-77 -63q-74 104 -197 104q-105 0 -171 -69t-66 -174q0 -107 68 -177t175 -70q130 0 197 100v71h-203v94h309v-186q-44 -79 -126 -126.5t-182 -47.5q-147 0 -247.5 98t-100.5 243q0 144 100.5 242.5t247.5 98.5zM442 -48l-26 -172h-81l6 172h101z
" />
    <glyph glyph-name="gcommaaccent" unicode="&#x123;" horiz-adv-x="634" 
d="M371 780l-10 -212h-101l33 212h78zM461 491h97v-440q0 -116 -67 -179t-179 -63q-137 0 -236 93l58 73q86 -70 172 -70q67 0 107 35.5t40 104.5v35q-59 -70 -166 -70q-103 0 -171 69t-68 177t68 177t171 69q117 0 174 -81v70zM306 102q61 0 104.5 40t43.5 115t-43.5 113
t-104.5 38q-64 0 -107 -42t-43 -110q0 -69 43 -111.5t107 -42.5z" />
    <glyph glyph-name="Hcircumflex" unicode="&#x124;" horiz-adv-x="711" 
d="M355 818l-101 -94h-81l148 186h67l148 -186h-81zM521 660h106v-660h-106v302h-332v-302h-106v660h106v-263h332v263z" />
    <glyph glyph-name="hcircumflex" unicode="&#x125;" horiz-adv-x="575" 
d="M181 908l-101 -94h-81l148 186h67l148 -186h-81zM323 502q84 0 133 -54t49 -141v-307h-105v292q0 51 -29 82.5t-78 31.5t-80.5 -32t-31.5 -82v-292h-105v750h105v-308q52 60 142 60z" />
    <glyph glyph-name="Hbar" unicode="&#x126;" horiz-adv-x="725" 
d="M634 660v-123h96v-89h-96v-448h-106v234h-332v-234h-106v448h-96v89h96v123h106v-123h332v123h106zM528 448h-332v-121h332v121z" />
    <glyph glyph-name="hbar" unicode="&#x127;" horiz-adv-x="581" 
d="M328 481q84 0 133.5 -54t49.5 -142v-285h-106v272q0 50 -29 81t-77 31q-50 0 -81.5 -31.5t-31.5 -80.5v-272h-104v565h-81v90h81v95h104v-95h197v-90h-197v-144q52 60 142 60z" />
    <glyph glyph-name="Itilde" unicode="&#x128;" horiz-adv-x="272" 
d="M56 890q36 0 72 -22l33 -20q32 -18 44 -18q28 0 28 35v15h84q1 -9 1 -29q0 -52 -28 -84.5t-71 -32.5q-34 0 -75 23l-31 18q-32 18 -44 18q-28 0 -28 -36v-13h-84q-2 18 -2 29q0 51 28.5 84t72.5 33zM189 660v-660h-106v660h106z" />
    <glyph glyph-name="itilde" unicode="&#x129;" horiz-adv-x="257" 
d="M62 748q35 0 67 -27l19 -18q22 -19 34 -19q26 0 26 38v14h82q2 -14 2 -29q0 -52 -26.5 -86t-68.5 -34q-33 0 -67 29l-19 16q-21 20 -34 20q-27 0 -27 -38v-14h-83q-2 14 -2 28q0 53 26.5 86.5t70.5 33.5zM181 491v-491h-105v491h105z" />
    <glyph glyph-name="Imacron" unicode="&#x12a;" horiz-adv-x="272" 
d="M291 847v-85h-308v85h308zM189 660v-660h-106v660h106z" />
    <glyph glyph-name="imacron" unicode="&#x12b;" horiz-adv-x="257" 
d="M248 717v-85h-238v85h238zM181 491v-491h-105v491h105z" />
    <glyph glyph-name="Ibreve" unicode="&#x12c;" horiz-adv-x="272" 
d="M299 897q0 -70 -45.5 -116t-116.5 -46t-116.5 46t-45.5 116h85q0 -38 21.5 -60t55.5 -22t55.5 22t21.5 60h85zM189 660v-660h-106v660h106z" />
    <glyph glyph-name="ibreve" unicode="&#x12d;" horiz-adv-x="257" 
d="M291 742q0 -70 -45.5 -116t-116.5 -46t-116.5 46t-45.5 116h85q0 -38 21.5 -60t55.5 -22t56 22t22 60h84zM181 491v-491h-105v491h105z" />
    <glyph glyph-name="Iogonek" unicode="&#x12e;" horiz-adv-x="272" 
d="M145 -29q-18 -11 -25 -16t-14 -14.5t-7 -19.5q0 -33 42 -33q14 0 48 6v-73q-40 -12 -78 -12q-52 0 -83 25.5t-31 67.5q0 60 86 109v649h106v-660z" />
    <glyph glyph-name="iogonek" unicode="&#x12f;" horiz-adv-x="257" 
d="M129 744q29 0 50.5 -20.5t21.5 -49.5t-21 -49t-51 -20t-51 20t-21 49t21 49.5t51 20.5zM76 12v479h105v-491l-44 -29q-18 -11 -25 -16t-14 -14.5t-7 -19.5q0 -33 42 -33q14 0 48 6v-73q-40 -12 -78 -12q-52 0 -83 25.5t-31 67.5q0 32 20.5 57.5t66.5 52.5z" />
    <glyph glyph-name="Idotaccent" unicode="&#x130;" horiz-adv-x="272" 
d="M137 882q30 0 51 -20t21 -50q0 -29 -21 -49t-51 -20t-51 20t-21 49q0 30 21 50t51 20zM189 660v-660h-106v660h106z" />
    <glyph glyph-name="dotlessi" unicode="&#x131;" horiz-adv-x="257" 
d="M181 491v-491h-105v491h105z" />
    <glyph glyph-name="IJ" unicode="&#x132;" horiz-adv-x="653" 
d="M189 660v-660h-106v660h106zM570 660v-496q0 -88 -49 -131.5t-137 -43.5q-43 0 -91 11v91q45 -5 68 -5q52 0 77.5 19.5t25.5 69.5v485h106z" />
    <glyph glyph-name="ij" unicode="&#x133;" horiz-adv-x="514" 
d="M129 744q29 0 50.5 -20.5t21.5 -49.5t-21 -49t-51 -20t-51 20t-21 49t21 49.5t51 20.5zM386 744q29 0 50.5 -20.5t21.5 -49.5t-21 -49t-51 -20t-51 20t-21 49t21 49.5t51 20.5zM181 491v-491h-105v491h105zM438 491v-511q0 -86 -46.5 -128.5t-127.5 -42.5q-41 0 -68 9v89
q24 -3 43 -3q47 0 70.5 19.5t23.5 65.5v502h105z" />
    <glyph glyph-name="Jcircumflex" unicode="&#x134;" horiz-adv-x="381" 
d="M265 910l148 -186h-81l-100 94l-101 -94h-81l148 186h67zM192 175v485h106v-496q0 -88 -49 -131.5t-137 -43.5q-43 0 -91 11v91q45 -5 68 -5q52 0 77.5 19.5t25.5 69.5z" />
    <glyph glyph-name="jcircumflex" unicode="&#x135;" horiz-adv-x="257" 
d="M163 780l135 -212h-79l-90 109l-90 -109h-79l135 212h68zM76 -11v502h105v-511q0 -86 -46.5 -128.5t-127.5 -42.5q-41 0 -68 9v89q24 -3 43 -3q47 0 70.5 19.5t23.5 65.5z" />
    <glyph glyph-name="Kcommaaccent" unicode="&#x136;" horiz-adv-x="631" 
d="M83 0v660h106v-660h-106zM321 347l278 -347h-128l-279 347l269 313h128zM245 -220l6 172h101l-26 -172h-81z" />
    <glyph glyph-name="kcommaaccent" unicode="&#x137;" horiz-adv-x="533" 
d="M76 0v750h105v-750h-105zM308 274l210 -274h-126l-208 276l197 215h130zM212 -220l6 172h101l-26 -172h-81z" />
    <glyph glyph-name="Lacute" unicode="&#x139;" horiz-adv-x="515" 
d="M301 910v-19l-128 -167h-78l79 186h127zM189 660v-565h302v-95h-408v660h106z" />
    <glyph glyph-name="lacute" unicode="&#x13a;" horiz-adv-x="257" 
d="M294 1000v-19l-128 -167h-78l79 186h127zM181 750v-750h-105v750h105z" />
    <glyph glyph-name="Lcommaaccent" unicode="&#x13b;" horiz-adv-x="515" 
d="M189 660v-565h302v-95h-408v660h106zM331 -48l-26 -172h-81l6 172h101z" />
    <glyph glyph-name="lcommaaccent" unicode="&#x13c;" horiz-adv-x="257" 
d="M181 750v-750h-105v750h105zM179 -48l-26 -172h-81l6 172h101z" />
    <glyph glyph-name="Lcaron" unicode="&#x13d;" horiz-adv-x="515" 
d="M482 720l-44 -208h-76l9 208h111zM189 660v-565h302v-95h-408v660h106z" />
    <glyph glyph-name="lcaron" unicode="&#x13e;" horiz-adv-x="396" 
d="M181 750v-750h-105v750h105zM392 750l-44 -208h-76l9 208h111z" />
    <glyph glyph-name="Ldot" unicode="&#x13f;" horiz-adv-x="515" 
d="M189 660v-565h302v-95h-408v660h106zM395 451q33 0 55 -22.5t22 -55.5t-22 -55t-55 -22t-56 22t-23 55t23 55.5t56 22.5z" />
    <glyph glyph-name="ldot" unicode="&#x140;" horiz-adv-x="312" 
d="M181 750v-750h-105v750h105zM308 395q32 0 54.5 -22.5t22.5 -55.5t-22 -55t-55 -22t-56 22t-23 55t23 55.5t56 22.5z" />
    <glyph glyph-name="Lslash" unicode="&#x141;" horiz-adv-x="515" 
d="M189 95h302v-95h-408v230l-75 -34v98l75 34v332h106v-291l210 96v-99l-210 -96v-175z" />
    <glyph glyph-name="lslash" unicode="&#x142;" horiz-adv-x="350" 
d="M306 458v-99l-84 -38v-321h-105v283l-78 -37v99l78 36v369h105v-331z" />
    <glyph glyph-name="Nacute" unicode="&#x143;" horiz-adv-x="711" 
d="M520 891l-128 -167h-78l79 186h127v-19zM521 660h106v-660h-72l-366 460v-460h-106v660h73l365 -458v458z" />
    <glyph glyph-name="nacute" unicode="&#x144;" horiz-adv-x="575" 
d="M451 761l-128 -193h-78l79 212h127v-19zM321 502q86 0 135 -53.5t49 -141.5v-307h-105v293q0 51 -29.5 82.5t-77.5 31.5q-49 0 -80.5 -32t-31.5 -82v-293h-105v491h98v-48q56 59 147 59z" />
    <glyph glyph-name="Ncommaaccent" unicode="&#x145;" horiz-adv-x="711" 
d="M521 660h106v-660h-72l-366 460v-460h-106v660h73l365 -458v458zM298 -220l6 172h101l-26 -172h-81z" />
    <glyph glyph-name="ncommaaccent" unicode="&#x146;" horiz-adv-x="575" 
d="M321 502q86 0 135 -53.5t49 -141.5v-307h-105v293q0 51 -29.5 82.5t-77.5 31.5q-49 0 -80.5 -32t-31.5 -82v-293h-105v491h98v-48q56 59 147 59zM234 -220l6 172h101l-26 -172h-81z" />
    <glyph glyph-name="Ncaron" unicode="&#x147;" horiz-adv-x="711" 
d="M388 724h-67l-148 186h81l101 -94l100 94h81zM521 660h106v-660h-72l-366 460v-460h-106v660h73l365 -458v458z" />
    <glyph glyph-name="ncaron" unicode="&#x148;" horiz-adv-x="575" 
d="M317 568h-68l-135 212h79l90 -109l90 109h79zM321 502q86 0 135 -53.5t49 -141.5v-307h-105v293q0 51 -29.5 82.5t-77.5 31.5q-49 0 -80.5 -32t-31.5 -82v-293h-105v491h98v-48q56 59 147 59z" />
    <glyph glyph-name="Eng" unicode="&#x14a;" horiz-adv-x="711" 
d="M521 660h106v-680q0 -83 -45 -127t-130 -44q-37 0 -67 9v89q30 -3 43 -3q48 0 70.5 20.5t22.5 64.5v32l-332 435v-456h-106v660h73l365 -477v477z" />
    <glyph glyph-name="eng" unicode="&#x14b;" horiz-adv-x="575" 
d="M321 502q86 0 135 -53.5t49 -141.5v-327q0 -86 -47 -128.5t-128 -42.5q-40 0 -68 9v89q24 -3 42 -3q48 0 72 19t24 66v303q0 51 -29 82.5t-78 31.5t-80.5 -32t-31.5 -82v-292h-105v491h98v-48q56 59 147 59z" />
    <glyph glyph-name="Omacron" unicode="&#x14c;" horiz-adv-x="780" 
d="M544 847v-85h-308v85h308zM389 671q144 0 245.5 -98.5t101.5 -242.5t-101.5 -242.5t-245.5 -98.5q-145 0 -245.5 98.5t-100.5 242.5t100.5 242.5t245.5 98.5zM390 574q-103 0 -170 -69t-67 -174q0 -106 67 -175.5t170 -69.5q102 0 169.5 69.5t67.5 175.5q0 104 -68 173.5
t-169 69.5z" />
    <glyph glyph-name="omacron" unicode="&#x14d;" horiz-adv-x="609" 
d="M449 716v-84h-288v84h288zM304 -11q-109 1 -184 75t-75 182t75 182t184 74q108 0 184.5 -74t76.5 -182t-76.5 -182.5t-184.5 -74.5zM304 86q65 0 109 45.5t44 113.5q0 69 -43.5 114.5t-108.5 46.5q-66 -1 -109.5 -46.5t-43.5 -114.5q0 -68 43 -113.5t109 -45.5z" />
    <glyph glyph-name="Obreve" unicode="&#x14e;" horiz-adv-x="780" 
d="M552 897q0 -70 -45.5 -116t-116.5 -46t-116.5 46t-45.5 116h85q0 -38 21.5 -60t55.5 -22t55.5 22t21.5 60h85zM389 671q144 0 245.5 -98.5t101.5 -242.5t-101.5 -242.5t-245.5 -98.5q-145 0 -245.5 98.5t-100.5 242.5t100.5 242.5t245.5 98.5zM390 574q-103 0 -170 -69
t-67 -174q0 -106 67 -175.5t170 -69.5q102 0 169.5 69.5t67.5 175.5q0 104 -68 173.5t-169 69.5z" />
    <glyph glyph-name="obreve" unicode="&#x14f;" horiz-adv-x="609" 
d="M467 742q0 -70 -45.5 -116t-116.5 -46t-116.5 46t-45.5 116h85q0 -38 21.5 -60t55.5 -22t56 22t22 60h84zM304 -11q-109 1 -184 75t-75 182t75 182t184 74q108 0 184.5 -74t76.5 -182t-76.5 -182.5t-184.5 -74.5zM304 86q65 0 109 45.5t44 113.5q0 69 -43.5 114.5
t-108.5 46.5q-66 -1 -109.5 -46.5t-43.5 -114.5q0 -68 43 -113.5t109 -45.5z" />
    <glyph glyph-name="Ohungarumlaut" unicode="&#x150;" horiz-adv-x="780" 
d="M437 910v-19l-118 -167h-72l79 186h111zM636 910v-19l-117 -167h-73l79 186h111zM389 671q144 0 245.5 -98.5t101.5 -242.5t-101.5 -242.5t-245.5 -98.5q-145 0 -245.5 98.5t-100.5 242.5t100.5 242.5t245.5 98.5zM390 574q-103 0 -170 -69t-67 -174q0 -106 67 -175.5
t170 -69.5q102 0 169.5 69.5t67.5 175.5q0 104 -68 173.5t-169 69.5z" />
    <glyph glyph-name="ohungarumlaut" unicode="&#x151;" horiz-adv-x="609" 
d="M365 780v-19l-118 -193h-72l79 212h111zM544 780v-19l-117 -193h-73l79 212h111zM304 -11q-109 1 -184 75t-75 182t75 182t184 74q108 0 184.5 -74t76.5 -182t-76.5 -182.5t-184.5 -74.5zM304 86q65 0 109 45.5t44 113.5q0 69 -43.5 114.5t-108.5 46.5
q-66 -1 -109.5 -46.5t-43.5 -114.5q0 -68 43 -113.5t109 -45.5z" />
    <glyph glyph-name="OE" unicode="&#x152;" horiz-adv-x="1113" 
d="M733 95h339v-95h-445v96q-41 -51 -103.5 -79t-135.5 -28q-146 0 -245.5 98t-99.5 243t100 243t246 98q74 0 136 -28t102 -78v95h433v-95h-327v-170h246v-90h-246v-210zM389 86q102 0 170 69.5t68 174.5t-68 174.5t-170 69.5t-169 -69t-67 -175t67 -175t169 -69z" />
    <glyph glyph-name="oe" unicode="&#x153;" horiz-adv-x="962" 
d="M918 276q0 -31 -8 -66h-360q10 -60 51.5 -94.5t103.5 -34.5q76 0 140 58l52 -71q-83 -80 -195 -80q-133 0 -205 106q-67 -105 -196 -105q-107 0 -181.5 74t-74.5 182t75 182.5t182 74.5q129 0 196 -106q71 105 196 105q96 0 160 -64.5t64 -160.5zM688 412
q-51 0 -88 -32.5t-48 -87.5h261q-1 56 -37 88t-88 32zM302 86q65 0 105.5 45t40.5 114t-40.5 114.5t-104.5 45.5q-66 0 -108.5 -45.5t-42.5 -114.5q0 -68 42.5 -113.5t107.5 -45.5z" />
    <glyph glyph-name="Racute" unicode="&#x154;" horiz-adv-x="631" 
d="M428 891l-128 -167h-78l79 186h127v-19zM592 0h-113l-150 255h-140v-255h-106v660h248q100 0 162 -56t62 -146q0 -64 -32.5 -112.5t-89.5 -71.5zM189 566v-217h140q55 0 86 30t31 78q0 49 -31 79t-86 30h-140z" />
    <glyph glyph-name="racute" unicode="&#x155;" horiz-adv-x="375" 
d="M350 761l-128 -193h-78l79 212h127v-19zM317 496q22 0 40 -5v-93h-32q-62 0 -103 -35.5t-41 -100.5v-262h-105v491h98v-64q54 69 143 69z" />
    <glyph glyph-name="Rcommaaccent" unicode="&#x156;" horiz-adv-x="631" 
d="M433 274l159 -274h-113l-150 255h-140v-255h-106v660h248q100 0 162 -56t62 -146q0 -64 -32.5 -112.5t-89.5 -71.5zM189 566v-217h140q55 0 86 30t31 78q0 49 -31 79t-86 30h-140zM252 -220l6 172h101l-26 -172h-81z" />
    <glyph glyph-name="rcommaaccent" unicode="&#x157;" horiz-adv-x="375" 
d="M317 496q22 0 40 -5v-93h-32q-62 0 -103 -35.5t-41 -100.5v-262h-105v491h98v-64q54 69 143 69zM71 -220l6 172h101l-26 -172h-81z" />
    <glyph glyph-name="Rcaron" unicode="&#x158;" horiz-adv-x="631" 
d="M296 724h-67l-148 186h81l101 -94l100 94h81zM592 0h-113l-150 255h-140v-255h-106v660h248q100 0 162 -56t62 -146q0 -64 -32.5 -112.5t-89.5 -71.5zM189 566v-217h140q55 0 86 30t31 78q0 49 -31 79t-86 30h-140z" />
    <glyph glyph-name="rcaron" unicode="&#x159;" horiz-adv-x="375" 
d="M216 568h-68l-135 212h79l90 -109l90 109h79zM317 496q22 0 40 -5v-93h-32q-62 0 -103 -35.5t-41 -100.5v-262h-105v491h98v-64q54 69 143 69z" />
    <glyph glyph-name="Sacute" unicode="&#x15a;" horiz-adv-x="559" 
d="M447 910v-19l-128 -167h-78l79 186h127zM282 671q70 0 126 -32.5t87 -85.5l-74 -57q-53 80 -139 80q-42 0 -71 -20.5t-29 -59.5q0 -18 6 -31.5t21 -25t27 -18t38 -19.5l74 -34q80 -37 119 -80t39 -108q0 -86 -62.5 -138.5t-158.5 -52.5q-81 0 -146 38t-103 105l75 57
q73 -105 173 -105q51 0 82.5 25t31.5 67q0 35 -22.5 55t-74.5 44l-73 34q-73 33 -113.5 76t-40.5 107q0 80 60 129.5t148 49.5z" />
    <glyph glyph-name="sacute" unicode="&#x15b;" horiz-adv-x="455" 
d="M399 780v-19l-128 -193h-78l79 212h127zM233 502q106 0 170 -76l-57 -65q-48 50 -115 50t-67 -47q0 -19 14.5 -31.5t50.5 -26.5l47 -19q70 -29 102 -62.5t32 -85.5q0 -71 -52 -110.5t-130 -39.5q-125 0 -198 95l60 66q67 -70 138 -70q34 0 56.5 14t22.5 41q0 22 -16.5 34
t-52.5 27l-50 21q-65 27 -96.5 59t-31.5 84q0 66 49 104t124 38z" />
    <glyph glyph-name="Scircumflex" unicode="&#x15c;" horiz-adv-x="559" 
d="M282 818l-101 -94h-81l148 186h67l148 -186h-81zM348 368q80 -37 119 -80t39 -108q0 -86 -62.5 -138.5t-158.5 -52.5q-81 0 -146 38t-103 105l75 57q73 -105 173 -105q51 0 82.5 25t31.5 67q0 35 -22.5 55t-74.5 44l-73 34q-73 33 -113.5 76t-40.5 107q0 80 60 129.5
t148 49.5q70 0 126 -32.5t87 -85.5l-74 -57q-53 80 -139 80q-42 0 -71 -20.5t-29 -59.5q0 -18 6 -31.5t21 -25t27 -18t38 -19.5z" />
    <glyph glyph-name="scircumflex" unicode="&#x15d;" horiz-adv-x="455" 
d="M231 677l-90 -109h-79l135 212h68l135 -212h-79zM276 287q70 -29 102 -62.5t32 -85.5q0 -71 -52 -110.5t-130 -39.5q-125 0 -198 95l60 66q67 -70 138 -70q34 0 56.5 14t22.5 41q0 22 -16.5 34t-52.5 27l-50 21q-65 27 -96.5 59t-31.5 84q0 66 49 104t124 38
q106 0 170 -76l-57 -65q-48 50 -115 50t-67 -47q0 -19 14.5 -31.5t50.5 -26.5z" />
    <glyph glyph-name="Scedilla" unicode="&#x15e;" horiz-adv-x="559" 
d="M506 180q0 -71 -43.5 -120t-115.5 -65q20 -28 20 -66q0 -51 -38.5 -85.5t-104.5 -34.5q-33 0 -71 9v72q37 -3 58 -3q70 0 70 61q0 19 -9 41q-77 3 -138 41t-98 102l75 57q73 -105 173 -105q51 0 82.5 25t31.5 67q0 35 -22.5 55t-74.5 44l-73 34q-73 33 -113.5 76
t-40.5 107q0 80 60 129.5t148 49.5q70 0 126 -32.5t87 -85.5l-74 -57q-53 80 -139 80q-42 0 -71 -20.5t-29 -59.5q0 -18 6 -31.5t21 -25t27 -18t38 -19.5l74 -34q80 -37 119 -80t39 -108z" />
    <glyph glyph-name="scedilla" unicode="&#x15f;" horiz-adv-x="455" 
d="M410 139q0 -54 -31 -90t-82 -51q22 -30 22 -69q0 -51 -38.5 -85.5t-104.5 -34.5q-33 0 -71 9v72q38 -3 58 -3q70 0 70 61q0 19 -9 41q-61 1 -111.5 26.5t-82.5 68.5l60 66q67 -70 138 -70q34 0 56.5 14t22.5 41q0 22 -16.5 34t-52.5 27l-50 21q-65 27 -96.5 59t-31.5 84
q0 66 49 104t124 38q106 0 170 -76l-57 -65q-48 50 -115 50t-67 -47q0 -19 14.5 -31.5t50.5 -26.5l47 -19q70 -29 102 -62.5t32 -85.5z" />
    <glyph glyph-name="Scaron" unicode="&#x160;" horiz-adv-x="559" 
d="M315 724h-67l-148 186h81l101 -94l100 94h81zM348 368q80 -37 119 -80t39 -108q0 -86 -62.5 -138.5t-158.5 -52.5q-81 0 -146 38t-103 105l75 57q73 -105 173 -105q51 0 82.5 25t31.5 67q0 35 -22.5 55t-74.5 44l-73 34q-73 33 -113.5 76t-40.5 107q0 80 60 129.5
t148 49.5q70 0 126 -32.5t87 -85.5l-74 -57q-53 80 -139 80q-42 0 -71 -20.5t-29 -59.5q0 -18 6 -31.5t21 -25t27 -18t38 -19.5z" />
    <glyph glyph-name="scaron" unicode="&#x161;" horiz-adv-x="455" 
d="M265 568h-68l-135 212h79l90 -109l90 109h79zM276 287q70 -29 102 -62.5t32 -85.5q0 -71 -52 -110.5t-130 -39.5q-125 0 -198 95l60 66q67 -70 138 -70q34 0 56.5 14t22.5 41q0 22 -16.5 34t-52.5 27l-50 21q-65 27 -96.5 59t-31.5 84q0 66 49 104t124 38q106 0 170 -76
l-57 -65q-48 50 -115 50t-67 -47q0 -19 14.5 -31.5t50.5 -26.5z" />
    <glyph glyph-name="uni0162" unicode="&#x162;" horiz-adv-x="583" 
d="M552 565h-208v-562q26 -33 26 -74q0 -51 -38.5 -85.5t-104.5 -34.5q-33 0 -71 9v72q37 -3 58 -3q70 0 70 61q0 26 -14 52h-32v565h-207v95h521v-95z" />
    <glyph glyph-name="uni0163" unicode="&#x163;" horiz-adv-x="398" 
d="M357 400h-151v-231q0 -45 23 -65t74 -20q17 0 47 5v-89q-32 -9 -62 -11q16 -27 16 -60q0 -51 -38.5 -85.5t-104.5 -34.5q-33 0 -71 9v72q37 -3 58 -3q70 0 70 61q0 26 -14 52q-104 34 -104 160v240h-80v91h80v129h106v-129h151v-91z" />
    <glyph glyph-name="Tcaron" unicode="&#x164;" horiz-adv-x="583" 
d="M325 724h-67l-148 186h81l101 -94l100 94h81zM31 660h521v-95h-208v-565h-106v565h-207v95z" />
    <glyph glyph-name="tcaron" unicode="&#x165;" horiz-adv-x="398" 
d="M305 750h111l-44 -208h-76zM206 620v-129h151v-91h-151v-231q0 -45 23 -65t74 -20q17 0 47 5v-89q-37 -11 -69 -11q-88 0 -134.5 44t-46.5 127v240h-80v91h80v129h106z" />
    <glyph glyph-name="Tbar" unicode="&#x166;" horiz-adv-x="583" 
d="M238 0v244h-170v89h170v232h-207v95h521v-95h-208v-232h171v-89h-171v-244h-106z" />
    <glyph glyph-name="tbar" unicode="&#x167;" horiz-adv-x="412" 
d="M361 404h-146v-109h146v-87h-146v-39q0 -44 23 -64.5t73 -20.5q13 0 50 5v-89q-33 -11 -71 -11q-87 0 -133.5 44t-46.5 127v48h-81v87h81v109h-81v87h81v129h105v-129h146v-87z" />
    <glyph glyph-name="Utilde" unicode="&#x168;" horiz-adv-x="694" 
d="M266 890q36 0 72 -22l33 -20q32 -18 44 -18q28 0 28 35v15h84q1 -9 1 -29q0 -52 -28 -84.5t-71 -32.5q-34 0 -75 23l-31 18q-32 18 -44 18q-28 0 -28 -36v-13h-84q-2 18 -2 29q0 51 28.5 84t72.5 33zM618 660v-393q0 -129 -75.5 -203.5t-194.5 -74.5q-121 0 -196.5 74.5
t-75.5 203.5v393h106v-400q0 -84 46.5 -129t119.5 -45q72 0 118 45t46 129v400h106z" />
    <glyph glyph-name="utilde" unicode="&#x169;" horiz-adv-x="570" 
d="M209 748q39 0 70 -24l27 -20q25 -20 41 -20q28 0 28 38v14h83q1 -10 1 -29q0 -53 -27.5 -86.5t-71.5 -33.5q-35 0 -70 24l-26 20q-28 21 -42 21q-28 0 -28 -38v-14h-82q-2 10 -2 29q0 53 27.5 86t71.5 33zM499 491v-285q0 -98 -60.5 -157.5t-152.5 -59.5q-93 0 -154 59.5
t-61 157.5v285h104v-293q0 -51 31.5 -81.5t79.5 -30.5q46 0 77 30.5t31 81.5v293h105z" />
    <glyph glyph-name="Umacron" unicode="&#x16a;" horiz-adv-x="694" 
d="M501 847v-85h-308v85h308zM618 660v-393q0 -129 -75.5 -203.5t-194.5 -74.5q-121 0 -196.5 74.5t-75.5 203.5v393h106v-400q0 -84 46.5 -129t119.5 -45q72 0 118 45t46 129v400h106z" />
    <glyph glyph-name="umacron" unicode="&#x16b;" horiz-adv-x="570" 
d="M429 716v-84h-288v84h288zM499 491v-285q0 -98 -60.5 -157.5t-152.5 -59.5q-93 0 -154 59.5t-61 157.5v285h104v-293q0 -51 31.5 -81.5t79.5 -30.5q46 0 77 30.5t31 81.5v293h105z" />
    <glyph glyph-name="Ubreve" unicode="&#x16c;" horiz-adv-x="694" 
d="M509 897q0 -70 -45.5 -116t-116.5 -46t-116.5 46t-45.5 116h85q0 -38 21.5 -60t55.5 -22t55.5 22t21.5 60h85zM618 660v-393q0 -129 -75.5 -203.5t-194.5 -74.5q-121 0 -196.5 74.5t-75.5 203.5v393h106v-400q0 -84 46.5 -129t119.5 -45q72 0 118 45t46 129v400h106z" />
    <glyph glyph-name="ubreve" unicode="&#x16d;" horiz-adv-x="570" 
d="M447 742q0 -70 -45.5 -116t-116.5 -46t-116.5 46t-45.5 116h85q0 -38 21.5 -60t55.5 -22t56 22t22 60h84zM499 491v-285q0 -98 -60.5 -157.5t-152.5 -59.5q-93 0 -154 59.5t-61 157.5v285h104v-293q0 -51 31.5 -81.5t79.5 -30.5q46 0 77 30.5t31 81.5v293h105z" />
    <glyph glyph-name="Uring" unicode="&#x16e;" horiz-adv-x="694" 
d="M346 917q51 0 85 -33.5t34 -81.5q0 -49 -34 -82t-85 -33t-84.5 33t-33.5 82q0 48 33.5 81.5t84.5 33.5zM347 848q-20 0 -33 -13t-13 -33t13 -33t33 -13q19 0 32 13t13 33t-13 33t-32 13zM618 660v-393q0 -129 -75.5 -203.5t-194.5 -74.5q-121 0 -196.5 74.5t-75.5 203.5
v393h106v-400q0 -84 46.5 -129t119.5 -45q72 0 118 45t46 129v400h106z" />
    <glyph glyph-name="uring" unicode="&#x16f;" horiz-adv-x="570" 
d="M284 785q51 0 85 -33.5t34 -82.5q0 -48 -34 -81.5t-85 -33.5t-84.5 33.5t-33.5 81.5q0 49 33.5 82.5t84.5 33.5zM285 716q-20 0 -33 -13.5t-13 -33.5q0 -19 13 -32t33 -13q19 0 32 13t13 32q0 20 -13 33.5t-32 13.5zM499 491v-285q0 -98 -60.5 -157.5t-152.5 -59.5
q-93 0 -154 59.5t-61 157.5v285h104v-293q0 -51 31.5 -81.5t79.5 -30.5q46 0 77 30.5t31 81.5v293h105z" />
    <glyph glyph-name="Uhungarumlaut" unicode="&#x170;" horiz-adv-x="694" 
d="M394 910v-19l-118 -167h-72l79 186h111zM593 910v-19l-117 -167h-73l79 186h111zM618 660v-393q0 -129 -75.5 -203.5t-194.5 -74.5q-121 0 -196.5 74.5t-75.5 203.5v393h106v-400q0 -84 46.5 -129t119.5 -45q72 0 118 45t46 129v400h106z" />
    <glyph glyph-name="uhungarumlaut" unicode="&#x171;" horiz-adv-x="570" 
d="M345 780v-19l-118 -193h-72l79 212h111zM524 780v-19l-117 -193h-73l79 212h111zM499 491v-285q0 -98 -60.5 -157.5t-152.5 -59.5q-93 0 -154 59.5t-61 157.5v285h104v-293q0 -51 31.5 -81.5t79.5 -30.5q46 0 77 30.5t31 81.5v293h105z" />
    <glyph glyph-name="Uogonek" unicode="&#x172;" horiz-adv-x="694" 
d="M512 660h106v-393q0 -32 -4 -59.5t-15 -52l-18 -40.5t-27 -37.5l-27.5 -29.5t-32.5 -30.5t-30 -27.5q-40 -35 -40 -65q0 -37 44 -37q14 0 48 6v-72q-43 -13 -81 -13q-52 0 -82 22.5t-30 65.5q0 51 51 94q-20 -2 -30 -2q-115 0 -191.5 77t-76.5 201v393h106v-400
q0 -79 47 -126.5t118 -47.5t118 47.5t47 126.5v400z" />
    <glyph glyph-name="uogonek" unicode="&#x173;" horiz-adv-x="570" 
d="M394 491h105v-285q0 -40 -7 -68.5t-29 -57.5t-36 -42.5l-54 -50.5q-41 -38 -41 -63q0 -38 45 -38q23 0 48 6v-69q-40 -14 -82 -14q-51 0 -80.5 22.5t-29.5 65.5q0 53 50 92q-93 2 -152.5 61t-59.5 156v285h104v-293q0 -51 31.5 -81.5t79.5 -30.5q46 0 77 30.5t31 81.5
v293z" />
    <glyph glyph-name="Wcircumflex" unicode="&#x174;" horiz-adv-x="1051" 
d="M526 818l-101 -94h-81l148 186h67l148 -186h-81zM899 660h116l-239 -660h-71l-179 475l-178 -475h-73l-239 660h117l164 -470l173 470h72l173 -469z" />
    <glyph glyph-name="wcircumflex" unicode="&#x175;" horiz-adv-x="854" 
d="M425 677l-90 -109h-79l135 212h68l135 -212h-79zM723 491h112l-199 -491h-73l-136 328l-136 -328h-71l-201 491h112l128 -340l132 340h73l133 -336z" />
    <glyph glyph-name="Ycircumflex" unicode="&#x176;" horiz-adv-x="620" 
d="M308 818l-101 -94h-81l148 186h67l148 -186h-81zM591 660l-228 -394v-266h-106v266l-228 394h118l163 -287l164 287h117z" />
    <glyph glyph-name="ycircumflex" unicode="&#x177;" horiz-adv-x="549" 
d="M273 677l-90 -109h-79l135 212h68l135 -212h-79zM418 491h112l-239 -547q-31 -70 -74 -102.5t-106 -32.5q-41 0 -81 10v89q46 -4 58 -4q37 0 63 15.5t44 56.5l20 46l-196 469h113l141 -357z" />
    <glyph glyph-name="Ydieresis" unicode="&#x178;" horiz-adv-x="620" 
d="M185 747q-27 0 -47.5 19.5t-20.5 45.5q0 27 20.5 46t47.5 19q28 0 47.5 -18.5t19.5 -46.5q0 -26 -19.5 -45.5t-47.5 -19.5zM429 746q-26 0 -46.5 19.5t-20.5 45.5q0 27 20.5 46.5t46.5 19.5q29 0 48.5 -19t19.5 -47q0 -26 -20 -45.5t-48 -19.5zM591 660l-228 -394v-266
h-106v266l-228 394h118l163 -287l164 287h117z" />
    <glyph glyph-name="Zacute" unicode="&#x179;" horiz-adv-x="588" 
d="M465 891l-128 -167h-78l79 186h127v-19zM190 95h368v-95h-532v29l366 536h-323v95h488v-29z" />
    <glyph glyph-name="zacute" unicode="&#x17a;" horiz-adv-x="461" 
d="M406 761l-128 -193h-78l79 212h127v-19zM179 91h260v-91h-417v29l257 371h-234v91h392v-30z" />
    <glyph glyph-name="Zdotaccent" unicode="&#x17b;" horiz-adv-x="588" 
d="M300 743q-30 0 -51 20t-21 49q0 30 21 50t51 20t51 -20t21 -50q0 -29 -21 -49t-51 -20zM190 95h368v-95h-532v29l366 536h-323v95h488v-29z" />
    <glyph glyph-name="zdotaccent" unicode="&#x17c;" horiz-adv-x="461" 
d="M238 605q-30 0 -51 20t-21 49t21 49.5t51 20.5q29 0 50.5 -20.5t21.5 -49.5t-21 -49t-51 -20zM179 91h260v-91h-417v29l257 371h-234v91h392v-30z" />
    <glyph glyph-name="Zcaron" unicode="&#x17d;" horiz-adv-x="588" 
d="M333 724h-67l-148 186h81l101 -94l100 94h81zM190 95h368v-95h-532v29l366 536h-323v95h488v-29z" />
    <glyph glyph-name="zcaron" unicode="&#x17e;" horiz-adv-x="461" 
d="M272 568h-68l-135 212h79l90 -109l90 109h79zM179 91h260v-91h-417v29l257 371h-234v91h392v-30z" />
    <glyph glyph-name="uni018F" unicode="&#x18f;" horiz-adv-x="732" 
d="M351 671q142 0 239.5 -98t97.5 -241q0 -144 -99.5 -243.5t-241.5 -99.5q-129 0 -216.5 83t-87.5 214q0 34 8 79h527q-10 93 -73.5 151t-153.5 58q-124 0 -201 -106l-72 61q46 66 117 104t156 38zM350 86q84 0 145 51.5t79 134.5h-427q1 -86 60.5 -136t142.5 -50z" />
    <glyph glyph-name="florin" unicode="&#x192;" horiz-adv-x="447" 
d="M380 671q41 0 65 -9v-88q-32 2 -45 2q-45 0 -68 -19.5t-29 -65.5l-11 -89h99v-91h-110l-33 -273q-22 -171 -181 -171q-31 0 -65 8l-1 89q25 -3 45 -3q45 0 68.5 20t29.5 66l32 264h-75v91h86l12 98q20 171 181 171z" />
    <glyph glyph-name="uni01D4" unicode="&#x1d4;" horiz-adv-x="570" 
d="M319 568h-68l-135 212h79l90 -109l90 109h79zM394 491h105v-285q0 -98 -60.5 -157.5t-152.5 -59.5q-93 0 -154 59.5t-61 157.5v285h104v-293q0 -51 31.5 -81.5t79.5 -30.5q46 0 77 30.5t31 81.5v293z" />
    <glyph glyph-name="AEacute" unicode="&#x1fc;" horiz-adv-x="836" 
d="M584 891l-128 -167h-78l79 186h127v-19zM551 95h245v-95h-334l-19 110h-262l-58 -110h-114l342 660h433v-95h-311l28 -169h203v-92h-188zM379 505l-151 -304h199z" />
    <glyph glyph-name="aeacute" unicode="&#x1fd;" horiz-adv-x="887" 
d="M597 761l-128 -193h-78l79 212h127v-19zM834 204h-365q12 -57 54.5 -89.5t104.5 -32.5q77 0 142 57l51 -71q-82 -79 -195 -79q-68 0 -122.5 28.5t-88.5 79.5q-27 -53 -79 -80.5t-119 -27.5q-82 0 -129.5 40t-47.5 104q0 67 49.5 107t131.5 40h139v23q0 51 -27.5 78
t-76.5 27q-73 0 -136 -73l-61 62q76 105 206 105q117 0 165 -87q69 87 186 87q98 0 162 -64t64 -162q0 -44 -8 -72zM467 280h270q4 61 -32.5 97t-92.5 36t-95.5 -36.5t-49.5 -96.5zM233 71q53 0 90 32.5t37 81.5v19h-126q-87 0 -87 -63q0 -33 24 -51.5t62 -18.5z" />
    <glyph glyph-name="Oslashacute" unicode="&#x1fe;" horiz-adv-x="780" 
d="M555 891l-128 -167h-78l79 186h127v-19zM743 620l-79 -80q72 -91 72 -210q0 -144 -101.5 -242.5t-245.5 -98.5q-117 0 -208 67l-80 -80l-64 64l78 79q-72 91 -72 211q0 144 100.5 242.5t245.5 98.5q117 0 209 -68l81 81zM148 331q0 -79 39 -141l343 345q-62 43 -140 43
q-104 0 -173 -70.5t-69 -176.5zM631 331q0 77 -39 138l-343 -344q60 -43 141 -43q103 0 172 70.5t69 178.5z" />
    <glyph glyph-name="oslashacute" unicode="&#x1ff;" horiz-adv-x="617" 
d="M477 761l-128 -193h-78l79 212h127v-19zM577 450l-56 -56q47 -66 47 -149q0 -107 -76.5 -181.5t-184.5 -74.5q-81 0 -147 44l-56 -57l-64 64l56 56q-48 67 -48 149q0 108 75.5 182.5t184.5 74.5q80 0 148 -45l57 56zM308 411q-70 0 -115 -47t-45 -119q0 -49 21 -85
l226 227q-40 24 -87 24zM307 78q70 0 115.5 47.5t45.5 119.5q0 47 -20 85l-228 -227q39 -25 87 -25z" />
    <glyph glyph-name="Scommaaccent" unicode="&#x218;" horiz-adv-x="559" 
d="M282 671q70 0 126 -32.5t87 -85.5l-74 -57q-53 80 -139 80q-42 0 -71 -20.5t-29 -59.5q0 -18 6 -31.5t21 -25t27 -18t38 -19.5l74 -34q80 -37 119 -80t39 -108q0 -86 -62.5 -138.5t-158.5 -52.5q-81 0 -146 38t-103 105l75 57q73 -105 173 -105q51 0 82.5 25t31.5 67
q0 35 -22.5 55t-74.5 44l-73 34q-73 33 -113.5 76t-40.5 107q0 80 60 129.5t148 49.5zM339 -48l-26 -172h-81l6 172h101z" />
    <glyph glyph-name="scommaaccent" unicode="&#x219;" horiz-adv-x="455" 
d="M233 502q106 0 170 -76l-57 -65q-48 50 -115 50t-67 -47q0 -19 14.5 -31.5t50.5 -26.5l47 -19q70 -29 102 -62.5t32 -85.5q0 -71 -52 -110.5t-130 -39.5q-125 0 -198 95l60 66q67 -70 138 -70q34 0 56.5 14t22.5 41q0 22 -16.5 34t-52.5 27l-50 21q-65 27 -96.5 59
t-31.5 84q0 66 49 104t124 38zM291 -48l-26 -172h-81l6 172h101z" />
    <glyph glyph-name="uni021A" unicode="&#x21a;" horiz-adv-x="583" 
d="M238 0v565h-207v95h521v-95h-208v-565h-106zM342 -48l-26 -172h-81l6 172h101z" />
    <glyph glyph-name="uni021B" unicode="&#x21b;" horiz-adv-x="398" 
d="M357 400h-151v-231q0 -45 23 -65t74 -20q17 0 47 5v-89q-37 -11 -69 -11q-88 0 -134.5 44t-46.5 127v240h-80v91h80v129h106v-129h151v-91zM169 -220l6 172h101l-26 -172h-81z" />
    <glyph glyph-name="uni0237" unicode="&#x237;" horiz-adv-x="257" 
d="M181 491v-511q0 -86 -46.5 -128.5t-127.5 -42.5q-41 0 -68 9v89q24 -3 43 -3q47 0 70.5 19.5t23.5 65.5v502h105z" />
    <glyph glyph-name="uni0259" unicode="&#x259;" horiz-adv-x="570" 
d="M270 502q110 0 183 -73.5t73 -181.5q0 -109 -74 -183.5t-181 -74.5q-98 0 -162 63.5t-64 161.5q0 33 7 66h366q-9 60 -49.5 94.5t-101.5 34.5q-76 0 -142 -58l-50 72q84 79 195 79zM275 78q53 0 91 32.5t50 87.5h-267q1 -56 37 -88t89 -32z" />
    <glyph glyph-name="circumflex" unicode="&#x2c6;" horiz-adv-x="398" 
d="M368 568h-79l-90 109l-90 -109h-79l135 212h68z" />
    <glyph glyph-name="caron" unicode="&#x2c7;" horiz-adv-x="398" 
d="M289 780h79l-135 -212h-68l-135 212h79l90 -109z" />
    <glyph glyph-name="breve" unicode="&#x2d8;" horiz-adv-x="384" 
d="M354 742q0 -70 -45.5 -116t-116.5 -46t-116.5 46t-45.5 116h85q0 -38 21.5 -60t55.5 -22t56 22t22 60h84z" />
    <glyph glyph-name="dotaccent" unicode="&#x2d9;" horiz-adv-x="204" 
d="M102 744q29 0 50.5 -20.5t21.5 -49.5t-21 -49t-51 -20t-51 20t-21 49t21 49.5t51 20.5z" />
    <glyph glyph-name="ring" unicode="&#x2da;" horiz-adv-x="297" 
d="M148 785q51 0 85 -33.5t34 -82.5q0 -48 -34 -81.5t-85 -33.5t-84.5 33.5t-33.5 81.5q0 49 33.5 82.5t84.5 33.5zM149 716q-20 0 -33 -13.5t-13 -33.5q0 -19 13 -32t33 -13q19 0 32 13t13 32q0 20 -13 33.5t-32 13.5z" />
    <glyph glyph-name="ogonek" unicode="&#x2db;" horiz-adv-x="253" 
d="M175 44l42 -44l-44 -29q-18 -11 -25 -16t-14 -14.5t-7 -19.5q0 -33 42 -33q14 0 48 6v-73q-40 -12 -78 -12q-52 0 -83 25.5t-31 67.5q0 41 34 72.5t116 69.5z" />
    <glyph glyph-name="tilde" unicode="&#x2dc;" horiz-adv-x="409" 
d="M129 748q39 0 70 -24l27 -20q25 -20 41 -20q28 0 28 38v14h83q1 -10 1 -29q0 -53 -27.5 -86.5t-71.5 -33.5q-35 0 -70 24l-26 20q-28 21 -42 21q-28 0 -28 -38v-14h-82q-2 10 -2 29q0 53 27.5 86t71.5 33z" />
    <glyph glyph-name="hungarumlaut" unicode="&#x2dd;" horiz-adv-x="429" 
d="M220 780v-19l-118 -193h-72l79 212h111zM399 780v-19l-117 -193h-73l79 212h111z" />
    <glyph glyph-name="uni030C" unicode="&#x30c;" horiz-adv-x="0" 
d="M-30 750l-44 -208h-76l9 208h111z" />
    <glyph glyph-name="uni0326" unicode="&#x326;" horiz-adv-x="0" 
d="M-30 -48l-26 -172h-81l6 172h101z" />
    <glyph glyph-name="Wgrave" unicode="&#x1e80;" horiz-adv-x="1051" 
d="M566 724h-78l-129 167v19h128zM899 660h116l-239 -660h-71l-179 475l-178 -475h-73l-239 660h117l164 -470l173 470h72l173 -469z" />
    <glyph glyph-name="wgrave" unicode="&#x1e81;" horiz-adv-x="854" 
d="M464 568h-78l-128 193v19h127zM723 491h112l-199 -491h-73l-136 328l-136 -328h-71l-201 491h112l128 -340l132 340h73l133 -336z" />
    <glyph glyph-name="Wacute" unicode="&#x1e82;" horiz-adv-x="1051" 
d="M691 891l-128 -167h-78l79 186h127v-19zM899 660h116l-239 -660h-71l-179 475l-178 -475h-73l-239 660h117l164 -470l173 470h72l173 -469z" />
    <glyph glyph-name="wacute" unicode="&#x1e83;" horiz-adv-x="854" 
d="M593 761l-128 -193h-78l79 212h127v-19zM723 491h112l-199 -491h-73l-136 328l-136 -328h-71l-201 491h112l128 -340l132 340h73l133 -336z" />
    <glyph glyph-name="Wdieresis" unicode="&#x1e84;" horiz-adv-x="1051" 
d="M403 747q-27 0 -47.5 19.5t-20.5 45.5q0 27 20.5 46t47.5 19q28 0 47.5 -18.5t19.5 -46.5q0 -26 -19.5 -45.5t-47.5 -19.5zM647 746q-26 0 -46.5 19.5t-20.5 45.5q0 27 20.5 46.5t46.5 19.5q29 0 48.5 -19t19.5 -47q0 -26 -20 -45.5t-48 -19.5zM899 660h116l-239 -660
h-71l-179 475l-178 -475h-73l-239 660h117l164 -470l173 470h72l173 -469z" />
    <glyph glyph-name="wdieresis" unicode="&#x1e85;" horiz-adv-x="854" 
d="M312 609q-27 0 -47.5 19.5t-20.5 45.5q0 28 20.5 47t47.5 19q28 0 47.5 -19t19.5 -47q0 -26 -19.5 -45.5t-47.5 -19.5zM536 609q-26 0 -46.5 19.5t-20.5 45.5q0 28 20.5 47t46.5 19q29 0 48.5 -19t19.5 -47q0 -26 -20 -45.5t-48 -19.5zM723 491h112l-199 -491h-73
l-136 328l-136 -328h-71l-201 491h112l128 -340l132 340h73l133 -336z" />
    <glyph glyph-name="uni1E9E" unicode="&#x1e9e;" horiz-adv-x="720" 
d="M500 415q75 -14 125.5 -70.5t50.5 -140.5q0 -95 -64.5 -155t-157.5 -60q-112 0 -191 84l59 75q59 -62 127 -62q51 0 85 33.5t34 86.5q0 57 -41 89.5t-112 32.5h-61v28l122 209h-287v-565h-106v660h542v-29z" />
    <glyph glyph-name="Ygrave" unicode="&#x1ef2;" horiz-adv-x="620" 
d="M348 724h-78l-129 167v19h128zM591 660l-228 -394v-266h-106v266l-228 394h118l163 -287l164 287h117z" />
    <glyph glyph-name="ygrave" unicode="&#x1ef3;" horiz-adv-x="549" 
d="M312 568h-78l-128 193v19h127zM418 491h112l-239 -547q-31 -70 -74 -102.5t-106 -32.5q-41 0 -81 10v89q46 -4 58 -4q37 0 63 15.5t44 56.5l20 46l-196 469h113l141 -357z" />
    <glyph glyph-name="uni2009" unicode="&#x2009;" horiz-adv-x="147" 
 />
    <glyph glyph-name="endash" unicode="&#x2013;" horiz-adv-x="504" 
d="M465 362v-89h-426v89h426z" />
    <glyph glyph-name="emdash" unicode="&#x2014;" horiz-adv-x="1000" 
d="M950 362v-89h-900v89h900z" />
    <glyph glyph-name="uni2015" unicode="&#x2015;" horiz-adv-x="1000" 
d="M950 362v-89h-900v89h900z" />
    <glyph glyph-name="quoteleft" unicode="&#x2018;" horiz-adv-x="291" 
d="M202 660l-10 -268h-121l49 268h82z" />
    <glyph glyph-name="quoteright" unicode="&#x2019;" horiz-adv-x="291" 
d="M219 660l-49 -268h-81l9 268h121z" />
    <glyph glyph-name="quotesinglbase" unicode="&#x201a;" horiz-adv-x="291" 
d="M219 106l-49 -267h-81l9 267h121z" />
    <glyph glyph-name="quotedblleft" unicode="&#x201c;" horiz-adv-x="500" 
d="M202 660l-10 -268h-121l49 268h82zM412 660l-10 -268h-121l49 268h82z" />
    <glyph glyph-name="quotedblright" unicode="&#x201d;" horiz-adv-x="500" 
d="M219 660l-49 -268h-81l9 268h121zM429 660l-49 -268h-81l9 268h121z" />
    <glyph glyph-name="quotedblbase" unicode="&#x201e;" horiz-adv-x="500" 
d="M219 106l-49 -267h-81l9 267h121zM429 106l-49 -267h-81l9 267h121z" />
    <glyph glyph-name="dagger" unicode="&#x2020;" horiz-adv-x="467" 
d="M286 750v-139h126v-91h-126v-233h-105v233h-126v91h126v139h105z" />
    <glyph glyph-name="daggerdbl" unicode="&#x2021;" horiz-adv-x="467" 
d="M286 750v-109h126v-91h-126v-131h126v-91h-126v-110h-105v110h-126v91h126v131h-126v91h126v109h105z" />
    <glyph glyph-name="bullet" unicode="&#x2022;" horiz-adv-x="402" 
d="M201 413q61 0 103.5 -41t42.5 -103q0 -61 -42.5 -102t-103.5 -41q-60 0 -103.5 41t-43.5 102q0 62 43.5 103t103.5 41z" />
    <glyph glyph-name="ellipsis" unicode="&#x2026;" horiz-adv-x="778" 
d="M136 144q32 0 54.5 -22t22.5 -56q0 -33 -22 -55t-55 -22t-56 22t-23 55t23 55.5t56 22.5zM390 144q32 0 54.5 -22t22.5 -56q0 -33 -22 -55t-55 -22t-56 22t-23 55t23 55.5t56 22.5zM644 144q32 0 54.5 -22t22.5 -56q0 -33 -22 -55t-55 -22t-56 22t-23 55t23 55.5t56 22.5
z" />
    <glyph glyph-name="perthousand" unicode="&#x2030;" horiz-adv-x="1202" 
d="M213 671q69 0 118 -46.5t49 -115.5t-48.5 -116t-118.5 -47t-118.5 47t-48.5 116t48.5 115.5t118.5 46.5zM644 660l-379 -660h-88l378 660h89zM213 597q-36 0 -59.5 -25t-23.5 -63t23 -63t60 -25q36 0 59.5 25t23.5 63t-23.5 63t-59.5 25zM990 316q70 0 118.5 -47
t48.5 -116t-49 -115.5t-118 -46.5t-118 46.5t-49 115.5t48.5 116t118.5 47zM607 315q70 0 119 -47t49 -116q0 -68 -49 -115t-119 -47q-69 0 -117.5 46.5t-48.5 115.5t48.5 116t117.5 47zM991 241q-37 0 -60.5 -25t-23.5 -63t23.5 -62.5t60.5 -24.5q35 0 58.5 25t23.5 62
q0 38 -23.5 63t-58.5 25zM608 240q-37 0 -60 -25t-23 -63t23 -62.5t60 -24.5q35 0 58.5 25t23.5 62q0 38 -23.5 63t-58.5 25z" />
    <glyph glyph-name="minute" unicode="&#x2032;" horiz-adv-x="268" 
d="M228 660l-79 -278h-82l39 278h122z" />
    <glyph glyph-name="second" unicode="&#x2033;" horiz-adv-x="477" 
d="M228 660l-79 -278h-82l39 278h122zM438 660l-79 -278h-82l39 278h122z" />
    <glyph glyph-name="guilsinglleft" unicode="&#x2039;" horiz-adv-x="323" 
d="M220 485l68 -60l-138 -153l138 -155l-68 -59l-186 199v29z" />
    <glyph glyph-name="guilsinglright" unicode="&#x203a;" horiz-adv-x="323" 
d="M103 485l186 -199v-29l-186 -199l-68 59l138 155l-138 153z" />
    <glyph glyph-name="fraction" unicode="&#x2044;" horiz-adv-x="244" 
d="M356 660l-379 -660h-89l379 660h89z" />
    <glyph glyph-name="uni2070" unicode="&#x2070;" horiz-adv-x="415" 
d="M208 787q80 0 121 -58t41 -153q0 -96 -41 -157.5t-121 -61.5t-121 61.5t-41 157.5q0 95 41 153t121 58zM208 711q-78 0 -78 -136q0 -143 78 -143t78 143q0 136 -78 136z" />
    <glyph glyph-name="uni2074" unicode="&#x2074;" horiz-adv-x="365" 
d="M352 501v-68h-53v-69h-76v69h-209v22l127 325h85l-110 -279h107v120h76v-120h53z" />
    <glyph glyph-name="uni2075" unicode="&#x2075;" horiz-adv-x="368" 
d="M189 632q59 0 101 -34.5t42 -95.5q0 -65 -45.5 -105t-112.5 -40q-52 0 -91.5 25.5t-60.5 67.5l58 41q35 -58 91 -58q33 0 54.5 18t21.5 48q0 62 -87 62h-95v219h238v-75h-159v-78q25 5 45 5z" />
    <glyph glyph-name="uni2076" unicode="&#x2076;" horiz-adv-x="373" 
d="M202 646q53 0 94.5 -41t41.5 -101q0 -63 -45 -105t-107 -42t-106 42t-44 107q0 34 13 61.5t43 68.5l103 144h98l-96 -134h5zM186 433q29 0 49 20t20 51t-20 51.5t-49 20.5t-48.5 -20.5t-19.5 -51.5t19.5 -51t48.5 -20z" />
    <glyph glyph-name="uni2077" unicode="&#x2077;" horiz-adv-x="336" 
d="M30 780h288v-23l-189 -393h-89l168 341h-178v75z" />
    <glyph glyph-name="uni2078" unicode="&#x2078;" horiz-adv-x="385" 
d="M265 579q81 -34 81 -105q0 -53 -43 -85t-111 -32t-110.5 32t-42.5 86q0 71 81 104q-63 37 -63 99q0 51 38 80t97 29q60 0 98 -29t38 -81q0 -62 -63 -98zM192 721q-25 0 -42 -12.5t-17 -34.5q0 -20 14.5 -33t44.5 -28q31 15 45.5 28t14.5 33q0 22 -17 34.5t-43 12.5z
M192 424q34 0 53.5 15t19.5 39q0 42 -73 67q-35 -13 -53.5 -28t-18.5 -39t18.5 -39t53.5 -15z" />
    <glyph glyph-name="uni2079" unicode="&#x2079;" horiz-adv-x="373" 
d="M187 787q62 0 106 -42t44 -107q0 -34 -13 -61.5t-43 -68.5l-103 -144h-97l95 134h-5q-52 0 -94 41t-42 101q0 63 45 105t107 42zM187 568q29 0 48.5 20.5t19.5 51.5t-19.5 51t-48.5 20t-49 -20t-20 -51t20 -51.5t49 -20.5z" />
    <glyph glyph-name="uni2080" unicode="&#x2080;" horiz-adv-x="415" 
d="M208 303q80 0 121 -58t41 -153q0 -96 -41 -157.5t-121 -61.5t-121 61.5t-41 157.5q0 95 41 153t121 58zM208 227q-78 0 -78 -136q0 -143 78 -143t78 143q0 136 -78 136z" />
    <glyph glyph-name="uni2081" unicode="&#x2081;" horiz-adv-x="361" 
d="M232 296v-341h88v-75h-275v75h104v266h-98v75h181z" />
    <glyph glyph-name="uni2082" unicode="&#x2082;" horiz-adv-x="376" 
d="M184 -45h153v-75h-303v18l148 160q58 64 58 106q0 27 -16 45t-42 18q-27 0 -43.5 -18t-16.5 -47q0 -7 2 -31h-82q-4 16 -4 36q0 54 40 95t104 41q62 0 102.5 -37.5t40.5 -94.5q0 -42 -22 -77.5t-67 -84.5z" />
    <glyph glyph-name="uni2083" unicode="&#x2083;" horiz-adv-x="357" 
d="M220 143q41 -10 70.5 -43t29.5 -84q0 -63 -45 -103t-110 -40q-51 0 -90 25.5t-60 67.5l58 41q35 -58 89 -58q32 0 52.5 18t20.5 49q0 61 -86 61h-45v21l88 123h-146v75h266v-23z" />
    <glyph glyph-name="uni2084" unicode="&#x2084;" horiz-adv-x="365" 
d="M352 17v-68h-53v-69h-76v69h-209v22l127 325h85l-110 -279h107v120h76v-120h53z" />
    <glyph glyph-name="uni2085" unicode="&#x2085;" horiz-adv-x="368" 
d="M189 148q59 0 101 -34.5t42 -95.5q0 -65 -45.5 -105t-112.5 -40q-52 0 -91.5 25.5t-60.5 67.5l58 41q35 -58 91 -58q33 0 54.5 18t21.5 48q0 62 -87 62h-95v219h238v-75h-159v-78q25 5 45 5z" />
    <glyph glyph-name="uni2086" unicode="&#x2086;" horiz-adv-x="373" 
d="M202 162q53 0 94.5 -41t41.5 -101q0 -63 -45 -105t-107 -42t-106 42t-44 107q0 34 13 61.5t43 68.5l103 144h98l-96 -134h5zM186 -51q29 0 49 20t20 51t-20 51.5t-49 20.5t-48.5 -20.5t-19.5 -51.5t19.5 -51t48.5 -20z" />
    <glyph glyph-name="uni2087" unicode="&#x2087;" horiz-adv-x="336" 
d="M30 296h288v-23l-189 -393h-89l168 341h-178v75z" />
    <glyph glyph-name="uni2088" unicode="&#x2088;" horiz-adv-x="385" 
d="M265 95q81 -34 81 -105q0 -53 -43 -85t-111 -32t-110.5 32t-42.5 86q0 71 81 104q-63 37 -63 99q0 51 38 80t97 29q60 0 98 -29t38 -81q0 -62 -63 -98zM192 237q-25 0 -42 -12.5t-17 -34.5q0 -20 14.5 -33t44.5 -28q31 15 45.5 28t14.5 33q0 22 -17 34.5t-43 12.5z
M192 -60q34 0 53.5 15t19.5 39q0 42 -73 67q-35 -13 -53.5 -28t-18.5 -39t18.5 -39t53.5 -15z" />
    <glyph glyph-name="uni2089" unicode="&#x2089;" horiz-adv-x="373" 
d="M187 303q62 0 106 -42t44 -107q0 -34 -13 -61.5t-43 -68.5l-103 -144h-97l95 134h-5q-52 0 -94 41t-42 101q0 63 45 105t107 42zM187 84q29 0 48.5 20.5t19.5 51.5t-19.5 51t-48.5 20t-49 -20t-20 -51t20 -51.5t49 -20.5z" />
    <glyph glyph-name="lira" unicode="&#x20a4;" horiz-adv-x="548" 
d="M283 170q-10 -46 -43 -82h264v-88h-455v24q106 73 127 146h-117v80h119q-6 30 -27 70h-92v80h52q-18 47 -18 88q0 82 57.5 132.5t146.5 50.5q80 0 136.5 -44t79.5 -128l-91 -33q-33 108 -119 108q-48 0 -75 -29t-27 -74q0 -34 17 -71h185v-80h-143q19 -37 25 -70h118v-80
h-120z" />
    <glyph glyph-name="peseta" unicode="&#x20a7;" horiz-adv-x="607" 
d="M608 482v-88h-80q-15 -80 -80.5 -128.5t-161.5 -48.5h-80v-217h-106v394h-80v88h80v178h186q96 0 162 -48.5t80 -129.5h80zM286 569h-80v-91h215q-23 91 -135 91zM286 308q54 0 89 23t45 67h-214v-90h80z" />
    <glyph glyph-name="Euro" unicode="&#x20ac;" horiz-adv-x="679" 
d="M405 86q99 0 155 78l75 -59q-35 -54 -96 -85t-138 -31q-108 0 -185.5 60t-108.5 160h-103v83h87q-2 24 -2 38q0 23 1 34h-85v83h100q31 102 109 163t187 61q77 0 138 -31t96 -85l-75 -58q-56 77 -155 77q-65 0 -113 -34t-72 -93h264l-21 -83h-262q-2 -22 -2 -34
q0 -14 2 -38h241l-22 -83h-198q25 -58 72 -90.5t111 -32.5z" />
    <glyph glyph-name="uni20B9" unicode="&#x20b9;" horiz-adv-x="525" 
d="M451 578h-111q24 -30 33 -72h78v-83h-76q-10 -69 -58.5 -112t-126.5 -53l261 -258h-133l-260 255v85h85q102 0 122 83h-208v83h205q-25 70 -119 70h-85v84h393v-82z" />
    <glyph glyph-name="uni20BA" unicode="&#x20ba;" horiz-adv-x="528" 
d="M488 294q9 -30 9 -62q0 -124 -102.5 -183.5t-284.5 -59.5v230l-91 -42v93l91 42v75l-91 -42v94l91 41v180h106v-131l178 81v-93l-178 -82v-75l178 82v-93l-178 -82v-179q81 8 134.5 47t53.5 106q0 15 -4 53h88z" />
    <glyph glyph-name="uni20BD" unicode="&#x20bd;" horiz-adv-x="587" 
d="M337 660q93 0 150 -51t57 -137q0 -85 -57.5 -136.5t-149.5 -51.5h-131v-77h259v-88h-259v-119h-106v119h-80v88h80v77h-80v91h80v285h237zM332 569h-126v-194h126q49 0 78 26t29 70q0 45 -28.5 71.5t-78.5 26.5z" />
    <glyph glyph-name="uni2105" unicode="&#x2105;" horiz-adv-x="821" 
d="M213 671q92 0 135 -77l-59 -45q-30 44 -76 44q-35 0 -57.5 -24t-22.5 -60q0 -37 22.5 -61t57.5 -24q44 0 76 44l59 -45q-45 -78 -135 -78q-70 0 -118.5 47.5t-48.5 116.5t48.5 115.5t118.5 46.5zM643 660l-379 -660h-88l378 660h89zM608 315q69 0 118 -47.5t49 -116.5
t-49 -115.5t-118 -46.5q-70 0 -118.5 46.5t-48.5 115.5t48.5 116.5t118.5 47.5zM608 236q-35 0 -58 -24t-23 -61q0 -36 23 -59.5t58 -23.5t58 23.5t23 59.5q0 37 -23 61t-58 24z" />
    <glyph glyph-name="uni2113" unicode="&#x2113;" horiz-adv-x="459" 
d="M211 185q0 -101 99 -101q27 0 93 10v-89q-53 -16 -111 -16q-86 0 -133.5 43t-51.5 128l-53 -38l-50 80l103 78v278q0 104 45 153.5t123 49.5q151 0 151 -161q0 -93 -53 -179t-162 -179v-57zM211 563v-194q63 60 93 113.5t30 112.5q0 77 -54 77q-69 0 -69 -109z" />
    <glyph glyph-name="uni2116" unicode="&#x2116;" horiz-adv-x="1125" 
d="M521 202v458h106v-660h-72l-366 460v-460h-106v660h73zM913 237q-70 0 -118.5 46.5t-48.5 115.5t48.5 116t118.5 47t118.5 -47t48.5 -116t-49 -115.5t-118 -46.5zM913 487q-37 0 -60.5 -24.5t-23.5 -63.5q0 -38 23.5 -62.5t60.5 -24.5t60.5 24.5t23.5 62.5t-23.5 63
t-60.5 25zM753 94v71h322v-71h-322z" />
    <glyph glyph-name="uni2117" unicode="&#x2117;" horiz-adv-x="780" 
d="M389 671q142 0 244.5 -99t102.5 -242q0 -144 -102 -242.5t-245 -98.5t-244.5 98.5t-101.5 242.5t102 242.5t244 98.5zM389 604q-112 0 -192 -77t-80 -197q0 -121 79.5 -197.5t192.5 -76.5q112 0 193 77t81 197t-80.5 197t-193.5 77zM417 504q60 0 97.5 -33t37.5 -87
t-37.5 -87t-97.5 -33h-65v-112h-78v352h143zM417 436h-64v-104h64q26 0 41 14t15 38q0 23 -15 37.5t-41 14.5z" />
    <glyph glyph-name="trademark" unicode="&#x2122;" horiz-adv-x="971" 
d="M158 211v368h-146v81h380v-81h-146v-368h-88zM462 211v449h60l159 -229l159 229h60v-449h-89v264l-115 -166h-30l-114 166v-264h-90z" />
    <glyph glyph-name="uni2126" unicode="&#x2126;" horiz-adv-x="790" 
d="M741 345q0 -150 -139 -250h129v-95h-276v95q177 84 177 245q0 102 -67.5 168t-170.5 66q-102 0 -169 -65t-67 -168q0 -161 177 -246v-95h-277v95h126q-136 100 -136 250q0 139 100.5 232.5t245.5 93.5q144 0 245.5 -94t101.5 -232z" />
    <glyph glyph-name="estimated" unicode="&#x212e;" horiz-adv-x="795" 
d="M731 327h-544v-200q77 -104 220 -104q78 0 144.5 32.5t110.5 85.5l25 -22q-49 -60 -122 -94.5t-158 -34.5q-149 0 -248 97.5t-99 238.5q0 144 101.5 244t241.5 100q81 0 156.5 -35t125.5 -102.5t50 -151.5zM407 636q-142 0 -220 -104v-172h421v187q-75 89 -201 89z" />
    <glyph glyph-name="uni2150" unicode="&#x2150;" horiz-adv-x="941" 
d="M320 319v-75h-275v75h104v266h-98v75h181v-341h88zM628 660h89l-379 -660h-89zM635 416h288v-23l-189 -393h-89l168 341h-178v75z" />
    <glyph glyph-name="uni2151" unicode="&#x2151;" horiz-adv-x="948" 
d="M320 319v-75h-275v75h104v266h-98v75h181v-341h88zM628 660h89l-379 -660h-89zM762 423q62 0 106 -42t44 -107q0 -34 -13 -61.5t-43 -68.5l-103 -144h-97l95 134h-5q-52 0 -94 41t-42 101q0 63 45 105t107 42zM762 204q29 0 48.5 20.5t19.5 51.5t-19.5 51t-48.5 20
t-49 -20t-20 -51t20 -51.5t49 -20.5z" />
    <glyph glyph-name="uni2152" unicode="&#x2152;" horiz-adv-x="1381" 
d="M232 660v-341h88v-75h-275v75h104v266h-98v75h181zM717 660l-379 -660h-89l379 660h89zM1174 423q80 0 121 -58t41 -153q0 -96 -41 -157.5t-121 -61.5t-121 61.5t-41 157.5q0 95 41 153t121 58zM837 416v-341h88v-75h-275v75h104v266h-98v75h181zM1174 347
q-78 0 -78 -136q0 -143 78 -143t78 143q0 136 -78 136z" />
    <glyph glyph-name="uni2153" unicode="&#x2153;" horiz-adv-x="962" 
d="M320 319v-75h-275v75h104v266h-98v75h181v-341h88zM628 660h89l-379 -660h-89zM825 263q41 -10 70.5 -43t29.5 -84q0 -63 -45 -103t-110 -40q-51 0 -90 25.5t-60 67.5l58 41q35 -58 89 -58q32 0 52.5 18t20.5 49q0 61 -86 61h-45v21l88 123h-146v75h266v-23z" />
    <glyph glyph-name="uni2154" unicode="&#x2154;" horiz-adv-x="977" 
d="M337 319v-75h-303v18l148 160q58 64 58 106q0 27 -16 45t-42 18q-27 0 -43.5 -18t-16.5 -47q0 -7 2 -31h-82q-4 16 -4 36q0 54 40 95t104 41q62 0 102.5 -37.5t40.5 -94.5q0 -42 -22 -77.5t-67 -84.5l-52 -54h153zM643 660h89l-379 -660h-89zM840 263q41 -10 70.5 -43
t29.5 -84q0 -63 -45 -103t-110 -40q-51 0 -90 25.5t-60 67.5l58 41q35 -58 89 -58q32 0 52.5 18t20.5 49q0 61 -86 61h-45v21l88 123h-146v75h266v-23z" />
    <glyph glyph-name="uni2155" unicode="&#x2155;" horiz-adv-x="965" 
d="M320 319v-75h-275v75h104v266h-98v75h181v-341h88zM628 660h89l-379 -660h-89zM786 268q59 0 101 -34.5t42 -95.5q0 -65 -45.5 -105t-112.5 -40q-52 0 -91.5 25.5t-60.5 67.5l58 41q35 -58 91 -58q33 0 54.5 18t21.5 48q0 62 -87 62h-95v219h238v-75h-159v-78q25 5 45 5z
" />
    <glyph glyph-name="uni2156" unicode="&#x2156;" horiz-adv-x="980" 
d="M337 319v-75h-303v18l148 160q58 64 58 106q0 27 -16 45t-42 18q-27 0 -43.5 -18t-16.5 -47q0 -7 2 -31h-82q-4 16 -4 36q0 54 40 95t104 41q62 0 102.5 -37.5t40.5 -94.5q0 -42 -22 -77.5t-67 -84.5l-52 -54h153zM643 660h89l-379 -660h-89zM801 268q59 0 101 -34.5
t42 -95.5q0 -65 -45.5 -105t-112.5 -40q-52 0 -91.5 25.5t-60.5 67.5l58 41q35 -58 91 -58q33 0 54.5 18t21.5 48q0 62 -87 62h-95v219h238v-75h-159v-78q25 5 45 5z" />
    <glyph glyph-name="uni2157" unicode="&#x2157;" horiz-adv-x="926" 
d="M320 380q0 -63 -45 -103t-110 -40q-51 0 -90 25.5t-60 67.5l58 41q35 -58 89 -58q32 0 52.5 18t20.5 49q0 61 -86 61h-45v21l88 123h-146v75h266v-23l-92 -130q41 -10 70.5 -43t29.5 -84zM589 660h89l-379 -660h-89zM747 268q59 0 101 -34.5t42 -95.5q0 -65 -45.5 -105
t-112.5 -40q-52 0 -91.5 25.5t-60.5 67.5l58 41q35 -58 91 -58q33 0 54.5 18t21.5 48q0 62 -87 62h-95v219h238v-75h-159v-78q25 5 45 5z" />
    <glyph glyph-name="uni2158" unicode="&#x2158;" horiz-adv-x="979" 
d="M299 244h-76v69h-209v22l127 325h85l-110 -279h107v120h76v-120h53v-68h-53v-69zM642 660h89l-379 -660h-89zM800 268q59 0 101 -34.5t42 -95.5q0 -65 -45.5 -105t-112.5 -40q-52 0 -91.5 25.5t-60.5 67.5l58 41q35 -58 91 -58q33 0 54.5 18t21.5 48q0 62 -87 62h-95v219
h238v-75h-159v-78q25 5 45 5z" />
    <glyph glyph-name="uni2159" unicode="&#x2159;" horiz-adv-x="898" 
d="M320 319v-75h-275v75h104v266h-98v75h181v-341h88zM628 660h89l-379 -660h-89zM727 282q53 0 94.5 -41t41.5 -101q0 -63 -45 -105t-107 -42t-106 42t-44 107q0 34 13 61.5t43 68.5l103 144h98l-96 -134h5zM711 69q29 0 49 20t20 51t-20 51.5t-49 20.5t-48.5 -20.5
t-19.5 -51.5t19.5 -51t48.5 -20z" />
    <glyph glyph-name="uni215A" unicode="&#x215a;" horiz-adv-x="870" 
d="M332 382q0 -65 -45.5 -105t-112.5 -40q-52 0 -91.5 25.5t-60.5 67.5l58 41q35 -58 91 -58q33 0 54.5 18t21.5 48q0 62 -87 62h-95v219h238v-75h-159v-78q25 5 45 5q59 0 101 -34.5t42 -95.5zM600 660h89l-379 -660h-89zM699 282q53 0 94.5 -41t41.5 -101q0 -63 -45 -105
t-107 -42t-106 42t-44 107q0 34 13 61.5t43 68.5l103 144h98l-96 -134h5zM683 69q29 0 49 20t20 51t-20 51.5t-49 20.5t-48.5 -20.5t-19.5 -51.5t19.5 -51t48.5 -20z" />
    <glyph glyph-name="oneeighth" unicode="&#x215b;" horiz-adv-x="945" 
d="M320 319v-75h-275v75h104v266h-98v75h181v-341h88zM628 660h89l-379 -660h-89zM825 215q81 -34 81 -105q0 -53 -43 -85t-111 -32t-110.5 32t-42.5 86q0 71 81 104q-63 37 -63 99q0 51 38 80t97 29q60 0 98 -29t38 -81q0 -62 -63 -98zM752 357q-25 0 -42 -12.5t-17 -34.5
q0 -20 14.5 -33t44.5 -28q31 15 45.5 28t14.5 33q0 22 -17 34.5t-43 12.5zM752 60q34 0 53.5 15t19.5 39q0 42 -73 67q-35 -13 -53.5 -28t-18.5 -39t18.5 -39t53.5 -15z" />
    <glyph glyph-name="threeeighths" unicode="&#x215c;" horiz-adv-x="906" 
d="M320 380q0 -63 -45 -103t-110 -40q-51 0 -90 25.5t-60 67.5l58 41q35 -58 89 -58q32 0 52.5 18t20.5 49q0 61 -86 61h-45v21l88 123h-146v75h266v-23l-92 -130q41 -10 70.5 -43t29.5 -84zM589 660h89l-379 -660h-89zM786 215q81 -34 81 -105q0 -53 -43 -85t-111 -32
t-110.5 32t-42.5 86q0 71 81 104q-63 37 -63 99q0 51 38 80t97 29q60 0 98 -29t38 -81q0 -62 -63 -98zM713 357q-25 0 -42 -12.5t-17 -34.5q0 -20 14.5 -33t44.5 -28q31 15 45.5 28t14.5 33q0 22 -17 34.5t-43 12.5zM713 60q34 0 53.5 15t19.5 39q0 42 -73 67
q-35 -13 -53.5 -28t-18.5 -39t18.5 -39t53.5 -15z" />
    <glyph glyph-name="fiveeighths" unicode="&#x215d;" horiz-adv-x="917" 
d="M332 382q0 -65 -45.5 -105t-112.5 -40q-52 0 -91.5 25.5t-60.5 67.5l58 41q35 -58 91 -58q33 0 54.5 18t21.5 48q0 62 -87 62h-95v219h238v-75h-159v-78q25 5 45 5q59 0 101 -34.5t42 -95.5zM600 660h89l-379 -660h-89zM797 215q81 -34 81 -105q0 -53 -43 -85t-111 -32
t-110.5 32t-42.5 86q0 71 81 104q-63 37 -63 99q0 51 38 80t97 29q60 0 98 -29t38 -81q0 -62 -63 -98zM724 357q-25 0 -42 -12.5t-17 -34.5q0 -20 14.5 -33t44.5 -28q31 15 45.5 28t14.5 33q0 22 -17 34.5t-43 12.5zM724 60q34 0 53.5 15t19.5 39q0 42 -73 67
q-35 -13 -53.5 -28t-18.5 -39t18.5 -39t53.5 -15z" />
    <glyph glyph-name="seveneighths" unicode="&#x215e;" horiz-adv-x="822" 
d="M129 244h-89l168 341h-178v75h288v-23zM505 660h89l-379 -660h-89zM702 215q81 -34 81 -105q0 -53 -43 -85t-111 -32t-110.5 32t-42.5 86q0 71 81 104q-63 37 -63 99q0 51 38 80t97 29q60 0 98 -29t38 -81q0 -62 -63 -98zM629 357q-25 0 -42 -12.5t-17 -34.5
q0 -20 14.5 -33t44.5 -28q31 15 45.5 28t14.5 33q0 22 -17 34.5t-43 12.5zM629 60q34 0 53.5 15t19.5 39q0 42 -73 67q-35 -13 -53.5 -28t-18.5 -39t18.5 -39t53.5 -15z" />
    <glyph glyph-name="arrowleft" unicode="&#x2190;" horiz-adv-x="650" 
d="M601 272l-337 1l-69 2l178 -178l-63 -62l-272 272v21l272 272l63 -62l-177 -177l68 2h337v-91z" />
    <glyph glyph-name="arrowup" unicode="&#x2191;" horiz-adv-x="650" 
d="M607 320l-63 -62l-172 172l1 -67v-321h-96v321l1 67l-172 -172l-63 62l271 272h22z" />
    <glyph glyph-name="arrowright" unicode="&#x2192;" horiz-adv-x="650" 
d="M340 600l272 -272v-21l-272 -272l-63 62l178 178l-69 -2l-337 -1v91h337l68 -2l-177 177z" />
    <glyph glyph-name="arrowdown" unicode="&#x2193;" horiz-adv-x="650" 
d="M544 378l63 -63l-271 -271h-22l-271 271l63 63l172 -173l-1 68v320h96v-320l-1 -68z" />
    <glyph glyph-name="arrowboth" unicode="&#x2194;" horiz-adv-x="934" 
d="M624 600l272 -272v-21l-272 -272l-62 62l177 178l-69 -2h-111v-1h-173v1h-122l-69 2l178 -178l-63 -62l-272 272v21l272 272l63 -62l-177 -177l68 2h406l69 -2l-177 177z" />
    <glyph glyph-name="arrowupdn" unicode="&#x2195;" horiz-adv-x="636" 
d="M365 93l165 165l63 -62l-264 -264h-22l-264 264l63 62l165 -165l-1 68v338l1 68l-165 -165l-63 62l264 264h22l264 -264l-63 -62l-165 165l1 -68v-338z" />
    <glyph glyph-name="uni2196" unicode="&#x2196;" horiz-adv-x="650" 
d="M311 386l258 -258l-66 -65l-257 257l-42 44v-256h-93v398l15 15h393v-89h-256z" />
    <glyph glyph-name="uni2197" unicode="&#x2197;" horiz-adv-x="650" 
d="M524 521l15 -15v-398h-93v256l-42 -44l-257 -257l-66 65l258 258l48 46h-256v89h393z" />
    <glyph glyph-name="uni2198" unicode="&#x2198;" horiz-adv-x="650" 
d="M446 508h93v-398l-15 -15h-393v89h256l-48 46l-258 258l66 65l257 -257l42 -44v256z" />
    <glyph glyph-name="uni2199" unicode="&#x2199;" horiz-adv-x="650" 
d="M311 230l-48 -46h256v-89h-393l-15 15v398h93v-256l42 44l257 257l66 -65z" />
    <glyph glyph-name="partialdiff" unicode="&#x2202;" horiz-adv-x="596" 
d="M304 672q113 0 179.5 -80t66.5 -227q0 -164 -80.5 -270.5t-209.5 -106.5q-90 0 -152 53.5t-62 147.5q0 96 66.5 155.5t181.5 59.5q66 0 148 -20q-6 193 -142 193q-76 0 -134 -74l-69 57q70 112 207 112zM267 81q66 0 112 56.5t59 157.5q-82 18 -139 18q-74 0 -109.5 -34
t-35.5 -86q0 -50 31.5 -81t81.5 -31z" />
    <glyph glyph-name="uni2206" unicode="&#x2206;" horiz-adv-x="662" 
d="M368 660l272 -660h-618l273 660h73zM331 483l-157 -388h313z" />
    <glyph glyph-name="product" unicode="&#x220f;" horiz-adv-x="696" 
d="M613 660v-781h-106v686h-318v-686h-106v781h530z" />
    <glyph glyph-name="summation" unicode="&#x2211;" horiz-adv-x="572" 
d="M214 -26h318v-95h-481v25l223 375l-223 356v25h469v-95h-303l172 -272v-25z" />
    <glyph glyph-name="minus" unicode="&#x2212;" 
d="M509 363v-91h-459v91h459z" />
    <glyph glyph-name="uni2219" unicode="&#x2219;" horiz-adv-x="270" 
d="M136 395q32 0 54.5 -22.5t22.5 -55.5t-22 -55t-55 -22t-56 22t-23 55t23 55.5t56 22.5z" />
    <glyph glyph-name="radical" unicode="&#x221a;" horiz-adv-x="734" 
d="M625 750h104l-513 -883h-37v323h-160v88h252v-136z" />
    <glyph glyph-name="infinity" unicode="&#x221e;" horiz-adv-x="849" 
d="M631 500q86 0 139.5 -54t53.5 -130t-53 -129.5t-139 -53.5q-64 0 -112.5 30.5t-95.5 84.5q-48 -54 -96.5 -84.5t-112.5 -30.5q-85 0 -137.5 53t-52.5 130q0 76 53 130t139 54q64 0 112.5 -30t94.5 -82q48 53 96 82.5t111 29.5zM227 228q38 0 69.5 23t68.5 67
q-36 42 -68 64.5t-70 22.5q-43 0 -70 -23.5t-27 -64.5t27 -65t70 -24zM622 228q43 0 70 24t27 65t-27 64.5t-71 23.5q-64 0 -138 -87q37 -44 69 -67t70 -23z" />
    <glyph glyph-name="integral" unicode="&#x222b;" horiz-adv-x="343" 
d="M267 788q41 0 73 -8v-88q-42 2 -50 2q-99 0 -98 -111q0 -48 33.5 -255.5t33.5 -271.5q0 -93 -48.5 -139t-133.5 -46q-43 0 -73 8v88q40 -2 49 -2q99 0 99 110q0 51 -34.5 258.5t-34.5 269.5q0 92 49.5 138.5t134.5 46.5z" />
    <glyph glyph-name="approxequal" unicode="&#x2248;" 
d="M153 527q39 0 84 -26l91 -56q44 -24 59 -24q17 0 26 12t9 30v17h83q2 -12 2 -30q0 -54 -30.5 -89t-78.5 -35q-40 0 -83 26l-91 55q-40 25 -59 25q-17 0 -26.5 -11.5t-9.5 -30.5v-17h-82q-2 12 -2 30q0 53 30.5 88.5t77.5 35.5zM153 306q39 0 84 -26l91 -56q44 -24 59 -24
q17 0 26 12t9 30v17h83q2 -12 2 -30q0 -54 -30.5 -89t-78.5 -35q-40 0 -83 26l-91 55q-40 25 -59 25q-17 0 -26.5 -11.5t-9.5 -30.5v-17h-82q-2 12 -2 30q0 53 30.5 88.5t77.5 35.5z" />
    <glyph glyph-name="notequal" unicode="&#x2260;" 
d="M500 378h-134l-74 -121h208v-91h-264l-65 -105h-95l65 105h-80v91h136l75 121h-211v91h267l63 102h94l-63 -102h78v-91z" />
    <glyph glyph-name="lessequal" unicode="&#x2264;" 
d="M495 543v-94l-260 -96l260 -97v-94l-451 176v29zM56 0v88h439v-88h-439z" />
    <glyph glyph-name="greaterequal" unicode="&#x2265;" 
d="M64 543l451 -176v-29l-451 -176v94l261 97l-261 96v94zM64 0v88h439v-88h-439z" />
    <glyph glyph-name="uni24EA" unicode="&#x24ea;" horiz-adv-x="978" 
d="M488 761q179 0 305.5 -126.5t126.5 -304.5t-126.5 -304.5t-305.5 -126.5q-178 0 -304 126t-126 305t126 305t304 126zM488 680q-146 0 -246.5 -101t-100.5 -249t100.5 -249t246.5 -101t247 101t101 249t-101 249t-247 101zM488 561q87 0 132 -63t45 -165q0 -103 -45 -169
t-132 -66q-86 0 -130.5 66t-44.5 169q0 102 45 165t130 63zM488 482q-86 0 -86 -149q0 -156 86 -156q88 0 88 156q0 149 -88 149z" />
    <glyph glyph-name="uni24FF" unicode="&#x24ff;" horiz-adv-x="978" 
d="M488 761q179 0 305.5 -126.5t126.5 -304.5t-126.5 -304.5t-305.5 -126.5q-178 0 -304 126t-126 305t126 305t304 126zM488 561q-86 0 -131 -63t-45 -165q0 -103 44.5 -169t131.5 -66t132.5 66t45.5 169q0 102 -45.5 165t-132.5 63zM488 479q85 0 85 -146q0 -153 -85 -153
q-83 0 -83 153q0 146 83 146z" />
    <glyph glyph-name="filledbox" unicode="&#x25a0;" horiz-adv-x="730" 
d="M640 605v-550h-550v550h550z" />
    <glyph glyph-name="uni25A1" unicode="&#x25a1;" horiz-adv-x="730" 
d="M640 605v-550h-550v550h550zM542 513h-354v-366h354v366z" />
    <glyph glyph-name="uni25AA" unicode="&#x25aa;" horiz-adv-x="541" 
d="M461 436v-380h-381v380h381z" />
    <glyph glyph-name="uni25AB" unicode="&#x25ab;" horiz-adv-x="541" 
d="M461 436v-380h-381v380h381zM369 349h-197v-207h197v207z" />
    <glyph glyph-name="triagup" unicode="&#x25b2;" horiz-adv-x="730" 
d="M374 660l335 -591l-8 -14h-672l-8 14l336 591h17z" />
    <glyph glyph-name="uni25B3" unicode="&#x25b3;" horiz-adv-x="730" 
d="M374 660l335 -591l-8 -14h-672l-8 14l336 591h17zM553 152l-188 330l-188 -330h376z" />
    <glyph glyph-name="uni25B4" unicode="&#x25b4;" horiz-adv-x="528" 
d="M273 475l230 -405l-8 -14h-462l-8 14l231 405h17z" />
    <glyph glyph-name="uni25B5" unicode="&#x25b5;" horiz-adv-x="528" 
d="M273 475l230 -405l-8 -14h-462l-8 14l231 405h17zM372 132l-108 189l-107 -189h215z" />
    <glyph glyph-name="uni25B6" unicode="&#x25b6;" horiz-adv-x="645" 
d="M104 671l518 -333v-17l-518 -332l-14 8v666z" />
    <glyph glyph-name="uni25B7" unicode="&#x25b7;" horiz-adv-x="645" 
d="M104 671l518 -333v-17l-518 -332l-14 8v666zM459 330l-271 174v-348z" />
    <glyph glyph-name="uni25B8" unicode="&#x25b8;" horiz-adv-x="480" 
d="M94 482l355 -227v-17l-355 -227l-14 8v455z" />
    <glyph glyph-name="uni25B9" unicode="&#x25b9;" horiz-adv-x="480" 
d="M94 482l355 -227v-17l-355 -227l-14 8v455zM312 246l-151 97v-193z" />
    <glyph glyph-name="triagrt" unicode="&#x25ba;" horiz-adv-x="961" 
d="M104 671l827 -333v-17l-827 -332l-14 8v666z" />
    <glyph glyph-name="uni25BB" unicode="&#x25bb;" horiz-adv-x="961" 
d="M104 671l827 -333v-17l-827 -332l-14 8v666zM696 330l-508 205v-410z" />
    <glyph glyph-name="triagdn" unicode="&#x25bc;" horiz-adv-x="730" 
d="M374 0h-17l-336 591l8 14h672l8 -14z" />
    <glyph glyph-name="uni25BD" unicode="&#x25bd;" horiz-adv-x="730" 
d="M701 605l8 -14l-335 -591h-17l-336 591l8 14h672zM553 508h-376l188 -330z" />
    <glyph glyph-name="uni25BE" unicode="&#x25be;" horiz-adv-x="528" 
d="M495 436l8 -15l-230 -404h-17l-231 404l8 15h462z" />
    <glyph glyph-name="uni25BF" unicode="&#x25bf;" horiz-adv-x="528" 
d="M495 436l8 -15l-230 -404h-17l-231 404l8 15h462zM372 359h-215l107 -189z" />
    <glyph glyph-name="uni25C0" unicode="&#x25c0;" horiz-adv-x="645" 
d="M541 671l14 -8v-666l-14 -8l-518 332v17z" />
    <glyph glyph-name="uni25C1" unicode="&#x25c1;" horiz-adv-x="682" 
d="M578 671l14 -8v-666l-14 -8l-518 332v17zM494 504l-271 -174l271 -174v348z" />
    <glyph glyph-name="uni25C2" unicode="&#x25c2;" horiz-adv-x="480" 
d="M386 482l14 -8v-455l-14 -8l-355 227v17z" />
    <glyph glyph-name="uni25C3" unicode="&#x25c3;" horiz-adv-x="480" 
d="M386 482l14 -8v-455l-14 -8l-355 227v17zM319 150v193l-151 -97z" />
    <glyph glyph-name="triaglf" unicode="&#x25c4;" horiz-adv-x="961" 
d="M857 671l14 -8v-666l-14 -8l-827 332v17z" />
    <glyph glyph-name="uni25C5" unicode="&#x25c5;" horiz-adv-x="961" 
d="M857 671l14 -8v-666l-14 -8l-827 332v17zM773 125v410l-508 -205z" />
    <glyph glyph-name="lozenge" unicode="&#x25ca;" horiz-adv-x="665" 
d="M351 671l213 -341l-213 -341h-37l-213 342l213 340h37zM211 331l124 -196l120 195l-122 196z" />
    <glyph glyph-name="circle" unicode="&#x25cb;" horiz-adv-x="776" 
d="M388 659q136 0 232.5 -96.5t96.5 -232.5t-96.5 -233t-232.5 -97q-135 0 -232.5 97t-97.5 233t97 232.5t233 96.5zM388 567q-98 0 -165.5 -69t-67.5 -168t67.5 -168t165.5 -69t165 69t67 168t-67 168t-165 69z" />
    <glyph glyph-name="uni25CF" unicode="&#x25cf;" horiz-adv-x="776" 
d="M388 659q136 0 232.5 -96.5t96.5 -232.5t-96.5 -233t-232.5 -97q-135 0 -232.5 97t-97.5 233t97 232.5t233 96.5z" />
    <glyph glyph-name="uni2661" unicode="&#x2661;" horiz-adv-x="860" 
d="M614 671q81 0 137 -55t56 -141q0 -50 -24 -94t-84 -110l-261 -282h-17l-261 282q-60 66 -83.5 110.5t-23.5 93.5q0 86 56 141t137 55q64 0 112.5 -35.5t70.5 -92.5q22 57 71.5 92.5t113.5 35.5zM618 328q41 46 59.5 77.5t18.5 66.5q0 45 -27.5 72.5t-70.5 27.5
q-53 0 -88.5 -45t-53.5 -115h-53q-16 69 -53 114.5t-90 45.5q-42 0 -69.5 -27.5t-27.5 -72.5q0 -35 19 -67.5t59 -76.5l189 -208z" />
    <glyph glyph-name="heart" unicode="&#x2665;" horiz-adv-x="860" 
d="M614 671q81 0 137 -55t56 -141q0 -50 -24 -94t-84 -110l-261 -282h-17l-261 282q-60 66 -83.5 110.5t-23.5 93.5q0 86 56 141t137 55q64 0 112.5 -35.5t70.5 -92.5q22 57 71.5 92.5t113.5 35.5z" />
    <glyph glyph-name="uni275B" unicode="&#x275b;" horiz-adv-x="554" 
d="M294 438q87 0 152 -63.5t65 -157.5q0 -97 -68.5 -162.5t-165.5 -65.5t-165.5 65.5t-68.5 163.5q0 38 14 76t28.5 61.5t48.5 71.5l164 233h126l-159 -225q13 3 29 3z" />
    <glyph glyph-name="uni275C" unicode="&#x275c;" horiz-adv-x="554" 
d="M277 671q97 0 165.5 -65.5t68.5 -163.5q0 -38 -14 -76t-28.5 -61.5t-48.5 -71.5l-164 -233h-126l159 225q-13 -3 -29 -3q-87 0 -152 63.5t-65 157.5q0 97 68.5 162.5t165.5 65.5z" />
    <glyph glyph-name="uni275D" unicode="&#x275d;" horiz-adv-x="1094" 
d="M294 438q87 0 152 -63.5t65 -157.5q0 -97 -68.5 -162.5t-165.5 -65.5t-165.5 65.5t-68.5 163.5q0 38 14 76t28.5 61.5t48.5 71.5l164 233h126l-159 -225q13 3 29 3zM834 438q87 0 152 -63.5t65 -157.5q0 -97 -68.5 -162.5t-165.5 -65.5t-165.5 65.5t-68.5 163.5
q0 38 14 76t28.5 61.5t48.5 71.5l164 233h126l-159 -225q13 3 29 3z" />
    <glyph glyph-name="uni275E" unicode="&#x275e;" horiz-adv-x="1094" 
d="M277 671q97 0 165.5 -65.5t68.5 -163.5q0 -38 -14 -76t-28.5 -61.5t-48.5 -71.5l-164 -233h-126l159 225q-13 -3 -29 -3q-87 0 -152 63.5t-65 157.5q0 97 68.5 162.5t165.5 65.5zM817 671q97 0 165.5 -65.5t68.5 -163.5q0 -38 -14 -76t-28.5 -61.5t-48.5 -71.5l-164 -233
h-126l159 225q-13 -3 -29 -3q-87 0 -152 63.5t-65 157.5q0 97 68.5 162.5t165.5 65.5z" />
    <glyph glyph-name="uni2776" unicode="&#x2776;" horiz-adv-x="978" 
d="M488 761q179 0 305.5 -126.5t126.5 -304.5t-126.5 -304.5t-305.5 -126.5q-178 0 -304 126t-126 305t126 305t304 126zM538 554h-181v-77h90v-295h-96v-77h277v77h-90v372z" />
    <glyph glyph-name="uni2777" unicode="&#x2777;" horiz-adv-x="978" 
d="M488 761q179 0 305.5 -126.5t126.5 -304.5t-126.5 -304.5t-305.5 -126.5q-178 0 -304 126t-126 305t126 305t304 126zM485 561q-71 0 -116 -44t-45 -104q0 -17 5 -40h83q-3 16 -3 33q0 31 19.5 52t52.5 21q31 0 49 -18.5t18 -48.5q0 -28 -15.5 -52.5t-49.5 -61.5
l-158 -174v-19h332v77h-174l74 80q41 42 62.5 77.5t21.5 79.5q0 62 -44 102t-112 40z" />
    <glyph glyph-name="uni2778" unicode="&#x2778;" horiz-adv-x="978" 
d="M488 761q179 0 305.5 -126.5t126.5 -304.5t-126.5 -304.5t-305.5 -126.5q-178 0 -304 126t-126 305t126 305t304 126zM636 554h-290v-82h154l-97 -132v-24h55q93 0 93 -65q0 -32 -22 -51.5t-56 -19.5q-54 0 -97 63l-64 -45q24 -46 66 -73t98 -27q71 0 120 43t49 110
q0 55 -32.5 90t-80.5 46l104 143v24z" />
    <glyph glyph-name="uni2779" unicode="&#x2779;" horiz-adv-x="978" 
d="M488 761q179 0 305.5 -126.5t126.5 -304.5t-126.5 -304.5t-305.5 -126.5q-178 0 -304 126t-126 305t126 305t304 126zM521 554h-96l-133 -351v-26h226v-72h90v72h57v80h-57v119h-90v-119h-116z" />
    <glyph glyph-name="uni277A" unicode="&#x277a;" horiz-adv-x="978" 
d="M488 761q179 0 305.5 -126.5t126.5 -304.5t-126.5 -304.5t-305.5 -126.5q-178 0 -304 126t-126 305t126 305t304 126zM623 554h-260v-238h105q92 0 92 -65q0 -32 -22.5 -51.5t-57.5 -19.5q-57 0 -100 63l-63 -45q22 -46 65.5 -73.5t101.5 -27.5q71 0 120.5 44t49.5 112
q0 66 -45.5 103.5t-106.5 37.5q-29 0 -52 -4v82h173v82z" />
    <glyph glyph-name="uni277B" unicode="&#x277b;" horiz-adv-x="978" 
d="M488 761q179 0 305.5 -126.5t126.5 -304.5t-126.5 -304.5t-305.5 -126.5q-178 0 -304 126t-126 305t126 305t304 126zM595 554h-108l-112 -155q-23 -33 -33.5 -50t-19 -41.5t-8.5 -50.5q0 -68 48.5 -113.5t115.5 -45.5q68 0 117 45t49 113q0 53 -31.5 92t-77.5 50
q-28 8 -51 2zM478 333q32 0 53.5 -21.5t21.5 -54.5q0 -32 -22 -54.5t-53 -22.5t-52.5 22.5t-21.5 55.5q0 32 21.5 53.5t52.5 21.5z" />
    <glyph glyph-name="uni277C" unicode="&#x277c;" horiz-adv-x="978" 
d="M488 761q179 0 305.5 -126.5t126.5 -304.5t-126.5 -304.5t-305.5 -126.5q-178 0 -304 126t-126 305t126 305t304 126zM657 555h-315v-83h194l-185 -366h100l206 424v25z" />
    <glyph glyph-name="uni277D" unicode="&#x277d;" horiz-adv-x="978" 
d="M488 761q179 0 305.5 -126.5t126.5 -304.5t-126.5 -304.5t-305.5 -126.5q-178 0 -304 126t-126 305t126 305t304 126zM489 561q-65 0 -106.5 -31t-41.5 -87q0 -65 71 -105q-92 -36 -92 -113q0 -58 47.5 -92.5t121.5 -34.5q75 0 121.5 34.5t46.5 92.5q0 77 -90 114
q70 37 70 104q0 56 -41.5 87t-106.5 31zM489 490q27 0 44.5 -14.5t17.5 -38.5q0 -39 -63 -63q-61 24 -61 63q0 24 17.5 38.5t44.5 14.5zM488 306q39 -14 59 -30.5t20 -45.5q0 -27 -20.5 -44t-57.5 -17q-38 0 -58 17.5t-20 44.5q0 28 19.5 44.5t57.5 30.5z" />
    <glyph glyph-name="uni277E" unicode="&#x277e;" horiz-adv-x="978" 
d="M489 761q179 0 305 -126.5t126 -304.5t-126 -304.5t-305 -126.5t-305 126.5t-126 304.5t126 304.5t305 126.5zM499 562q-67 0 -116 -45t-49 -113q0 -53 31 -92t78 -50q24 -7 50 -2l-111 -154h108l112 155q34 47 48 76t14 66q0 68 -48.5 113.5t-116.5 45.5zM499 480
q31 0 52.5 -22.5t21.5 -55.5q0 -32 -21.5 -53.5t-52.5 -21.5q-32 0 -53.5 21.5t-21.5 54.5q0 32 22 54.5t53 22.5z" />
    <glyph glyph-name="uni2780" unicode="&#x2780;" horiz-adv-x="978" 
d="M488 761q179 0 305.5 -126.5t126.5 -304.5t-126.5 -304.5t-305.5 -126.5q-178 0 -304 126t-126 305t126 305t304 126zM488 676q-144 0 -243 -99.5t-99 -246.5t99 -246.5t243 -99.5t244 100t100 246t-100 246t-244 100zM538 554v-372h90v-77h-277v77h96v295h-90v77h181z
" />
    <glyph glyph-name="uni2781" unicode="&#x2781;" horiz-adv-x="978" 
d="M488 761q179 0 305.5 -126.5t126.5 -304.5t-126.5 -304.5t-305.5 -126.5q-178 0 -304 126t-126 305t126 305t304 126zM488 676q-144 0 -243 -99.5t-99 -246.5t99 -246.5t243 -99.5t244 100t100 246t-100 246t-244 100zM485 561q68 0 112 -40t44 -102q0 -44 -21.5 -79.5
t-62.5 -77.5l-74 -80h174v-77h-332v19l158 174q34 37 49.5 61.5t15.5 52.5q0 30 -18 48.5t-49 18.5q-33 0 -52.5 -21t-19.5 -52q0 -16 3 -33h-83q-5 23 -5 40q0 60 45 104t116 44z" />
    <glyph glyph-name="uni2782" unicode="&#x2782;" horiz-adv-x="978" 
d="M488 761q179 0 305.5 -126.5t126.5 -304.5t-126.5 -304.5t-305.5 -126.5q-178 0 -304 126t-126 305t126 305t304 126zM488 676q-144 0 -243 -99.5t-99 -246.5t99 -246.5t243 -99.5t244 100t100 246t-100 246t-244 100zM636 554v-24l-104 -143q48 -11 80.5 -46t32.5 -90
q0 -67 -49 -110t-120 -43q-56 0 -98 27t-66 73l64 45q43 -63 97 -63q34 0 56 19.5t22 51.5q0 65 -93 65h-55v24l97 132h-154v82h290z" />
    <glyph glyph-name="uni2783" unicode="&#x2783;" horiz-adv-x="978" 
d="M488 761q179 0 305.5 -126.5t126.5 -304.5t-126.5 -304.5t-305.5 -126.5q-178 0 -304 126t-126 305t126 305t304 126zM488 676q-144 0 -243 -99.5t-99 -246.5t99 -246.5t243 -99.5t244 100t100 246t-100 246t-244 100zM521 554l-119 -297h116v119h90v-119h57v-80h-57v-72
h-90v72h-226v26l133 351h96z" />
    <glyph glyph-name="uni2784" unicode="&#x2784;" horiz-adv-x="978" 
d="M488 761q179 0 305.5 -126.5t126.5 -304.5t-126.5 -304.5t-305.5 -126.5q-178 0 -304 126t-126 305t126 305t304 126zM488 676q-144 0 -243 -99.5t-99 -246.5t99 -246.5t243 -99.5t244 100t100 246t-100 246t-244 100zM624 554v-82h-173v-82q23 4 52 4q61 0 107 -37.5
t46 -103.5q0 -68 -50 -112t-122 -44q-58 0 -101 27.5t-66 73.5l64 45q43 -63 99 -63q35 0 58 19.5t23 51.5q0 65 -92 65h-106v238h261z" />
    <glyph glyph-name="uni2785" unicode="&#x2785;" horiz-adv-x="978" 
d="M488 761q179 0 305.5 -126.5t126.5 -304.5t-126.5 -304.5t-305.5 -126.5q-178 0 -304 126t-126 305t126 305t304 126zM488 676q-144 0 -243 -99.5t-99 -246.5t99 -246.5t243 -99.5t244 100t100 246t-100 246t-244 100zM595 554l-111 -154q23 6 51 -2q46 -11 77.5 -50
t31.5 -92q0 -68 -49 -113t-117 -45q-67 0 -115.5 45.5t-48.5 113.5q0 37 13.5 65.5t47.5 76.5l112 155h108zM478 333q-31 0 -52.5 -21.5t-21.5 -53.5q0 -33 21.5 -55.5t52.5 -22.5t53 22.5t22 54.5q0 33 -21.5 54.5t-53.5 21.5z" />
    <glyph glyph-name="uni2786" unicode="&#x2786;" horiz-adv-x="978" 
d="M488 761q179 0 305.5 -126.5t126.5 -304.5t-126.5 -304.5t-305.5 -126.5q-178 0 -304 126t-126 305t126 305t304 126zM488 676q-144 0 -243 -99.5t-99 -246.5t99 -246.5t243 -99.5t244 100t100 246t-100 246t-244 100zM656 555v-25l-206 -424h-99l184 366h-194v83h315z
" />
    <glyph glyph-name="uni2787" unicode="&#x2787;" horiz-adv-x="978" 
d="M488 761q179 0 305.5 -126.5t126.5 -304.5t-126.5 -304.5t-305.5 -126.5q-178 0 -304 126t-126 305t126 305t304 126zM488 676q-144 0 -243 -99.5t-99 -246.5t99 -246.5t243 -99.5t244 100t100 246t-100 246t-244 100zM489 561q65 0 106.5 -31t41.5 -87q0 -67 -70 -104
q90 -37 90 -114q0 -58 -46.5 -92.5t-121.5 -34.5q-74 0 -121.5 34.5t-47.5 92.5q0 77 92 113q-71 40 -71 105q0 56 41.5 87t106.5 31zM489 490q-27 0 -44.5 -14.5t-17.5 -38.5q0 -39 61 -63q63 24 63 63q0 24 -17.5 38.5t-44.5 14.5zM488 306q-38 -14 -57.5 -30.5
t-19.5 -44.5q0 -27 20 -44.5t58 -17.5q37 0 57.5 17t20.5 44q0 29 -20 45.5t-59 30.5z" />
    <glyph glyph-name="uni2788" unicode="&#x2788;" horiz-adv-x="978" 
d="M489 761q179 0 305 -126.5t126 -304.5t-126 -304.5t-305 -126.5t-305 126.5t-126 304.5t126 304.5t305 126.5zM489 676q-144 0 -243.5 -99.5t-99.5 -246.5t99.5 -246.5t243.5 -99.5t243.5 99.5t99.5 246.5t-99.5 246.5t-243.5 99.5zM499 562q68 0 116.5 -45.5
t48.5 -113.5q0 -37 -14 -66t-48 -76l-112 -155h-108l111 154q-26 -5 -50 2q-47 11 -78 50t-31 92q0 68 49 113t116 45zM499 480q-31 0 -53 -22.5t-22 -54.5q0 -33 21.5 -54.5t53.5 -21.5q31 0 52.5 21.5t21.5 53.5q0 33 -21.5 55.5t-52.5 22.5z" />
    <glyph glyph-name="uni27F5" unicode="&#x27f5;" horiz-adv-x="1216" 
d="M1167 272l-888 1l-69 2l178 -178l-63 -62l-272 272v21l272 272l63 -62l-177 -177l68 2h888v-91z" />
    <glyph glyph-name="uni27F6" unicode="&#x27f6;" horiz-adv-x="1216" 
d="M891 600l272 -272v-21l-272 -272l-63 62l178 178l-69 -2l-888 -1v91h888l68 -2l-177 177z" />
    <glyph glyph-name="Iacute_J.loclNLD" horiz-adv-x="653" 
d="M302 910v-19l-128 -167h-78l79 186h127zM669 910v-19l-128 -167h-78l79 186h127zM189 660v-660h-106v660h106zM570 660v-496q0 -88 -49 -131.5t-137 -43.5q-43 0 -91 11v91q45 -5 68 -5q52 0 77.5 19.5t25.5 69.5v485h106z" />
    <glyph glyph-name="Cacute.loclPLK" horiz-adv-x="717" 
d="M351 724l39 186h127v-19l-88 -167h-78zM390 671q91 0 165.5 -41t117.5 -111l-80 -59q-74 114 -202 114q-102 0 -170 -69.5t-68 -174.5t68 -174.5t170 -69.5q128 0 202 114l80 -59q-42 -70 -116.5 -111t-166.5 -41q-146 0 -246.5 98t-100.5 243q0 144 101 242.5t246 98.5z
" />
    <glyph glyph-name="Nacute.loclPLK" horiz-adv-x="711" 
d="M481 891l-88 -167h-78l39 186h127v-19zM521 660h106v-660h-72l-366 460v-460h-106v660h73l365 -458v458z" />
    <glyph glyph-name="Oacute.loclPLK" horiz-adv-x="780" 
d="M350 724l39 186h127v-19l-88 -167h-78zM389 671q144 0 245.5 -98.5t101.5 -242.5t-101.5 -242.5t-245.5 -98.5q-145 0 -245.5 98.5t-100.5 242.5t100.5 242.5t245.5 98.5zM390 574q-103 0 -170 -69t-67 -174q0 -106 67 -175.5t170 -69.5q102 0 169.5 69.5t67.5 175.5
q0 104 -68 173.5t-169 69.5z" />
    <glyph glyph-name="Sacute.loclPLK" horiz-adv-x="559" 
d="M242 724l39 186h127v-19l-88 -167h-78zM282 671q70 0 126 -32.5t87 -85.5l-74 -57q-53 80 -139 80q-42 0 -71 -20.5t-29 -59.5q0 -18 6 -31.5t21 -25t27 -18t38 -19.5l74 -34q80 -37 119 -80t39 -108q0 -86 -62.5 -138.5t-158.5 -52.5q-81 0 -146 38t-103 105l75 57
q73 -105 173 -105q51 0 82.5 25t31.5 67q0 35 -22.5 55t-74.5 44l-73 34q-73 33 -113.5 76t-40.5 107q0 80 60 129.5t148 49.5z" />
    <glyph glyph-name="Zacute.loclPLK" horiz-adv-x="588" 
d="M426 891l-88 -167h-78l39 186h127v-19zM190 95h368v-95h-532v29l366 536h-323v95h488v-29z" />
    <glyph glyph-name="Idotaccent.loclTRK" horiz-adv-x="272" 
d="M137 882q30 0 51 -20t21 -50q0 -29 -21 -49t-51 -20t-51 20t-21 49q0 30 21 50t51 20zM189 660v-660h-106v660h106z" />
    <glyph glyph-name="Q.ss03" horiz-adv-x="780" 
d="M954 -121q26 0 94 4v-84q-59 -11 -111 -11q-270 0 -427 222q-57 -21 -121 -21q-145 0 -245.5 98.5t-100.5 242.5t100.5 242.5t245.5 98.5q144 0 245.5 -98.5t101.5 -242.5q0 -84 -37 -155.5t-102 -118.5q134 -177 357 -177zM153 331q0 -106 67 -175.5t170 -69.5
q102 0 169.5 69.5t67.5 174.5t-67.5 174.5t-170.5 69.5q-102 0 -169 -69t-67 -174z" />
    <glyph glyph-name="iacute_j.loclNLD" horiz-adv-x="514" 
d="M265 780v-19l-98 -193h-78l49 212h127zM522 780v-19l-98 -193h-78l49 212h127zM181 491v-491h-105v491h105zM438 491v-511q0 -86 -46.5 -128.5t-127.5 -42.5q-41 0 -68 9v89q24 -3 43 -3q47 0 70.5 19.5t23.5 65.5v502h105z" />
    <glyph glyph-name="cacute.loclPLK" horiz-adv-x="552" 
d="M261 568l39 212h127v-19l-88 -193h-78zM305 502q68 0 121.5 -30.5t85.5 -83.5l-74 -58q-53 75 -132 75q-67 0 -110.5 -46t-43.5 -113q0 -69 43.5 -114.5t110.5 -45.5q78 0 132 74l74 -57q-71 -114 -207 -114q-109 0 -184.5 74.5t-75.5 182.5t75.5 182t184.5 74z" />
    <glyph glyph-name="nacute.loclPLK" horiz-adv-x="575" 
d="M407 761l-88 -193h-78l39 212h127v-19zM321 502q86 0 135 -53.5t49 -141.5v-307h-105v293q0 51 -29.5 82.5t-77.5 31.5q-49 0 -80.5 -32t-31.5 -82v-293h-105v491h98v-48q56 59 147 59z" />
    <glyph glyph-name="oacute.loclPLK" horiz-adv-x="609" 
d="M263 568l39 212h127v-19l-88 -193h-78zM304 -11q-109 1 -184 75t-75 182t75 182t184 74q108 0 184.5 -74t76.5 -182t-76.5 -182.5t-184.5 -74.5zM304 86q65 0 109 45.5t44 113.5q0 69 -43.5 114.5t-108.5 46.5q-66 -1 -109.5 -46.5t-43.5 -114.5q0 -68 43 -113.5
t109 -45.5z" />
    <glyph glyph-name="sacute.loclPLK" horiz-adv-x="455" 
d="M189 568l39 212h127v-19l-88 -193h-78zM233 502q106 0 170 -76l-57 -65q-48 50 -115 50t-67 -47q0 -19 14.5 -31.5t50.5 -26.5l47 -19q70 -29 102 -62.5t32 -85.5q0 -71 -52 -110.5t-130 -39.5q-125 0 -198 95l60 66q67 -70 138 -70q34 0 56.5 14t22.5 41q0 22 -16.5 34
t-52.5 27l-50 21q-65 27 -96.5 59t-31.5 84q0 66 49 104t124 38z" />
    <glyph glyph-name="zacute.loclPLK" horiz-adv-x="461" 
d="M362 761l-88 -193h-78l39 212h127v-19zM179 91h260v-91h-417v29l257 371h-234v91h392v-30z" />
    <glyph glyph-name="i.loclTRK.loclTRK" horiz-adv-x="257" 
d="M129 744q29 0 50.5 -20.5t21.5 -49.5t-21 -49t-51 -20t-51 20t-21 49t21 49.5t51 20.5zM181 491v-491h-105v491h105z" />
    <glyph glyph-name="a.ss01" horiz-adv-x="536" 
d="M265 502q91 0 146 -53t55 -152v-297h-98v55q-55 -66 -157 -66q-77 0 -124 39t-47 103t49 102t132 38h139v32q0 51 -27.5 78t-77.5 27q-74 0 -136 -73l-61 62q74 105 207 105zM233 70q53 0 90 33t37 83v9h-126q-87 0 -87 -60q0 -31 24 -48t62 -17z" />
    <glyph glyph-name="aacute.ss01" horiz-adv-x="536" 
d="M433 761l-128 -193h-78l79 212h127v-19zM265 502q91 0 146 -53t55 -152v-297h-98v55q-55 -66 -157 -66q-77 0 -124 39t-47 103t49 102t132 38h139v32q0 51 -27.5 78t-77.5 27q-74 0 -136 -73l-61 62q74 105 207 105zM233 70q53 0 90 33t37 83v9h-126q-87 0 -87 -60
q0 -31 24 -48t62 -17z" />
    <glyph glyph-name="abreve.ss01" horiz-adv-x="536" 
d="M265 580q-71 0 -116.5 46t-45.5 116h85q0 -38 21.5 -60t55.5 -22t56 22t22 60h84q0 -70 -45.5 -116t-116.5 -46zM265 502q91 0 146 -53t55 -152v-297h-98v55q-55 -66 -157 -66q-77 0 -124 39t-47 103t49 102t132 38h139v32q0 51 -27.5 78t-77.5 27q-74 0 -136 -73l-61 62
q74 105 207 105zM233 70q53 0 90 33t37 83v9h-126q-87 0 -87 -60q0 -31 24 -48t62 -17z" />
    <glyph glyph-name="acircumflex.ss01" horiz-adv-x="536" 
d="M265 677l-90 -109h-79l135 212h68l135 -212h-79zM265 502q91 0 146 -53t55 -152v-297h-98v55q-55 -66 -157 -66q-77 0 -124 39t-47 103t49 102t132 38h139v32q0 51 -27.5 78t-77.5 27q-74 0 -136 -73l-61 62q74 105 207 105zM233 70q53 0 90 33t37 83v9h-126
q-87 0 -87 -60q0 -31 24 -48t62 -17z" />
    <glyph glyph-name="adieresis.ss01" horiz-adv-x="536" 
d="M152 609q-27 0 -47.5 19.5t-20.5 45.5q0 28 20.5 47t47.5 19q28 0 47.5 -19t19.5 -47q0 -26 -19.5 -45.5t-47.5 -19.5zM376 609q-26 0 -46.5 19.5t-20.5 45.5q0 28 20.5 47t46.5 19q29 0 48.5 -19t19.5 -47q0 -26 -20 -45.5t-48 -19.5zM265 502q91 0 146 -53t55 -152
v-297h-98v55q-55 -66 -157 -66q-77 0 -124 39t-47 103t49 102t132 38h139v32q0 51 -27.5 78t-77.5 27q-74 0 -136 -73l-61 62q74 105 207 105zM233 70q53 0 90 33t37 83v9h-126q-87 0 -87 -60q0 -31 24 -48t62 -17z" />
    <glyph glyph-name="agrave.ss01" horiz-adv-x="536" 
d="M304 568h-78l-128 193v19h127zM265 502q91 0 146 -53t55 -152v-297h-98v55q-55 -66 -157 -66q-77 0 -124 39t-47 103t49 102t132 38h139v32q0 51 -27.5 78t-77.5 27q-74 0 -136 -73l-61 62q74 105 207 105zM233 70q53 0 90 33t37 83v9h-126q-87 0 -87 -60q0 -31 24 -48
t62 -17z" />
    <glyph glyph-name="amacron.ss01" horiz-adv-x="536" 
d="M409 716v-84h-288v84h288zM265 502q91 0 146 -53t55 -152v-297h-98v55q-55 -66 -157 -66q-77 0 -124 39t-47 103t49 102t132 38h139v32q0 51 -27.5 78t-77.5 27q-74 0 -136 -73l-61 62q74 105 207 105zM233 70q53 0 90 33t37 83v9h-126q-87 0 -87 -60q0 -31 24 -48
t62 -17z" />
    <glyph glyph-name="aogonek.ss01" horiz-adv-x="536" 
d="M422 -29q-18 -11 -25 -16t-14 -14.5t-7 -19.5q0 -33 42 -33q14 0 48 6v-73q-40 -12 -78 -12q-52 0 -83 25.5t-31 67.5q0 33 22 59.5t72 54.5v39q-55 -66 -157 -66q-77 0 -124 39t-47 103t49 102t132 38h139v32q0 51 -27.5 78t-77.5 27q-74 0 -136 -73l-61 62
q74 105 207 105q91 0 146 -53t55 -152v-297zM233 70q53 0 90 33t37 83v9h-126q-87 0 -87 -60q0 -31 24 -48t62 -17z" />
    <glyph glyph-name="aring.ss01" horiz-adv-x="536" 
d="M264 554q-51 0 -84.5 33.5t-33.5 81.5q0 49 33.5 82.5t84.5 33.5t85 -33.5t34 -82.5q0 -48 -34 -81.5t-85 -33.5zM265 716q-20 0 -33 -13.5t-13 -33.5q0 -19 13 -32t33 -13q19 0 32 13t13 32q0 20 -13 33.5t-32 13.5zM265 502q91 0 146 -53t55 -152v-297h-98v55
q-55 -66 -157 -66q-77 0 -124 39t-47 103t49 102t132 38h139v32q0 51 -27.5 78t-77.5 27q-74 0 -136 -73l-61 62q74 105 207 105zM233 70q53 0 90 33t37 83v9h-126q-87 0 -87 -60q0 -31 24 -48t62 -17z" />
    <glyph glyph-name="atilde.ss01" horiz-adv-x="536" 
d="M174 600h-82q-2 10 -2 29q0 53 27.5 86t71.5 33q39 0 70 -24l27 -20q25 -20 41 -20q28 0 28 38v14h83q1 -10 1 -29q0 -53 -27.5 -86.5t-71.5 -33.5q-35 0 -70 24l-26 20q-28 21 -42 21q-28 0 -28 -38v-14zM265 502q91 0 146 -53t55 -152v-297h-98v55q-55 -66 -157 -66
q-77 0 -124 39t-47 103t49 102t132 38h139v32q0 51 -27.5 78t-77.5 27q-74 0 -136 -73l-61 62q74 105 207 105zM233 70q53 0 90 33t37 83v9h-126q-87 0 -87 -60q0 -31 24 -48t62 -17z" />
    <glyph glyph-name="t.ss02" horiz-adv-x="375" 
d="M334 400h-153v-231q0 -47 24.5 -66t73.5 -19q16 0 48 5v-89q-40 -11 -70 -11q-85 0 -133 42.5t-48 128.5v460h105v-129h153v-91z" />
    <glyph glyph-name="tbar.ss02" horiz-adv-x="378" 
d="M332 403h-151v-108h151v-87h-151v-39q0 -47 24.5 -66t73.5 -19q16 0 48 5v-89q-40 -11 -70 -11q-85 0 -133 42.5t-48 128.5v460h105v-129h151v-88z" />
    <glyph glyph-name="tcaron.ss02" horiz-adv-x="374" 
d="M285 750h111l-44 -208h-76zM181 620v-129h153v-91h-153v-231q0 -47 24.5 -66t73.5 -19q16 0 48 5v-89q-40 -11 -70 -11q-85 0 -133 42.5t-48 128.5v460h105z" />
    <glyph glyph-name="uni0163.ss02" horiz-adv-x="375" 
d="M334 400h-153v-231q0 -47 24.5 -66t73.5 -19q16 0 48 5v-89q-40 -10 -63 -11q16 -27 16 -60q0 -51 -38.5 -85.5t-104.5 -34.5q-33 0 -71 9v72q37 -3 58 -3q70 0 70 61q0 26 -14 52q-104 34 -104 160v460h105v-129h153v-91z" />
    <glyph glyph-name="ordfeminine.ss01" horiz-adv-x="367" 
d="M181 563q62 0 98 -34.5t36 -98.5v-186h-78v27q-36 -34 -93 -34q-50 0 -78.5 26t-28.5 68q0 43 31.5 67t85.5 24h76v14q0 54 -59 54q-39 0 -83 -36l-38 55q57 54 131 54zM168 300q27 0 44.5 16t17.5 42v10h-62q-21 0 -33 -9.5t-12 -24.5q0 -34 45 -34z" />
    <glyph glyph-name="zero.osf" horiz-adv-x="661" 
d="M330 546q118 0 201.5 -81t83.5 -198t-83.5 -198t-202.5 -81q-118 0 -200.5 81t-82.5 198t82.5 198t201.5 81zM330 449q-77 0 -126 -51.5t-49 -130.5q0 -78 49 -130t126 -52q76 0 126 52t50 130t-50 130t-126 52z" />
    <glyph glyph-name="one.osf" horiz-adv-x="504" 
d="M327 535v-444h136v-91h-389v91h147v348h-137v96h243z" />
    <glyph glyph-name="two.osf" horiz-adv-x="567" 
d="M285 91h229v-91h-471v24l201 150q40 29 56.5 42.5t40 37t32.5 45t9 47.5q0 44 -28 74t-76 30q-49 0 -78 -30.5t-29 -73.5q0 -19 5 -47h-104q-7 27 -7 56q0 77 60 134t156 57q92 0 151 -53.5t59 -136.5q0 -67 -39.5 -119t-116.5 -109z" />
    <glyph glyph-name="three.osf" horiz-adv-x="527" 
d="M305 294q71 -13 122 -66.5t51 -137.5q0 -99 -70.5 -161t-170.5 -62q-80 0 -139.5 39.5t-92.5 102.5l74 53q64 -98 155 -98q59 0 97.5 34.5t38.5 90.5t-40 87t-113 31h-70v29l152 203h-247v96h411v-29z" />
    <glyph glyph-name="four.osf" horiz-adv-x="559" 
d="M545 91v-91h-91v-121h-105v121h-330v29l206 506h110l-183 -444h197v204h105v-204h91z" />
    <glyph glyph-name="five.osf" horiz-adv-x="547" 
d="M274 299q91 0 157.5 -55t66.5 -153q0 -100 -70.5 -162t-171.5 -62q-82 0 -142.5 39.5t-94.5 102.5l74 53q64 -98 160 -98q59 0 97.5 34.5t38.5 91.5q0 56 -39.5 86.5t-112.5 30.5h-152v328h362v-96h-259v-149q49 9 86 9z" />
    <glyph glyph-name="six.osf" horiz-adv-x="556" 
d="M295 438q88 0 152.5 -63.5t64.5 -157.5q0 -97 -68.5 -162.5t-165.5 -65.5t-165 65.5t-68 163.5q0 38 13.5 76t28.5 62t48 71l165 233h125l-159 -225q14 3 29 3zM278 86q54 0 91.5 37.5t37.5 93.5t-37.5 93.5t-91.5 37.5q-55 0 -92 -37.5t-37 -93.5t37 -93.5t92 -37.5z
" />
    <glyph glyph-name="seven.osf" horiz-adv-x="513" 
d="M36 535h453v-29l-318 -627h-114l288 560h-309v96z" />
    <glyph glyph-name="eight.osf" horiz-adv-x="583" 
d="M388 343q143 -53 143 -171q0 -83 -66.5 -133t-172.5 -50q-107 0 -174 50t-67 133q0 119 143 171q-112 59 -112 159q0 80 59.5 124.5t150.5 44.5q90 0 149 -44.5t59 -124.5q0 -101 -112 -159zM292 584q-48 0 -78.5 -23t-30.5 -63q0 -36 26 -59t82 -48q56 24 82 47t26 60
q0 40 -30 63t-77 23zM292 77q64 0 98 27t34 72t-33.5 71t-99.5 50q-66 -23 -99.5 -50t-33.5 -71q0 -45 35 -72t99 -27z" />
    <glyph glyph-name="nine.osf" horiz-adv-x="556" 
d="M279 546q96 0 164.5 -65.5t68.5 -163.5q0 -54 -20.5 -96t-70.5 -112l-162 -230h-125l157 222q-13 -3 -30 -3q-87 0 -151.5 63.5t-64.5 156.5q0 98 68.5 163t165.5 65zM278 187q55 0 92 37.5t37 93.5t-37 94t-92 38q-54 0 -91.5 -37.5t-37.5 -94.5q0 -56 37.5 -93.5
t91.5 -37.5z" />
    <glyph glyph-name="zero.osf.zero" horiz-adv-x="661" 
d="M330 546q118 0 201.5 -81t83.5 -198t-83.5 -198t-202.5 -81q-118 0 -200.5 81t-82.5 198t82.5 198t201.5 81zM330 452q-77 0 -127.5 -52.5t-50.5 -132.5q0 -52 24 -97l253 254q-44 28 -99 28zM330 82q77 0 128.5 52.5t51.5 132.5q0 56 -26 99l-254 -254q44 -30 100 -30z
" />
    <glyph glyph-name="zero.tf" 
d="M280 671q117 0 177 -91t60 -244q0 -155 -59.5 -251t-177.5 -96t-177.5 96t-59.5 251q0 153 60 244t177 91zM280 574q-127 0 -127 -239q0 -249 127 -249t127 249q0 239 -127 239z" />
    <glyph glyph-name="one.tf" 
d="M359 92h165v-92h-457v92h186v446l-169 -46l-25 93l264 75h36v-568z" />
    <glyph glyph-name="two.tf" 
d="M242 92h278v-92h-472v24l235 253q55 59 80 99t25 82q0 50 -30 83t-80 33q-51 0 -81.5 -34.5t-30.5 -85.5q0 -28 5 -51h-108q-7 27 -7 57q0 84 61.5 147.5t161.5 63.5q95 0 156.5 -58.5t61.5 -146.5q0 -65 -35 -121.5t-104 -129.5z" />
    <glyph glyph-name="three.tf" 
d="M320 416q72 -13 123.5 -66.5t51.5 -138.5q0 -98 -70 -160t-171 -62q-79 0 -138.5 39.5t-93.5 103.5l74 52q64 -98 155 -98q59 0 97 34.5t38 90.5t-39 86.5t-113 30.5h-73v28l156 209h-248v95h412v-29z" />
    <glyph glyph-name="four.tf" 
d="M529 206v-91h-79v-115h-106v115h-325v29l189 516h110l-166 -454h192v203h106v-203h79z" />
    <glyph glyph-name="five.tf" 
d="M288 419q92 0 158 -54t66 -152q0 -100 -70.5 -162t-171.5 -62q-82 0 -142.5 39t-94.5 103l74 53q63 -98 160 -98q60 0 98.5 34t38.5 91q0 56 -39.5 86t-113.5 30h-151v333h361v-95h-258v-155q39 9 85 9z" />
    <glyph glyph-name="six.tf" 
d="M297 438q88 0 152.5 -63.5t64.5 -157.5q0 -97 -69 -162.5t-165 -65.5q-97 0 -165.5 65.5t-68.5 163.5q0 38 14 76t29 62t49 71l164 233h125l-159 -225q13 3 29 3zM280 86q55 0 91.5 37.5t36.5 93.5t-36.5 93.5t-91.5 37.5t-91.5 -37.5t-36.5 -93.5t36.5 -93.5t91.5 -37.5
z" />
    <glyph glyph-name="seven.tf" 
d="M64 660h453v-29l-319 -631h-115l292 565h-311v95z" />
    <glyph glyph-name="eight.tf" 
d="M377 343q142 -53 142 -171q0 -83 -66 -133t-173 -50t-173 50t-66 133q0 118 141 171q-111 60 -111 159q0 80 59 124.5t150 44.5t150 -44.5t59 -124.5q0 -102 -112 -159zM280 584q-47 0 -77.5 -23t-30.5 -63q0 -36 26.5 -59.5t81.5 -47.5q55 24 81.5 47t26.5 60
q0 40 -30 63t-78 23zM280 77q65 0 99 27.5t34 71.5t-33.5 70.5t-99.5 50.5q-66 -25 -99.5 -51t-33.5 -70t34 -71.5t99 -27.5z" />
    <glyph glyph-name="nine.tf" 
d="M280 671q97 0 165.5 -65.5t68.5 -163.5q0 -38 -14 -76t-29 -62t-49 -71l-164 -233h-125l159 225q-14 -3 -29 -3q-88 0 -152.5 63.5t-64.5 157.5q0 97 69 162.5t165 65.5zM280 312q55 0 91.5 37.5t36.5 93.5t-36.5 93.5t-91.5 37.5t-91.5 -37.5t-36.5 -93.5t36.5 -93.5
t91.5 -37.5z" />
    <glyph glyph-name="zero.tf.zero" 
d="M280 671q117 0 177 -91t60 -244q0 -155 -59.5 -251t-177.5 -96t-177.5 96t-59.5 251q0 153 60 244t177 91zM280 580q-135 0 -135 -245q0 -47 4 -80l242 243q-32 82 -111 82zM280 80q135 0 135 255q0 35 -3 67l-241 -240q33 -82 109 -82z" />
    <glyph glyph-name="zero.tosf" 
d="M280 546q109 0 181.5 -79t72.5 -200t-73 -200t-182 -79t-181 79t-72 200t72.5 200t181.5 79zM280 449q-66 0 -106 -50t-40 -132t39.5 -132t105.5 -50t106 50t40 132q0 81 -39.5 131.5t-105.5 50.5z" />
    <glyph glyph-name="one.tosf" 
d="M352 535v-444h171v-91h-463v91h186v348h-171v96h277z" />
    <glyph glyph-name="two.tosf" 
d="M274 91h233v-91h-472v24l202 151q49 37 73 57.5t45 53t21 65.5q0 43 -28.5 70.5t-76.5 27.5q-50 0 -78.5 -30t-28.5 -74q0 -12 4 -46h-103q-8 30 -8 56q0 77 60 134t156 57q92 0 151 -53.5t59 -135.5q0 -66 -39.5 -117t-120.5 -112z" />
    <glyph glyph-name="three.tosf" 
d="M322 294q72 -14 122.5 -67.5t50.5 -136.5q0 -99 -70.5 -161t-170.5 -62q-79 0 -138.5 39.5t-93.5 102.5l74 53q64 -98 155 -98q59 0 97.5 34.5t38.5 90.5t-39.5 87t-113.5 31h-70v29l152 203h-247v96h412v-29z" />
    <glyph glyph-name="four.tosf" 
d="M525 91v-91h-79v-121h-105v121h-325v29l184 506h111l-163 -444h193v204h105v-204h79z" />
    <glyph glyph-name="five.tosf" 
d="M288 299q92 0 158 -55t66 -153q0 -100 -70 -162t-171 -62q-82 0 -143 39.5t-94 102.5l73 53q66 -98 161 -98q59 0 98 34.5t39 91.5q0 56 -39.5 86.5t-113.5 30.5h-151v328h361v-96h-259v-149q49 9 85 9z" />
    <glyph glyph-name="six.tosf" 
d="M297 438q88 0 152.5 -63.5t64.5 -157.5q0 -97 -69 -162.5t-165 -65.5q-97 0 -165.5 65.5t-68.5 163.5q0 38 14 76t29 62t49 71l164 233h125l-159 -225q13 3 29 3zM280 86q55 0 91.5 37.5t36.5 93.5t-36.5 93.5t-91.5 37.5t-91.5 -37.5t-36.5 -93.5t36.5 -93.5t91.5 -37.5
z" />
    <glyph glyph-name="seven.tosf" 
d="M64 535h453v-29l-318 -627h-114l289 560h-310v96z" />
    <glyph glyph-name="eight.tosf" 
d="M377 343q142 -53 142 -171q0 -83 -66 -133t-173 -50t-173 50t-66 133q0 118 141 171q-111 60 -111 159q0 80 59 124.5t150 44.5t150 -44.5t59 -124.5q0 -102 -112 -159zM280 584q-47 0 -77.5 -23t-30.5 -63q0 -36 26.5 -59.5t81.5 -47.5q55 24 81.5 47t26.5 60
q0 40 -30 63t-78 23zM280 77q65 0 99 27.5t34 71.5t-33.5 70.5t-99.5 50.5q-66 -25 -99.5 -51t-33.5 -70t34 -71.5t99 -27.5z" />
    <glyph glyph-name="nine.tosf" 
d="M280 546q97 0 165.5 -65.5t68.5 -163.5q0 -38 -13 -74t-28.5 -61t-50.5 -73l-161 -230h-125l157 222q-13 -3 -30 -3q-87 0 -152 63.5t-65 156.5q0 97 69 162.5t165 65.5zM280 187q55 0 91.5 37.5t36.5 93.5t-36.5 94t-91.5 38t-91.5 -37.5t-36.5 -94.5q0 -56 36.5 -93.5
t91.5 -37.5z" />
    <glyph glyph-name="zero.tosf.zero" 
d="M280 546q109 0 181.5 -79t72.5 -200t-73 -200t-182 -79t-181 79t-72 200t72.5 200t181.5 79zM280 456q-70 0 -111.5 -52.5t-41.5 -136.5q0 -48 13 -84l237 237q-41 36 -97 36zM280 77q70 0 111.5 53t41.5 137q0 47 -14 87l-238 -239q41 -38 99 -38z" />
    <glyph glyph-name="zero.zero" horiz-adv-x="625" 
d="M313 671q124 0 187.5 -92t63.5 -243q0 -152 -63.5 -249.5t-187.5 -97.5q-84 0 -142.5 48t-84 124.5t-25.5 174.5q0 150 64 242.5t188 92.5zM313 577q-146 0 -146 -242q0 -48 6 -87l256 255q-36 74 -116 74zM313 83q74 0 109.5 67t35.5 185q0 48 -5 77l-254 -255
q36 -74 114 -74z" />
    <glyph glyph-name="zero.dnom" horiz-adv-x="415" 
d="M208 423q80 0 121 -58t41 -153q0 -96 -41 -157.5t-121 -61.5t-121 61.5t-41 157.5q0 95 41 153t121 58zM208 347q-78 0 -78 -136q0 -143 78 -143t78 143q0 136 -78 136z" />
    <glyph glyph-name="one.dnom" horiz-adv-x="361" 
d="M232 416v-341h88v-75h-275v75h104v266h-98v75h181z" />
    <glyph glyph-name="two.dnom" horiz-adv-x="376" 
d="M184 75h153v-75h-303v18l148 160q58 64 58 106q0 27 -16 45t-42 18q-27 0 -43.5 -18t-16.5 -47q0 -7 2 -31h-82q-4 16 -4 36q0 54 40 95t104 41q62 0 102.5 -37.5t40.5 -94.5q0 -42 -22 -77.5t-67 -84.5z" />
    <glyph glyph-name="three.dnom" horiz-adv-x="357" 
d="M220 263q41 -10 70.5 -43t29.5 -84q0 -63 -45 -103t-110 -40q-51 0 -90 25.5t-60 67.5l58 41q35 -58 89 -58q32 0 52.5 18t20.5 49q0 61 -86 61h-45v21l88 123h-146v75h266v-23z" />
    <glyph glyph-name="four.dnom" horiz-adv-x="365" 
d="M352 137v-68h-53v-69h-76v69h-209v22l127 325h85l-110 -279h107v120h76v-120h53z" />
    <glyph glyph-name="five.dnom" horiz-adv-x="368" 
d="M189 268q59 0 101 -34.5t42 -95.5q0 -65 -45.5 -105t-112.5 -40q-52 0 -91.5 25.5t-60.5 67.5l58 41q35 -58 91 -58q33 0 54.5 18t21.5 48q0 62 -87 62h-95v219h238v-75h-159v-78q25 5 45 5z" />
    <glyph glyph-name="six.dnom" horiz-adv-x="373" 
d="M202 282q53 0 94.5 -41t41.5 -101q0 -63 -45 -105t-107 -42t-106 42t-44 107q0 34 13 61.5t43 68.5l103 144h98l-96 -134h5zM186 69q29 0 49 20t20 51t-20 51.5t-49 20.5t-48.5 -20.5t-19.5 -51.5t19.5 -51t48.5 -20z" />
    <glyph glyph-name="seven.dnom" horiz-adv-x="336" 
d="M30 416h288v-23l-189 -393h-89l168 341h-178v75z" />
    <glyph glyph-name="eight.dnom" horiz-adv-x="385" 
d="M265 215q81 -34 81 -105q0 -53 -43 -85t-111 -32t-110.5 32t-42.5 86q0 71 81 104q-63 37 -63 99q0 51 38 80t97 29q60 0 98 -29t38 -81q0 -62 -63 -98zM192 357q-25 0 -42 -12.5t-17 -34.5q0 -20 14.5 -33t44.5 -28q31 15 45.5 28t14.5 33q0 22 -17 34.5t-43 12.5z
M192 60q34 0 53.5 15t19.5 39q0 42 -73 67q-35 -13 -53.5 -28t-18.5 -39t18.5 -39t53.5 -15z" />
    <glyph glyph-name="nine.dnom" horiz-adv-x="373" 
d="M187 423q62 0 106 -42t44 -107q0 -34 -13 -61.5t-43 -68.5l-103 -144h-97l95 134h-5q-52 0 -94 41t-42 101q0 63 45 105t107 42zM187 204q29 0 48.5 20.5t19.5 51.5t-19.5 51t-48.5 20t-49 -20t-20 -51t20 -51.5t49 -20.5z" />
    <glyph glyph-name="zero.numr" horiz-adv-x="415" 
d="M208 667q80 0 121 -58t41 -153q0 -96 -41 -157.5t-121 -61.5t-121 61.5t-41 157.5q0 95 41 153t121 58zM208 591q-78 0 -78 -136q0 -143 78 -143t78 143q0 136 -78 136z" />
    <glyph glyph-name="one.numr" horiz-adv-x="361" 
d="M232 660v-341h88v-75h-275v75h104v266h-98v75h181z" />
    <glyph glyph-name="two.numr" horiz-adv-x="376" 
d="M184 319h153v-75h-303v18l148 160q58 64 58 106q0 27 -16 45t-42 18q-27 0 -43.5 -18t-16.5 -47q0 -7 2 -31h-82q-4 16 -4 36q0 54 40 95t104 41q62 0 102.5 -37.5t40.5 -94.5q0 -42 -22 -77.5t-67 -84.5z" />
    <glyph glyph-name="three.numr" horiz-adv-x="357" 
d="M220 507q41 -10 70.5 -43t29.5 -84q0 -63 -45 -103t-110 -40q-51 0 -90 25.5t-60 67.5l58 41q35 -58 89 -58q32 0 52.5 18t20.5 49q0 61 -86 61h-45v21l88 123h-146v75h266v-23z" />
    <glyph glyph-name="four.numr" horiz-adv-x="365" 
d="M352 381v-68h-53v-69h-76v69h-209v22l127 325h85l-110 -279h107v120h76v-120h53z" />
    <glyph glyph-name="five.numr" horiz-adv-x="368" 
d="M189 512q59 0 101 -34.5t42 -95.5q0 -65 -45.5 -105t-112.5 -40q-52 0 -91.5 25.5t-60.5 67.5l58 41q35 -58 91 -58q33 0 54.5 18t21.5 48q0 62 -87 62h-95v219h238v-75h-159v-78q25 5 45 5z" />
    <glyph glyph-name="six.numr" horiz-adv-x="373" 
d="M202 526q53 0 94.5 -41t41.5 -101q0 -63 -45 -105t-107 -42t-106 42t-44 107q0 34 13 61.5t43 68.5l103 144h98l-96 -134h5zM186 313q29 0 49 20t20 51t-20 51.5t-49 20.5t-48.5 -20.5t-19.5 -51.5t19.5 -51t48.5 -20z" />
    <glyph glyph-name="seven.numr" horiz-adv-x="336" 
d="M30 660h288v-23l-189 -393h-89l168 341h-178v75z" />
    <glyph glyph-name="eight.numr" horiz-adv-x="385" 
d="M265 459q81 -34 81 -105q0 -53 -43 -85t-111 -32t-110.5 32t-42.5 86q0 71 81 104q-63 37 -63 99q0 51 38 80t97 29q60 0 98 -29t38 -81q0 -62 -63 -98zM192 601q-25 0 -42 -12.5t-17 -34.5q0 -20 14.5 -33t44.5 -28q31 15 45.5 28t14.5 33q0 22 -17 34.5t-43 12.5z
M192 304q34 0 53.5 15t19.5 39q0 42 -73 67q-35 -13 -53.5 -28t-18.5 -39t18.5 -39t53.5 -15z" />
    <glyph glyph-name="nine.numr" horiz-adv-x="373" 
d="M187 667q62 0 106 -42t44 -107q0 -34 -13 -61.5t-43 -68.5l-103 -144h-97l95 134h-5q-52 0 -94 41t-42 101q0 63 45 105t107 42zM187 448q29 0 48.5 20.5t19.5 51.5t-19.5 51t-48.5 20t-49 -20t-20 -51t20 -51.5t49 -20.5z" />
    <glyph glyph-name="backslash.case" horiz-adv-x="626" 
d="M5 760h117l499 -860h-117z" />
    <glyph glyph-name="periodcentered.case" horiz-adv-x="270" 
d="M136 429q32 0 54.5 -22.5t22.5 -55.5t-22 -55t-55 -22t-56 22t-23 55t23 55.5t56 22.5z" />
    <glyph glyph-name="bullet.case" horiz-adv-x="402" 
d="M201 447q61 0 103.5 -41t42.5 -103q0 -61 -42.5 -102t-103.5 -41q-60 0 -103.5 41t-43.5 102q0 62 43.5 103t103.5 41z" />
    <glyph glyph-name="exclamdown.case" horiz-adv-x="326" 
d="M163 671q33 0 55 -22t22 -55q0 -34 -22 -56t-55 -22t-55.5 22t-22.5 56q0 33 22.5 55t55.5 22zM206 420l20 -420h-127l20 420h87z" />
    <glyph glyph-name="questiondown.case" horiz-adv-x="448" 
d="M236 671q33 0 55.5 -22t22.5 -55t-22.5 -55.5t-55.5 -22.5t-55.5 22t-22.5 56q0 33 22.5 55t55.5 22zM286 435q10 -22 10 -46q0 -23 -13.5 -46t-26.5 -36t-39 -36q-28 -25 -39.5 -37t-20.5 -29t-9 -37q0 -37 23.5 -59.5t57.5 -22.5q68 0 97 86l88 -38
q-21 -70 -70.5 -107.5t-117.5 -37.5q-79 0 -133 48t-54 122q0 46 22 80.5t68 74.5q51 46 61 64q9 15 9 30q0 11 -4 27h91z" />
    <glyph glyph-name="slash.case" horiz-adv-x="625" 
d="M621 760l-499 -860h-117l499 860h117z" />
    <glyph glyph-name="braceleft.case" horiz-adv-x="404" 
d="M307 672q-71 0 -71 -74q0 -24 12 -90t12 -92q0 -65 -63 -86q33 -11 48 -30.5t15 -54.5q0 -26 -12 -92t-12 -90q0 -75 71 -75h53v-88h-72q-146 0 -146 137q0 35 12 105t12 88q0 55 -57 55h-60v91h60q57 0 57 54q0 19 -12 89t-12 105q0 136 146 136h72v-88h-53z" />
    <glyph glyph-name="braceright.case" horiz-adv-x="404" 
d="M296 376h59v-91h-59q-58 0 -58 -55q0 -18 12 -88t12 -105q0 -137 -146 -137h-72v88h54q70 0 70 75q0 24 -12 90t-12 92q0 35 15 54.5t48 30.5q-63 21 -63 86q0 26 12 92t12 90q0 74 -70 74h-54v88h72q146 0 146 -136q0 -35 -12 -105t-12 -89q0 -54 58 -54z" />
    <glyph glyph-name="bracketleft.case" horiz-adv-x="350" 
d="M305 760v-88h-115v-682h115v-90h-209v860h209z" />
    <glyph glyph-name="bracketright.case" horiz-adv-x="350" 
d="M254 760v-860h-210v90h116v682h-116v88h210z" />
    <glyph glyph-name="parenleft.case" horiz-adv-x="349" 
d="M279 765l43 -66q-152 -101 -152 -368q0 -268 152 -367l-43 -66q-57 27 -101 76t-74.5 141.5t-30.5 215.5q0 180 58 286t148 148z" />
    <glyph glyph-name="parenright.case" horiz-adv-x="349" 
d="M71 765q89 -42 146.5 -148t57.5 -286q0 -179 -57.5 -285t-146.5 -148l-44 66q152 99 152 367q0 267 -152 368z" />
    <glyph glyph-name="emdash.case" horiz-adv-x="1000" 
d="M950 396v-89h-900v89h900z" />
    <glyph glyph-name="endash.case" horiz-adv-x="504" 
d="M465 396v-89h-426v89h426z" />
    <glyph glyph-name="uni2015.case" horiz-adv-x="1000" 
d="M950 396v-89h-900v89h900z" />
    <glyph glyph-name="hyphen.case" horiz-adv-x="344" 
d="M295 396v-89h-246v89h246z" />
    <glyph glyph-name="uni00AD.case" horiz-adv-x="344" 
d="M295 396v-89h-246v89h246z" />
    <glyph glyph-name="guillemotleft.case" horiz-adv-x="550" 
d="M220 522l68 -60l-138 -153l138 -155l-68 -59l-186 199v29zM447 522l68 -60l-138 -153l138 -155l-68 -59l-186 199v29z" />
    <glyph glyph-name="guillemotright.case" horiz-adv-x="550" 
d="M103 522l186 -199v-29l-186 -199l-68 59l138 155l-138 153zM330 522l186 -199v-29l-186 -199l-68 59l138 155l-138 153z" />
    <glyph glyph-name="guilsinglleft.case" horiz-adv-x="323" 
d="M220 522l68 -60l-138 -153l138 -155l-68 -59l-186 199v29z" />
    <glyph glyph-name="guilsinglright.case" horiz-adv-x="323" 
d="M103 522l186 -199v-29l-186 -199l-68 59l138 155l-138 153z" />
    <glyph glyph-name="cent.tf" 
d="M339 170q57 12 100 72l73 -58q-60 -99 -173 -112v-167h-98v173q-86 21 -140.5 89.5t-54.5 159.5q0 90 54.5 158.5t140.5 89.5v174h98v-168q114 -13 174 -111l-73 -58q-44 59 -101 71v-313zM153 327q0 -49 23.5 -88t64.5 -58v291q-41 -18 -64.5 -57t-23.5 -88z" />
    <glyph glyph-name="currency.tf" 
d="M480 331q0 -59 -33 -105l79 -81l-61 -63l-84 85q-46 -26 -103 -26q-53 0 -99 24l-82 -83l-62 63l76 79q-33 47 -33 106q0 58 34 107l-77 79l63 63l82 -83q46 24 98 24q55 0 102 -25l84 84l62 -63l-79 -80q33 -47 33 -105zM186 330q0 -40 25.5 -66t67.5 -26q41 0 67 26
t26 66q0 41 -26 66.5t-67 25.5q-42 0 -67.5 -25.5t-25.5 -66.5z" />
    <glyph glyph-name="dollar.tf" 
d="M490 193q0 -69 -46.5 -113.5t-120.5 -55.5v-119h-97v121q-120 22 -183 135l73 54q46 -72 110 -93v184q-144 57 -144 167q0 61 40 102.5t104 54.5v119h97v-117q99 -18 152 -111l-72 -54q-36 53 -80 67v-163l18 -7q149 -58 149 -171zM187 474q0 -38 39 -61v118
q-39 -17 -39 -57zM323 119q62 18 62 72q0 45 -62 75v-147z" />
    <glyph glyph-name="Euro.tf" 
d="M519 109l26 -90q-63 -30 -140 -30q-110 0 -188 59.5t-109 160.5h-94v83h78q-2 24 -2 38q0 23 1 34h-75v83h90q30 102 108.5 163t189.5 61q76 0 140 -29l-26 -91q-57 23 -109 23q-68 0 -116.5 -34t-72.5 -93h270l-22 -83h-267q-2 -22 -2 -34q0 -14 2 -38h246l-22 -83h-203
q25 -58 72.5 -90.5t114.5 -32.5q53 0 110 23z" />
    <glyph glyph-name="florin.tf" 
d="M447 576q-49 0 -75.5 -19t-32.5 -66l-11 -89h125v-91h-136l-34 -273q-12 -88 -59.5 -129.5t-131.5 -41.5q-35 0 -75 8v89q30 -3 54 -3q50 0 75.5 19.5t32.5 66.5l33 264h-103v91h114l12 98q21 171 191 171q45 0 75 -9v-88q-40 2 -54 2z" />
    <glyph glyph-name="lira.tf" 
d="M286 170q-11 -48 -42 -82h273v-88h-464v24q106 73 127 146h-117v80h119q-6 29 -28 70h-91v80h50q-17 42 -17 82q0 83 60 136t152 53q80 0 136.5 -44t79.5 -128l-91 -33q-33 108 -119 108q-50 0 -80 -31.5t-30 -77.5q0 -31 16 -65h197v-80h-154q18 -35 25 -70h129v-80
h-131z" />
    <glyph glyph-name="uni20BA.tf" 
d="M518 294q8 -32 8 -62q0 -243 -401 -243v231l-91 -42v93l91 42v75l-91 -42v93l91 42v179h106v-131l190 87v-93l-190 -87v-75l190 87v-93l-190 -87v-181q90 7 145.5 45.5t55.5 108.5q0 25 -3 53h89z" />
    <glyph glyph-name="peseta.tf" 
d="M552 483v-90h-70q-16 -80 -80 -128t-157 -48h-59v-217h-101v393h-71v90h71v177h160q93 0 157.5 -48t79.5 -129h70zM377 479q-10 44 -45 67.5t-87 23.5h-59v-91h191zM245 308q109 0 132 89h-191v-89h59z" />
    <glyph glyph-name="uni20BD.tf" 
d="M322 660q93 0 150 -51t57 -137q0 -85 -57.5 -136.5t-149.5 -51.5h-104v-77h237v-88h-237v-119h-103v119h-79v88h79v77h-79v91h79v285h207zM320 569h-102v-194h102q49 0 78 26t29 70q0 45 -29 71.5t-78 26.5z" />
    <glyph glyph-name="uni20B9.tf" 
d="M500 578h-114q27 -32 36 -73h78v-83h-76q-12 -70 -67 -113.5t-138 -51.5l281 -257h-133l-285 255v85h100q49 0 80.5 21.5t41.5 60.5h-223v83h220q-25 71 -119 71h-100v84h418v-82z" />
    <glyph glyph-name="sterling.tf" 
d="M291 216q0 -72 -45 -125h271v-91h-464v24q133 90 133 191q0 4 -0.5 11.5t-0.5 10.5h-122v91h87q-2 3 -9.5 17t-9.5 18l-8.5 17t-9 19.5l-7 18.5t-6 21t-3 20.5t-1.5 23.5q0 83 60 135.5t152 52.5q80 0 136.5 -44t79.5 -128l-91 -33q-33 108 -120 108q-49 0 -79 -31.5
t-30 -77.5q0 -18 6 -38t11 -30.5t20 -36.5t18 -32h171v-91h-140q1 -7 1 -21z" />
    <glyph glyph-name="yen.tf" 
d="M540 660l-188 -293h159v-88h-178v-78h178v-88h-178v-113h-106v113h-177v88h177v78h-177v88h158l-188 293h117l143 -236l144 236h116z" />
    <glyph glyph-name="section.case" horiz-adv-x="590" 
d="M558 234q0 -52 -32 -87t-88 -49q1 -5 1 -17q0 -66 -47.5 -109t-126.5 -43q-117 0 -184 97l71 58q52 -63 115 -63q69 0 69 58q0 21 -13 40t-26.5 30.5t-46.5 36.5l-99 76q-62 44 -90.5 81.5t-28.5 83.5q0 52 32 87t88 49q-1 5 -1 17q0 66 48 109t127 43q116 0 183 -97
l-71 -59q-51 63 -115 63q-69 0 -69 -57q0 -21 13 -40.5t26 -30.5t47 -37l99 -75q62 -44 90.5 -81t28.5 -84zM408 173q48 18 48 60q0 21 -15.5 39t-61.5 52l-102 78q-67 48 -95 86q-47 -18 -47 -60q0 -21 15 -39t61 -53l99 -75q69 -49 98 -88z" />
    <glyph glyph-name="acute.case" horiz-adv-x="266" 
d="M236 910v-19l-128 -167h-78l79 186h127z" />
    <glyph glyph-name="breve.case" horiz-adv-x="384" 
d="M354 897q0 -70 -45.5 -116t-116.5 -46t-116.5 46t-45.5 116h85q0 -38 21.5 -60t55.5 -22t55.5 22t21.5 60h85z" />
    <glyph glyph-name="caron.case" horiz-adv-x="423" 
d="M312 910h81l-148 -186h-67l-148 186h81l101 -94z" />
    <glyph glyph-name="circumflex.case" horiz-adv-x="423" 
d="M393 724h-81l-100 94l-101 -94h-81l148 186h67z" />
    <glyph glyph-name="dieresis.case" horiz-adv-x="440" 
d="M98 877q28 0 47.5 -18.5t19.5 -46.5q0 -26 -19.5 -45.5t-47.5 -19.5q-27 0 -47.5 19.5t-20.5 45.5q0 27 20.5 46t47.5 19zM342 877q29 0 48.5 -19t19.5 -47q0 -26 -20 -45.5t-48 -19.5q-26 0 -46.5 19.5t-20.5 45.5q0 27 20.5 46.5t46.5 19.5z" />
    <glyph glyph-name="dotaccent.case" horiz-adv-x="204" 
d="M102 882q30 0 51 -20t21 -50q0 -29 -21 -49t-51 -20t-51 20t-21 49q0 30 21 50t51 20z" />
    <glyph glyph-name="grave.case" horiz-adv-x="261" 
d="M152 910l79 -186h-78l-129 167v19h128z" />
    <glyph glyph-name="hungarumlaut.case" horiz-adv-x="449" 
d="M220 910v-19l-118 -167h-72l79 186h111zM419 910v-19l-117 -167h-73l79 186h111z" />
    <glyph glyph-name="acute.loclPLK.case" horiz-adv-x="226" 
d="M30 724l39 186h127v-19l-88 -167h-78z" />
    <glyph glyph-name="macron.case" horiz-adv-x="368" 
d="M338 847v-85h-308v85h308z" />
    <glyph glyph-name="ring.case" horiz-adv-x="297" 
d="M148 917q51 0 85 -33.5t34 -81.5q0 -49 -34 -82t-85 -33t-84.5 33t-33.5 82q0 48 33.5 81.5t84.5 33.5zM149 848q-20 0 -33 -13t-13 -33t13 -33t33 -13q19 0 32 13t13 33t-13 33t-32 13z" />
    <glyph glyph-name="tilde.case" horiz-adv-x="423" 
d="M131 890q36 0 72 -22l33 -20q32 -18 44 -18q28 0 28 35v15h84q1 -9 1 -29q0 -52 -28 -84.5t-71 -32.5q-34 0 -75 23l-31 18q-32 18 -44 18q-28 0 -28 -36v-13h-84q-2 18 -2 29q0 51 28.5 84t72.5 33z" />
    <glyph glyph-name="acute.i" horiz-adv-x="236" 
d="M206 780v-19l-98 -193h-78l49 212h127z" />
    <glyph glyph-name="dieresis.i" horiz-adv-x="395" 
d="M98 740q28 0 47.5 -19t19.5 -47q0 -26 -19.5 -45.5t-47.5 -19.5q-27 0 -47.5 19.5t-20.5 45.5q0 28 20 47t48 19zM298 740q29 0 48.5 -19t19.5 -47q0 -26 -20 -45.5t-48 -19.5q-26 0 -46.5 19.5t-20.5 45.5q0 28 20 47t47 19z" />
    <glyph glyph-name="grave.i" horiz-adv-x="236" 
d="M157 780l49 -212h-78l-98 193v19h127z" />
    <glyph glyph-name="macron.i" horiz-adv-x="298" 
d="M268 717v-85h-238v85h238z" />
    <glyph glyph-name="tilde.i" horiz-adv-x="387" 
d="M127 748q35 0 67 -27l19 -18q22 -19 34 -19q26 0 26 38v14h82q2 -14 2 -29q0 -52 -26.5 -86t-68.5 -34q-33 0 -67 29l-19 16q-21 20 -34 20q-27 0 -27 -38v-14h-83q-2 14 -2 28q0 53 26.5 86.5t70.5 33.5z" />
    <glyph glyph-name="acute.loclPLK" horiz-adv-x="226" 
d="M30 568l39 212h127v-19l-88 -193h-78z" />
    <glyph glyph-name="commaaccentup" horiz-adv-x="171" 
d="M141 780l-10 -212h-101l33 212h78z" />
    </font>
</defs>
</svg>
