<svg xmlns="http://www.w3.org/2000/svg" width="24" height="24" viewBox="0 0 24 24">
<title>Empty Cart</title>
    <g fill="#bfbfbf" fill-rule="evenodd">
        <path fill-rule="nonzero" d="M20.094 12.862h-9.238L8.401 4.455 1.004 4.4.996 5.6l6.503.049 2.457 8.413h11.038l2.582-8.842-1.152-.336z"/>
        <path d="M10.308 18.346c0 .85.65 1.5 1.5 1.5s1.5-.65 1.5-1.5-.65-1.5-1.5-1.5-1.5.65-1.5 1.5M18.177 18.346c0 .85.65 1.5 1.5 1.5s1.5-.65 1.5-1.5-.65-1.5-1.5-1.5-1.5.65-1.5 1.5"/>
    </g>
</svg>
