<svg xmlns="http://www.w3.org/2000/svg" xmlns:xlink="http://www.w3.org/1999/xlink" width="24" height="24" viewBox="0 0 24 24">
    <defs>
        <path id="a" d="M18.508 6.493l-.038-.025c-.769-.732-1.674-1.079-2.716-1.03l-.037-.074.025-.012c.942-.211 1.5-.434 1.674-.682.05-.199-.012-.31-.223-.335-.471.062-.918.161-1.302.322.496-.322.682-.545.57-.657-.483.012-1.017.26-1.563.757.199-.348.286-.546.236-.571a3.602 3.602 0 0 0-.694.583c-.422.471-.757.905-1.017 1.302l-.013.025c-.657 1.079-1.128 2.158-1.401 3.262l-.1.087-.024.012a5.245 5.245 0 0 0-1.451-1.253c-.67-.446-1.464-.855-2.382-1.265-.992-.52-2.009-.942-3.026-1.277-.012 1.153.558 2.059 1.662 2.728v.013c-.384 0-.769.062-1.14.173.074 1.067.83 1.799 2.256 2.196l-.012.025a1.607 1.607 0 0 0-1.377.57c.472.918 1.303 1.352 2.506 1.327-.236.124-.422.248-.546.397-.223.236-.298.508-.223.819.26.47.719.682 1.401.644l.037.05-.012.025C8.4 15.844 6.973 16.39 5.31 16.279l-.024.012C4.27 16.278 3.178 15.795 2 14.827c1.178 1.7 2.753 2.927 4.7 3.709 2.22.731 4.453.793 6.673.16h.037c2.158-.62 3.981-1.91 5.494-3.844.695-1.004 1.13-1.972 1.303-2.902 1.128.037 1.935-.285 2.443-.98l-.012-.025c-.385.137-1.117.1-2.196-.124v-.124c1.191-.136 1.898-.52 2.121-1.153-.83.322-1.65.335-2.455.025-.15-1.117-.683-2.146-1.6-3.076"/>
    </defs>
    <g fill="none" fill-rule="evenodd">
        <mask id="b" fill="#fff">
            <use xlink:href="#a"/>
        </mask>
        <use fill="#C2D1D9" xlink:href="#a"/>
        <g fill="#EFEEED" mask="url(#b)">
            <path d="M0 0h24v24H0z"/>
        </g>
    </g>
</svg>
