<svg xmlns="http://www.w3.org/2000/svg" width="120" height="41" viewBox="0 0 120 41">
    <g fill="none" fill-rule="evenodd">
        <path fill="#000" fill-rule="nonzero" d="M35.749 16.771c-.042.26-.337.692-.547.865-.168.13-.463.13-.715.043-.169-.086-.337-.216-.295-.432.042-.346.21-.519.42-.735.253-.26.674-.562.969-.26.21.087.252.303.168.52m-17.167.82c-.252-.172-.547-.388-.757-.69-.253-.303-.379-.692-.084-1.038.336-.432 1.178-.13 1.514.086.38.26.716.562.968.908.295.432.547.907.758 1.47-.884-.087-1.641-.26-2.399-.735m2.23 2.723c-.126.345-.252.734-.463 1.037-.21.346-.462.735-.841.994-.168.13-.463.216-.673.086-.126-.086-.169-.302-.126-.518a2.01 2.01 0 0 1 .378-.735c.253-.39.505-.605.715-.821.21-.216.505-.432.632-.692-.085-.173-.169-.346-.21-.518.125 0 .252.043.378.043.168.043.294.13.294.26.085.258 0 .561-.084.864m-4.838-.217c-.21.13-.421.217-.631.346-.253.173-.38.346-.38.562 0 .13.085.26.127.389-.084.346-.294.648-.589.908-.21.216-.42.432-.715.605-.169.086-.295.043-.379-.043-.126-.173-.084-.346 0-.562a6.3 6.3 0 0 1 .505-.822c.42-.605 1.136-1.383 1.767-1.728.126-.087.253-.044.295.043.126.086.084.26 0 .302M4.066 28.527c-.21.26-.715 1.038-1.22 1.47-.252.216-.547.346-.757.216-.379-.173.126-.864.252-1.037.421-.562 1.01-1.038 1.557-1.513.379-.302.59-.432.968-.605a4.967 4.967 0 0 1-.8 1.47m25.287-8.731c.127-.087.716-.735.842-.562.126.173-.084.475-.337.735-.336.389-.589.691-1.136.691.127-.345.379-.605.631-.864m5.176-1.6c-.169-.086-.337-.086-.547 0-.169.044-.295.13-.463.217-.21.13-.379.26-.547.432l-.631.648c-.21.26-.463.605-.715.865-.38.389-.716.82-1.094 1.167-.463.432-1.01.907-1.6 1.167-.21.086-.42.13-.672.043-.127-.043-.253-.13-.337-.39-.042-.129-.042-.302.042-.518.042-.043.084-.13.126-.173a6.673 6.673 0 0 0 1.936-1.08c.589-.476 1.052-.994 1.304-1.6.168-.388.126-.648 0-.777-.337-.303-.968-.044-1.304.13-.337.215-.716.388-1.052.604-.421.303-.8.649-1.136.995-.253.259-.505.561-.758.82-.21-.042-.294-.086-.378-.215-.126-.173-.084-.433-.084-.649l.126-.778c.042-.216.21-.389.294-.605.042-.13-.042-.302-.168-.346-.168-.086-.337-.043-.547.044-.21.086-.463.259-.715.562a2.2 2.2 0 0 0-.379.561c-.084.044-.126 0-.126 0-.042-.216-.084-.432-.21-.648-.21-.302-.505-.432-.758-.432-.8-.043-1.472.043-2.272.043-.168-.346-.294-.735-.505-1.037a5.905 5.905 0 0 0-.925-1.297c-.421-.475-.968-.821-1.6-1.08-.42-.173-.84-.303-1.304-.303-.462 0-.841.173-1.136.432-.294.303-.462.735-.294 1.297.084.303.252.605.42.821.253.346.632.648 1.01.865.337.216.716.302 1.052.475.127.086.295.173.463.216l-1.01 1.037c-.042.044-.63.649-.8.606-.167 0-.378.043-.336-.087.084-.432.169-.821.21-1.253 0-.173-.041-.303-.168-.476-.883-1.037-2.524.26-3.324.908a9.694 9.694 0 0 0-1.683 1.815c-.252.13-.547.303-.799.519a.794.794 0 0 1-.505.173c.126-.216.253-.433.42-.649.17-.259.38-.475.548-.691.21-.303.42-.605.673-.908.21-.302.42-.562.631-.864.126-.173.168-.346.084-.476-.042-.086-.168-.173-.42-.13-.21 0-.421.13-.674.26-.21.13-.378.26-.589.432-.21.216-.462.432-.673.692-.21.216-.379.475-.589.691-.252.303-.505.519-.715.735-.379.389-.968.95-1.515 1.34-.294.216-.547.432-.8.562-.252.13-.546.216-.883.173-.336-.044-.547-.26-.463-.649.042-.259.169-.562.295-.82a9.86 9.86 0 0 1 .463-.952c.21-.345.462-.648.715-.994.252-.302.463-.605.757-.907.337-.346.673-.606 1.01-.951.337-.303.8-.649 1.389-.994.462-.303 1.051-.519 1.64-.649.505-.13.968-.173 1.305-.173.378 0 .715 0 1.094.044.21-.303.378-.605.589-.908.168-.26.294-.519.463-.735-.042-.043-.127-.173-.337-.173a2.47 2.47 0 0 0-.968.044c-.841.172-1.683.475-2.566.864-.673.26-1.305.562-1.936.908-.547.302-1.136.648-1.64.994-.59.389-1.137.82-1.642 1.296l-1.388 1.297c-.42.432-.757.95-1.094 1.426-.295.432-.505.821-.631 1.297a2.201 2.201 0 0 0-.042 1.167c.126.519.42.864.925.95.421.087.884.087 1.347-.043.336-.086.715-.172 1.094-.302.252-.086.505-.216.715-.389.042-.043.126-.086.126 0 0 .216-.168.346-.294.562-.084.13-.169.26-.295.389-.673.432-1.346.864-1.977 1.34-1.389.907-2.777 1.815-3.871 3.068-.379.433-.758 1.038-.884 1.6-.21 1.08.842 1.123 1.6.907.84-.216 1.724-.735 2.397-1.253 1.01-.778 2.062-1.73 2.82-2.81l.546-.734c.169-.26.38-.519.547-.778.169-.216.295-.433.463-.692.21-.346.379-.691.59-1.037.252-.216.504-.432.799-.605.294-.216.589-.39.883-.605.169-.13.379-.26.59-.346a2.616 2.616 0 0 0-.085.605c0 .26 0 .475.084.648.126.26.337.432.673.476.337.043.674.043.968-.087.295-.13.59-.302.926-.432.252-.173.463-.346.715-.475l.59-.519.504-.692.42-.561.295-.303.337-.086.337.043c-.085.216-.21.389-.295.605-.126.302-.21.648-.21.95 0 .26 0 .563.126.822.126.303.379.562.631.648.294.13.631.13 1.01.087.336-.087.673-.216.967-.39.337-.215.716-.475 1.01-.82.253-.303.547-.606.758-.995.252-.389.42-.864.63-1.253.127-.302.253-.605.337-.95.085-.303.127-.606.127-.908.252 0 .42-.044.673 0 .168 0 .378.086.505.216.126.086.21.302.168.605-.042.216-.084.432-.21.605-.253.518-.547.994-.8 1.47-.463.82-1.01 1.685-1.472 2.506h1.683c.715-.864 1.346-2.074 1.935-3.069.084-.086.126-.086.168-.043.127.303.295.605.547.649.379.086.716 0 1.01-.173a3.36 3.36 0 0 0-.379 1.253c-.042.476.085.908.421 1.167.547.389 1.094.173 1.641-.13.379-.216.757-.432 1.094-.691.42-.303.842-.605 1.22-.951.084-.086.21-.173.295-.26.168-.215.126 0 .084.13-.126.216-.253.476-.379.692-.21.302-.42.648-.63.95-.295.433-.59.822-.885 1.254l-.63.908c-.295.432-.632.821-.926 1.253-.253.303-.463.648-.716.951-.252.346-.547.648-.799.994-.252.303-.505.562-.715.865a2.81 2.81 0 0 0-.253.691c0 .173.042.39.169.519.168.173.378.259.63.216.253 0 .548-.173.758-.303.253-.173.42-.389.631-.562.253-.259.463-.518.715-.82l.758-1.038c.294-.432.589-.908.883-1.34.253-.389.463-.778.674-1.167l.757-1.426c.21-.39.42-.821.631-1.254.21-.432.42-.864.631-1.253.253-.432.463-.864.758-1.297.168-.302.378-.561.589-.82.252-.347.504-.65.757-.952.168-.216.42-.432.547-.691.126-.303.042-.519-.126-.605"/>
        <path fill="#026DC6" d="M66.667 16.298h4.211v4.211h-4.211z"/>
        <path fill="#000" d="M58.182 17.885c.992 1.071 1.467 2.442 1.467 4.198v8.952h-3.927v-8.438c0-.814-.258-1.5-.733-2.013-.518-.514-1.165-.771-1.942-.771-.82 0-1.467.257-1.985.77-.518.515-.776 1.2-.776 2.014v8.438h-3.97V16.6h3.624v1.328c1.08-1.07 2.503-1.627 4.272-1.627 1.64-.043 2.978.514 3.97 1.584"/>
        <path fill="#000" fill-rule="nonzero" d="M76.664 20.192c-.63.502-1.009 1.214-1.261 2.093h6.471c0-.88-.336-1.549-.924-2.093-.589-.503-1.303-.754-2.143-.754-.799 0-1.513.251-2.143.754m8.698 4.773h-9.96c.253.879.715 1.59 1.43 2.05.714.503 1.554.713 2.605.713 1.387 0 2.69-.46 3.95-1.424l1.597 2.638c-1.681 1.423-3.572 2.093-5.673 2.093-2.227 0-4.076-.712-5.547-2.135-1.47-1.424-2.185-3.182-2.185-5.233 0-2.052.714-3.81 2.143-5.234 1.429-1.423 3.194-2.135 5.253-2.135 1.975 0 3.571.628 4.79 1.884 1.219 1.256 1.849 2.805 1.849 4.69a9.18 9.18 0 0 1-.252 2.093"/>
        <path fill="#000" d="M96.842 16.471v3.5h-.981c-1.145 0-2.044.303-2.698.951-.654.649-.981 1.6-.981 2.853v7.26h-3.76V16.471h3.433v1.772c.94-1.297 2.207-1.945 3.76-1.945.491 0 .9.043 1.227.173M98.246 17h4.211v14.035h-4.211z"/>
        <path fill="#000" fill-rule="nonzero" d="M109.608 20.904c-.684.711-1.027 1.674-1.027 2.763 0 1.13.343 2.051 1.027 2.763.684.712 1.582 1.088 2.694 1.088 1.07 0 1.967-.376 2.652-1.088.727-.712 1.069-1.633 1.069-2.721 0-1.089-.342-2.01-1.07-2.764-.726-.753-1.582-1.13-2.65-1.13-1.113 0-2.01.335-2.695 1.089m8.125-2.47c1.497 1.423 2.267 3.14 2.267 5.233 0 2.051-.77 3.81-2.267 5.233-1.496 1.423-3.335 2.135-5.516 2.135-2.182 0-3.978-.712-5.432-2.135-1.497-1.424-2.224-3.182-2.224-5.233 0-2.052.727-3.81 2.224-5.234 1.497-1.423 3.336-2.135 5.474-2.135 2.139 0 3.978.712 5.474 2.135"/>
        <path fill="#000" d="M39.298 17h4.211v14.035h-4.211zM44.21 11.737a2.478 2.478 0 0 1-2.456 2.456 2.478 2.478 0 0 1-2.456-2.456 2.478 2.478 0 0 1 2.456-2.456 2.478 2.478 0 0 1 2.457 2.456M103.158 11.737a2.478 2.478 0 0 1-2.456 2.456 2.478 2.478 0 0 1-2.456-2.456 2.478 2.478 0 0 1 2.456-2.456 2.478 2.478 0 0 1 2.456 2.456M69.03 28.173c-1.718 0-2.332-.608-2.332-2.303V12.79h-3.764v3.867h-1.881v4.216h1.881v5.17c0 3.825 1.719 5.694 5.237 5.694.818 0 1.514-.13 2.004-.304v-3.347c-.695.087-.9.087-1.145.087"/>
    </g>
</svg>
